<?xml version="1.0" encoding="UTF-8"?>
<svg id="_レイヤー_2" data-name="レイヤー 2" xmlns="http://www.w3.org/2000/svg" width="339.72" height="220.8" viewBox="0 0 339.72 220.8">
  <defs>
    <style>
      .cls-1 {
        fill: #211815;
      }

      .cls-2 {
        fill: #f5f19b;
      }

      .cls-3 {
        fill: #ecbb6e;
      }

      .cls-4 {
        fill: #93c9ce;
      }

      .cls-5 {
        fill: #5c948d;
      }

      .cls-6, .cls-7 {
        fill: #fff;
      }

      .cls-8 {
        fill: #d3f2c9;
      }

      .cls-9 {
        fill: #fffb9f;
      }

      .cls-10 {
        fill: #ceeaeb;
      }

      .cls-11 {
        fill: #f2d496;
      }

      .cls-7 {
        stroke: #ceeaeb;
        stroke-miterlimit: 10;
        stroke-width: 2.83px;
      }
    </style>
  </defs>
  <g id="_レイヤー_1-2" data-name="レイヤー 1">
    <g>
      <path class="cls-7" d="M9.95,1.42h239.38c4.68,0,8.47,3.79,8.47,8.47v68.3s9.69,9.69,9.69,9.69h-9.69s0,.5,0,.5c0,4.68-3.79,8.47-8.47,8.47H9.95c-4.68,0-8.47-3.79-8.47-8.47V9.89c0-4.68,3.79-8.47,8.47-8.47Z"/>
      <g>
        <path d="M14.13,21.06c0-1.14.83-2.42,1.79-3.15h1.39c-.96.79-1.86,1.98-1.75,2.86.78.04,1.37.42,1.37,1.05s-.51,1.11-1.18,1.11c-.95,0-1.61-.76-1.61-1.88ZM17.45,21.06c0-1.14.83-2.42,1.79-3.15h1.4c-.96.79-1.86,1.98-1.75,2.86.78.04,1.36.42,1.36,1.05s-.51,1.11-1.18,1.11c-.95,0-1.61-.76-1.61-1.88Z"/>
        <path d="M23.49,20.34l-2.28.38-.04-1.58,4.12-.6-.02,1.02v9.88h-1.78v-9.1Z"/>
        <path d="M35.96,27.64c4-.44,6.24-1.82,6.24-3.81,0-1.38-.86-2.45-2.6-2.45-.88,0-1.93.21-3.19.48-1.53.33-2.8.65-4.17.98l-.41-1.58c1.31-.29,2.67-.57,4.17-.87,1.35-.27,2.67-.51,3.67-.51,2.7,0,4.23,1.63,4.23,3.87,0,2.79-2.36,4.67-7.04,5.38l-.92-1.5Z"/>
        <path d="M52.34,28.47c2.75-.69,4.38-2.37,4.38-4.5s-1.47-3.53-3.6-3.66c-.11,1.7-.38,3.17-.84,4.6-.72,2.25-2,3.48-3.36,3.48s-2.52-1.4-2.52-3.32c0-3.48,2.88-6.21,6.42-6.21,3.25,0,5.49,1.98,5.49,5.08,0,2.69-1.65,4.68-4.74,5.75l-1.23-1.23ZM48.96,26.78c.77,0,1.41-.9,1.88-2.38.41-1.32.65-2.49.74-3.96-2.07.53-3.64,2.42-3.64,4.65,0,.92.49,1.69,1.03,1.69Z"/>
        <path d="M60.74,28.63c2.62-1.76,3.96-3.87,4.5-6.6-1.4.02-2.71.03-3.81.03l-.03-1.47c1.11,0,2.52,0,4.05-.01.09-.92.12-1.88.09-2.91h1.56c0,1.05-.04,2-.13,2.88,1.58-.03,3.21-.06,4.74-.11-.04,3.09-.41,5.73-.95,7.35-.5,1.47-1.17,1.73-2.26,1.73-.69,0-1.47-.09-2.22-.23l-.2-1.6c.99.24,1.62.31,2.12.31.57,0,.96-.28,1.17-.91.36-1.1.73-3.17.79-5.15-1.11.03-2.27.06-3.39.08-.6,3.36-2.04,5.61-4.71,7.59l-1.32-.97Z"/>
        <path d="M76.14,26.65c2.55.01,5.35,0,8.14-.03,0-1.71-.02-3.42-.03-5.13-3.22.03-5.94.06-8.19.09l-.03-1.5c2.14.01,5.35-.02,9.76-.09-.03,3.03,0,6.04.04,9.07h-1.56v-.97c-2.55,0-5.38.03-8.12.06l-.03-1.5ZM84.54,18.64l.78-.72c.6.53,1.08.96,1.74,1.77l-.84.78c-.63-.84-1.04-1.26-1.68-1.83ZM85.95,17.7l.78-.74c.66.57,1.12,1.04,1.75,1.79l-.81.72c-.55-.67-1.12-1.26-1.72-1.77Z"/>
        <path d="M90.71,24.88c0-1.42.32-3.93.86-6.79l1.53.24c-.6,2.89-.92,5.41-.92,6.58,0,.47.03,1,.11,1.46.24-.76.62-1.65.9-2.19l.9.9c-.46.93-.67,1.53-.84,2.1-.2.69-.3,1.36-.24,1.99l-1.18.5c-.62-1.21-1.11-2.82-1.11-4.78ZM95.06,26.52c0-.65.27-1.37.99-2.17l1.42.48c-.69.6-.92,1.08-.92,1.46,0,.75.63,1.19,2.29,1.19.66,0,1.63-.09,2.59-.32l.3,1.56c-1.04.17-2.07.21-2.7.21-2.71,0-3.99-.72-3.99-2.4ZM95.22,19.62c1.68.03,4.29-.12,6-.39l.18,1.5c-1.72.27-4.32.44-6.04.39l-.14-1.5Z"/>
        <path d="M105.39,29.57c1.62-.72,2.62-1.84,2.97-3.34-1.56.69-3.06,1.23-4.28,1.54l-.54-1.33c.38-.09.58-.13,1.04-.25v-7.75c1.93-.2,3.5-.54,4.8-1.02l1.05,1.14c-1.23.43-2.86.79-4.5,1.02v6.25c.84-.24,1.61-.5,2.5-.82v-5.08h1.35v4.68c.04,2.96-.9,4.68-3.34,6.09l-1.05-1.11ZM106.1,21.06l1.12-.54c.42,1.11.77,2.34.99,3.55l-1.21.67c-.15-1.2-.48-2.58-.9-3.69ZM110.88,18.42h5.47v8.55c0,1.05-.34,1.35-1.54,1.35-.52,0-1.04-.03-1.48-.09l-.21-1.47c.43.1.94.17,1.35.17.45,0,.54-.09.54-.5v-6.66h-2.75v10.67h-1.38v-12.01ZM112.52,21.22l1.12-.57c.44,1.1.83,2.55,1.09,4l-1.27.71c-.21-1.62-.58-3.19-.95-4.14Z"/>
        <path d="M121.49,27.4c0-1.41,1.5-2.47,3.67-3.51-.2-.55-.63-.79-1.14-.79-.73,0-1.47.38-2.08.9-.55.47-.79.71-1.47,1.59l-1.17-.87c1.12-1.04,2.08-2.28,2.9-3.88-.96.06-1.88.1-2.69.13l-.15-1.46c1.08,0,2.26-.03,3.48-.1.27-.66.51-1.35.75-2.12l1.46.43c-.2.54-.41,1.05-.63,1.54,1.2-.12,2.4-.3,3.58-.55l.19,1.46c-1.35.21-2.94.39-4.5.54-.27.5-.56.97-.86,1.44.45-.22.93-.36,1.39-.36,1.11,0,1.91.55,2.24,1.51,1.02-.43,2.13-.87,3.27-1.33l.57,1.39c-1.42.48-2.64.9-3.63,1.29.03.45.06.86.06,1.29,0,.6,0,.98-.03,1.4h-1.5c.04-.5.09-1.16.09-1.65v-.42c-1.54.74-2.28,1.38-2.28,2.01s.62,1.07,2.22,1.07c1.15,0,2.65-.18,3.9-.44l.27,1.53c-1.12.17-2.4.31-4.2.31-2.34,0-3.72-.73-3.72-2.35Z"/>
        <path d="M133.1,28.53h5.29v-2.24h-3.94v-1.26h3.94v-1.96h-2.68v-.66c-.79.56-1.5.96-2.34,1.37l-.87-1.29c2.62-1.08,4.41-2.68,5.7-5.11h1.74c1.54,2.1,3.57,3.67,5.99,4.69l-.92,1.33c-.75-.36-1.56-.83-2.19-1.25v.92h-2.89v1.96h4.04v1.26h-4.04v2.24h5.38v1.32h-12.21v-1.32ZM142.31,21.79c-1.17-.84-2.26-1.89-3.22-3.08-.67,1.14-1.56,2.21-2.61,3.08h5.83Z"/>
        <path d="M147,22.56h2.01c-.15-.78-.33-1.47-.66-2.34h-1.05v-1.18h2.85v-1.83h1.41v1.83h2.69v1.18h-.87c-.2.85-.42,1.56-.74,2.34h1.92v1.2h-7.56v-1.2ZM148.13,24.91h5.49v5.38h-1.33v-.64h-2.82v.78h-1.33v-5.52ZM152.28,28.42v-2.31h-2.82v2.31h2.82ZM151.31,22.56c.32-.79.53-1.46.74-2.34h-2.36c.27.74.45,1.37.63,2.34h.99ZM154.94,18.13h4.23l.76.66c-.45,1.53-.87,2.75-1.4,3.88,1.11,1.3,1.64,2.55,1.64,3.84,0,1.42-.56,2.1-1.74,2.1-.53,0-1.02-.04-1.49-.13l-.24-1.49c.36.12.85.18,1.33.18.51,0,.66-.18.66-.84,0-1.17-.6-2.36-1.74-3.46.57-1.11,1.02-2.29,1.32-3.42h-1.96v10.98h-1.38v-12.3Z"/>
        <path d="M161.64,28.87c3.62-1.48,5.62-4.77,5.81-9.51h-3.35v-1.44h5.01v.58c.03,4.77,1.67,7.69,5.58,10l-1.06,1.42c-2.85-1.88-4.68-4.28-5.29-7-.71,3.31-2.82,6.06-5.66,7.3l-1.04-1.37Z"/>
        <path d="M179.24,25.84c-.54.61-1.17,1.36-1.94,2.38l-1.23-.93c1.25-1.26,2.28-2.73,2.7-3.57.15-.3.33-.74.48-1.2v-.96c-.86.2-1.89.35-2.68.42l-.24-1.39c.83-.06,1.95-.2,2.91-.42,0-1.07-.02-1.86-.03-2.66l1.59.06c-.03.88-.06,1.68-.08,2.61l.63.42c-.15.51-.36,1.07-.64,1.77v.18c1.69-1.79,3.18-3.1,4.51-3.1.96,0,1.6.58,1.6,1.68,0,.64-.1,1.3-.22,2.04-.25,1.59-.36,2.77-.36,3.38,0,.81.27,1.03.72,1.03.63,0,1.33-.42,2.07-1.63l.66,1.54c-.75,1.08-1.75,1.62-2.97,1.62s-2.01-.88-2.01-2.28c0-.94.1-2.19.38-3.93.08-.5.15-1.05.15-1.44,0-.36-.12-.51-.39-.51-.72,0-2.57,1.74-4.14,3.33,0,1.96,0,3.44.03,5.7l-1.57.06c.03-1.62.06-2.92.08-4.2Z"/>
        <path d="M194.09,27.64c0-1.05.95-1.82,2.23-1.82s2.39.72,3.12,2.01c.72-.48,1.19-1.18,1.19-2.02,0-1.05-1.07-1.91-2.79-1.91-1.1,0-2.42.36-3.42.99-.69.43-1.2.86-1.96,1.63l-1.04-1.12c1.65-1.27,4.05-3.39,6.21-5.82-1.21.21-2.73.34-3.99.41l-.27-1.44c1.72-.03,3.61-.15,5.77-.55l.85,1.05c-1.44,1.54-2.56,2.61-3.91,3.83.69-.21,1.33-.3,1.93-.3,2.52,0,4.16,1.33,4.16,3.2,0,2.4-2.4,4.05-5.24,4.05-1.54,0-2.85-.83-2.85-2.17ZM197.09,28.49c.39,0,.75-.04,1.11-.13-.46-.81-1.11-1.26-1.8-1.26-.51,0-.81.25-.81.58,0,.52.66.81,1.5.81Z"/>
        <path d="M205.59,26.47c1.35-2.04,2.19-3.66,2.8-5.29-.99.09-1.93.15-2.67.17l-.19-1.42c1-.02,2.19-.08,3.38-.2.22-.76.45-1.56.66-2.43l1.53.38c-.2.66-.38,1.27-.57,1.86.89-.12,1.73-.27,2.42-.45l.27,1.42c-.78.18-1.95.36-3.18.51-.73,2.04-1.6,3.92-3.03,6.27l-1.41-.81ZM208.67,27.78c0-1.14,1.06-2.05,2.67-2.05.36,0,.75.03,1.14.09-.03-.5-.06-1.08-.06-1.37,0-.42.06-1.15.51-1.92l1.33.77c-.29.58-.33.99-.33,1.41,0,.47.03.9.04,1.43,1.07.34,2.16.88,3.15,1.47l-.72,1.3c-.78-.55-1.58-1.02-2.35-1.35v.24c0,1.4-1,2.25-2.58,2.25-1.39,0-2.8-.71-2.8-2.26ZM211.46,28.62c.69,0,1.11-.31,1.11-.94,0-.12,0-.29-.01-.48-.34-.09-.69-.13-1-.13-.79,0-1.33.29-1.33.76,0,.53.55.79,1.25.79ZM213.72,21.4l.67-1.2c1.37.52,2.46,1.14,3.48,2.13l-.82,1.18c-1.16-1.07-2.04-1.59-3.33-2.12Z"/>
        <path d="M220.8,20.05c-.78-.03-1.37-.41-1.37-1.04s.51-1.11,1.19-1.11c.94,0,1.6.76,1.6,1.86s-.83,2.42-1.79,3.17h-1.39c.96-.81,1.86-1.98,1.75-2.88ZM224.12,20.05c-.78-.03-1.36-.41-1.36-1.04s.51-1.11,1.18-1.11c.95,0,1.61.76,1.61,1.86s-.83,2.42-1.79,3.17h-1.4c.96-.81,1.86-1.98,1.75-2.88Z"/>
        <path d="M239.31,28.15c2.99-.32,4.59-1.38,4.59-2.88,0-.95-.64-1.84-1.92-1.84-.67,0-1.5.18-2.46.38-.94.19-2.23.5-3.21.73l-.4-1.41c.96-.21,2.08-.44,3.28-.68,1.05-.21,2.05-.39,2.85-.39,2.17,0,3.42,1.37,3.42,3.13,0,2.31-1.8,3.76-5.28,4.29l-.87-1.33Z"/>
        <path d="M18.95,51.57c0-1.67,1.05-3.22,3.02-4.56-2.88.27-4.68.42-6.81.58l-.19-1.58c3.12-.12,7.92-.41,11.43-.97l.3,1.53c-2.08.29-2.79.51-4,1.47-1.38,1.08-2.21,2.19-2.21,3.55,0,1.71,1.37,2.59,4.04,2.94l-.67,1.46c-2.99-.42-4.89-1.86-4.89-4.42Z"/>
        <path d="M30.74,52.72c0-.96.5-1.79,1.31-2.58l1.27.74c-.76.58-1.05,1.24-1.05,1.77,0,.97,1.02,1.44,3.39,1.44,1.61,0,3.41-.21,4.75-.55l.38,1.59c-1.65.36-3.12.5-4.9.5-3.39,0-5.15-.97-5.15-2.89ZM34.2,48.09c.53-.44.99-.79,1.54-1.17-1.57.08-3.21.1-4.23.08l-.09-1.52c2.64.09,5.54.03,7.71-.22l.3,1.48c-.6.04-1.04.09-1.53.29-.9.36-1.48.84-2.38,1.65l-1.32-.58Z"/>
        <path d="M45.11,52.89c0-1.32,1-2.5,2.88-3.69-.61-1.41-1.3-3.21-1.71-4.98l1.58-.38c.27,1.41.88,3.25,1.44,4.62,1.14-.6,2.5-1.21,4.02-1.84l.69,1.47c-3.94,1.35-7.35,3.1-7.35,4.63,0,.94.79,1.51,2.99,1.51,1.32,0,2.92-.1,4.67-.43l.27,1.6c-1.79.3-3.62.36-4.79.36-3.46,0-4.68-1.16-4.68-2.88Z"/>
        <path d="M60.89,51.94c-.69.74-1.33,1.53-2.01,2.43l-1.26-.93c1.42-1.41,2.32-2.66,2.85-3.58.15-.27.3-.63.43-1v-1.27c-.92.24-2.07.42-2.74.46l-.3-1.4c.96-.08,2.12-.22,3.03-.42,0-.97-.01-1.72-.03-2.46l1.59.06c-.03.76-.04,1.48-.06,2.28l.88.42c-.21.57-.53,1.32-.88,2.16,1.54-1.44,2.98-2.13,4.44-2.13,2.1,0,3.69,1.53,3.69,3.83,0,2.74-1.73,4.38-4.77,5.23l-1.11-1.21c2.98-.76,4.3-2.13,4.3-3.99,0-1.35-.9-2.4-2.17-2.4s-2.85,1.04-4.41,2.46c0,2,0,3.46.03,5.76l-1.58.06c.03-1.68.06-3.03.08-4.35Z"/>
        <path d="M73.13,47.11c1.9-.06,3.45-.17,4.89-.34-.34-.83-.65-1.69-.9-2.65l1.54-.35c.17.9.46,1.86.86,2.78.97-.17,1.95-.38,2.98-.65l.33,1.47c-.87.21-1.74.41-2.64.56.83,1.53,1.84,2.85,2.8,3.58l-.93,1.21c-.5-.41-.96-.66-1.68-.88-.79-.26-1.47-.35-2.25-.35-1.7,0-2.55.77-2.55,1.56,0,1.11,1.5,1.56,3.7,1.56.84,0,1.74-.06,2.42-.15l.15,1.46c-.67.09-1.83.15-2.64.15-3.21,0-5.16-.96-5.16-2.96,0-1.62,1.65-2.91,4.08-2.91.71,0,1.46.14,2.13.35-.58-.75-1.11-1.53-1.58-2.38-1.62.21-3.38.36-5.4.45l-.17-1.5ZM82.02,44.4l.88-.51c.51.67.79,1.21,1.23,2.1l-.97.54c-.41-.94-.69-1.5-1.14-2.13ZM83.55,43.86l.89-.52c.55.66.82,1.18,1.29,2.1l-.93.53c-.43-.92-.73-1.42-1.25-2.1Z"/>
        <path d="M87.14,55.18c1.25-2.34,2.1-4.38,2.71-6.57-.92.14-1.77.25-2.43.36l-.25-1.46c.69-.06,1.96-.2,2.98-.34.24-1.04.45-2.12.65-3.25l1.53.24c-.19.93-.42,1.86-.66,2.82.44-.03.83-.06,1.14-.06,1.44,0,2.4.88,2.4,2.68,0,1.29-.12,2.91-.45,4.27-.38,1.56-1.28,1.97-2.18,1.97-.71,0-1.39-.14-2.01-.36l-.12-1.65c.71.35,1.38.48,1.83.48.58,0,.88-.32,1.11-1.35.19-.89.3-2,.3-3.06s-.43-1.59-1.18-1.59c-.26,0-.62.03-1.14.09-.73,2.59-1.53,4.88-2.82,7.51l-1.41-.73ZM95.13,47.16l1.23-.91c1.17,1.39,1.95,3.06,2.64,5.19l-1.38.9c-.72-2.26-1.35-3.97-2.49-5.17ZM96.3,45.04l.79-.66c.63.6,1.05,1.11,1.56,2.01l-.86.67c-.51-.92-.94-1.48-1.5-2.02ZM97.76,44.2l.79-.66c.68.58,1.08,1.16,1.56,1.98l-.87.66c-.45-.84-.9-1.46-1.49-1.98Z"/>
        <path d="M106.31,54.74c-.79.6-1.61.96-2.42.96-1.32,0-2.1-.96-2.1-2.35,0-1.29.66-2.55,1.74-3.51.53-.48,1.14-.87,1.79-1.14.01-.49.04-1.11.11-1.77-1.14.06-2.18.09-2.92.09l-.08-1.36c.81.03,1.9,0,3.12-.06.06-.69.15-1.38.24-1.98l1.53.21c-.12.52-.23,1.09-.32,1.68,1.4-.12,2.87-.29,4.14-.53l.11,1.38c-1.35.21-2.92.36-4.42.48-.06.52-.11,1.04-.13,1.47.71-.15,1.48-.22,2.31-.21.08-.34.11-.63.15-.97l1.41.21c-.04.31-.1.62-.18.92,1.83.42,3.11,1.72,3.11,3.42,0,1.9-.96,3.67-4.19,4.69l-1.11-1.11c2.85-.84,3.76-2.13,3.76-3.56,0-1.08-.76-1.89-1.92-2.23-.57,1.58-1.53,3.21-2.55,4.32.13.27.27.54.43.79l-1.18,1.02c-.15-.27-.29-.56-.42-.86ZM104.03,54.28c.54,0,1.19-.3,1.82-.87-.27-.9-.47-2.08-.53-3.3-.33.2-.69.48-1.04.83-.54.54-1.04,1.35-1.04,2.24,0,.75.33,1.11.78,1.11ZM106.98,52.33c.66-.82,1.29-1.93,1.7-3.03-.74,0-1.41.08-2.01.25.02.95.09,1.91.32,2.77Z"/>
        <path d="M119.1,53.89c0-1.05.95-1.82,2.23-1.82s2.39.72,3.12,2.01c.72-.48,1.19-1.18,1.19-2.02,0-1.05-1.07-1.91-2.79-1.91-1.09,0-2.42.36-3.42.99-.69.43-1.2.86-1.96,1.63l-1.04-1.12c1.65-1.27,4.05-3.39,6.21-5.82-1.21.21-2.73.34-3.99.41l-.27-1.44c1.72-.03,3.61-.15,5.77-.55l.85,1.05c-1.44,1.54-2.56,2.61-3.91,3.83.69-.21,1.33-.3,1.93-.3,2.52,0,4.16,1.33,4.16,3.2,0,2.4-2.4,4.05-5.24,4.05-1.54,0-2.85-.83-2.85-2.17ZM122.1,54.74c.39,0,.75-.04,1.11-.13-.46-.81-1.11-1.26-1.8-1.26-.51,0-.81.25-.81.58,0,.52.66.81,1.5.81Z"/>
        <path d="M136.41,54.72c2.75-.69,4.38-2.37,4.38-4.5s-1.47-3.53-3.6-3.66c-.11,1.7-.38,3.17-.84,4.6-.72,2.25-2,3.48-3.36,3.48s-2.52-1.4-2.52-3.32c0-3.48,2.88-6.21,6.42-6.21,3.25,0,5.49,1.98,5.49,5.08,0,2.69-1.65,4.68-4.74,5.75l-1.23-1.23ZM133.04,53.03c.77,0,1.41-.9,1.88-2.38.41-1.32.65-2.49.74-3.96-2.07.53-3.64,2.42-3.64,4.65,0,.92.49,1.69,1.03,1.69Z"/>
        <path d="M144.15,54.69c0-1.17.98-2.15,2.17-2.15s2.15.99,2.15,2.16-.98,2.16-2.17,2.16-2.15-.99-2.15-2.17ZM147.47,54.7c0-.64-.51-1.15-1.16-1.15s-1.16.52-1.16,1.15.51,1.16,1.16,1.16,1.16-.53,1.16-1.16Z"/>
        <path d="M159.33,54.78h5.29v-2.24h-3.94v-1.26h3.94v-1.96h-2.68v-.66c-.79.56-1.5.96-2.34,1.37l-.87-1.29c2.62-1.08,4.41-2.68,5.7-5.11h1.74c1.54,2.1,3.57,3.67,5.99,4.69l-.92,1.33c-.75-.36-1.56-.83-2.19-1.25v.92h-2.89v1.96h4.04v1.26h-4.04v2.24h5.38v1.32h-12.21v-1.32ZM168.54,48.04c-1.17-.84-2.26-1.89-3.22-3.08-.67,1.14-1.56,2.21-2.61,3.08h5.83Z"/>
        <path d="M173.24,48.81h2.01c-.15-.78-.33-1.47-.66-2.34h-1.05v-1.18h2.85v-1.83h1.41v1.83h2.69v1.18h-.87c-.2.85-.42,1.56-.74,2.34h1.92v1.2h-7.56v-1.2ZM174.36,51.16h5.49v5.38h-1.33v-.64h-2.82v.78h-1.33v-5.52ZM178.52,54.67v-2.31h-2.82v2.31h2.82ZM177.54,48.81c.32-.79.53-1.46.74-2.34h-2.36c.27.74.45,1.37.63,2.34h.99ZM181.17,44.38h4.23l.76.66c-.45,1.53-.87,2.75-1.4,3.88,1.11,1.3,1.64,2.55,1.64,3.84,0,1.42-.56,2.1-1.74,2.1-.53,0-1.02-.04-1.49-.13l-.24-1.49c.36.12.85.18,1.33.18.51,0,.66-.18.66-.84,0-1.17-.6-2.36-1.74-3.46.57-1.11,1.02-2.29,1.32-3.42h-1.96v10.98h-1.38v-12.3Z"/>
        <path d="M187.88,55.12c3.62-1.48,5.62-4.77,5.81-9.51h-3.35v-1.44h5.01v.58c.03,4.77,1.67,7.69,5.58,10l-1.06,1.42c-2.85-1.88-4.68-4.28-5.29-7-.71,3.31-2.82,6.06-5.66,7.3l-1.04-1.37Z"/>
        <path d="M205.47,52.09c-.54.61-1.17,1.36-1.94,2.38l-1.23-.93c1.25-1.26,2.28-2.73,2.7-3.57.15-.3.33-.74.48-1.2v-.96c-.86.2-1.89.35-2.68.42l-.24-1.39c.83-.06,1.95-.2,2.91-.42,0-1.07-.02-1.86-.03-2.66l1.59.06c-.03.88-.06,1.68-.08,2.61l.63.42c-.15.51-.36,1.07-.64,1.77v.18c1.69-1.79,3.18-3.1,4.51-3.1.96,0,1.6.58,1.6,1.68,0,.64-.1,1.3-.22,2.04-.25,1.59-.36,2.77-.36,3.38,0,.81.27,1.03.72,1.03.63,0,1.33-.42,2.07-1.63l.66,1.54c-.75,1.08-1.75,1.62-2.97,1.62s-2.01-.88-2.01-2.28c0-.94.1-2.19.38-3.93.08-.5.15-1.05.15-1.44,0-.36-.12-.51-.39-.51-.72,0-2.57,1.74-4.14,3.33,0,1.96,0,3.44.03,5.7l-1.57.06c.03-1.62.06-2.92.08-4.2Z"/>
        <path d="M221.39,51.57c0-1.67,1.05-3.22,3.02-4.56-2.88.27-4.68.42-6.81.58l-.19-1.58c3.12-.12,7.92-.41,11.43-.97l.3,1.53c-2.08.29-2.79.51-4,1.47-1.38,1.08-2.21,2.19-2.21,3.55,0,1.71,1.37,2.59,4.04,2.94l-.67,1.46c-2.99-.42-4.89-1.86-4.89-4.42Z"/>
        <path d="M231.11,50.34l.73-1.19c.8.39,1.64.88,2.29,1.37l-.75,1.25c-.88-.63-1.57-1.07-2.28-1.42ZM231.23,55.56c.96-.98,1.89-2.16,2.62-3.38l.96.99c-.71,1.3-1.59,2.55-2.46,3.51l-1.12-1.12ZM236.3,52.75c-.25.12-.58.24-1.09.39l-.72-1.11c1.39-.33,2.79-.88,4.02-1.59-.36-.29-.72-.62-1.16-1.05-.54.53-1.08.95-1.75,1.33l-.82-.92c1.26-.69,2.4-1.84,3.12-3.18l1.26.36v-.98h-2.91v1.26h-1.46v-1.26h-3.34v-1.17h3.34v-1.39h1.46v1.39h2.91v-1.39h1.46v1.39h3.44v1.17h-3.44v1.02h-1.41l-.3.45h3.3l.71.6c-.61.87-1.35,1.65-2.22,2.35.84.44,2.17.87,3.84,1.26l-.72,1.2c-.34-.09-.76-.21-1.02-.31v4.09h-1.36v-.57h-3.75v.57h-1.37v-3.93ZM232.23,47.76l.81-1.05c.81.5,1.49.99,2.16,1.57l-.9,1.14c-.78-.72-1.47-1.28-2.07-1.67ZM242.42,52.47c-1.2-.41-2.07-.81-2.82-1.28-.88.54-1.56.87-2.55,1.28h5.37ZM241.41,55v-1.48h-3.75v1.48h3.75ZM240.92,48.55h-2.82c.35.42.9.9,1.47,1.21.46-.3.94-.75,1.35-1.21Z"/>
        <path d="M16.19,79.14c0-1.32,1-2.5,2.88-3.69-.61-1.41-1.3-3.21-1.71-4.98l1.58-.38c.27,1.41.88,3.25,1.44,4.62,1.14-.6,2.5-1.21,4.02-1.84l.69,1.47c-3.94,1.35-7.35,3.1-7.35,4.63,0,.94.79,1.51,2.99,1.51,1.32,0,2.92-.1,4.67-.43l.27,1.6c-1.79.3-3.62.36-4.79.36-3.46,0-4.68-1.16-4.68-2.88Z"/>
        <path d="M32.06,78.37c0-.84.03-2.65.06-3.78.03-.98.02-2.97-.01-4.28l1.72.03c-.03,1.29-.07,3.18-.12,4.12-.04,1-.08,2.75-.08,3.67,0,1.79.5,2.66,1.89,2.66,1.72,0,3.57-1.23,4.56-3.04l.83,1.63c-1.16,1.65-3.21,2.92-5.4,2.92-2.62,0-3.45-1.63-3.45-3.95Z"/>
        <path d="M43.98,81.72c1.23-2.76,2.1-5.34,2.71-7.94-1.02.08-1.98.12-2.77.15l-.17-1.51c1.04-.03,2.14-.08,3.29-.15.15-.81.3-1.63.42-2.47l1.54.24c-.14.72-.29,1.42-.44,2.11,1.11-.12,2.21-.25,3.27-.46l.24,1.5c-1.18.2-2.53.36-3.85.48-.69,2.92-1.54,5.7-2.71,8.65l-1.53-.6ZM49.22,79.78c0-.55.21-1.23.67-1.89l1.37.43c-.39.45-.57.9-.57,1.21,0,.58.66.92,2.13.92.96,0,1.98-.1,2.79-.28l.3,1.56c-.93.18-2.13.21-2.85.21-2.75,0-3.84-.9-3.84-2.16ZM49.98,74.98c1.71-.29,3.71-.42,5.4-.34l-.19,1.49c-1.63-.09-3.45.03-4.8.27l-.41-1.41Z"/>
        <path d="M62.34,81.2c3.18-.27,5.28-1.23,5.25-2.83-.02-.97-.84-1.6-2.13-1.57-1.58.03-3.15.96-4.4,2.34l-1.18-.57c.34-1.81.52-4.08.54-6.07l1.59.15c-.04,1.26-.2,2.85-.42,4.32,1.15-.99,2.73-1.49,3.9-1.52,2.05-.04,3.63.99,3.66,2.82v.08c0,2.38-2.04,3.72-5.87,4.2l-.94-1.33ZM61.74,71.32l.56-1.26c1.46.24,2.95.75,4.36,1.5l-.61,1.35c-1.44-.77-2.85-1.26-4.31-1.59Z"/>
        <path d="M71.7,79.86l1.3-1.12c.92.78,1.98,2,2.77,3.13l-1.41,1.25c-.69-1.16-1.64-2.29-2.67-3.25Z"/>
        <path d="M87.03,81.03h5.29v-2.24h-3.94v-1.26h3.94v-1.96h-2.68v-.66c-.79.56-1.5.96-2.34,1.37l-.87-1.29c2.62-1.08,4.41-2.68,5.7-5.11h1.74c1.54,2.1,3.57,3.67,5.99,4.69l-.92,1.33c-.75-.36-1.56-.83-2.19-1.25v.92h-2.89v1.96h4.04v1.26h-4.04v2.24h5.38v1.32h-12.21v-1.32ZM96.24,74.29c-1.17-.84-2.26-1.89-3.22-3.08-.67,1.14-1.56,2.21-2.61,3.08h5.83Z"/>
        <path d="M100.94,75.06h2.01c-.15-.78-.33-1.47-.66-2.34h-1.05v-1.18h2.85v-1.83h1.41v1.83h2.69v1.18h-.87c-.2.85-.42,1.56-.74,2.34h1.92v1.2h-7.56v-1.2ZM102.06,77.41h5.49v5.38h-1.33v-.64h-2.82v.78h-1.33v-5.52ZM106.22,80.92v-2.31h-2.82v2.31h2.82ZM105.24,75.06c.32-.79.53-1.46.74-2.34h-2.36c.27.74.45,1.37.63,2.34h.99ZM108.87,70.63h4.23l.76.66c-.45,1.53-.87,2.75-1.4,3.88,1.11,1.3,1.64,2.55,1.64,3.84,0,1.42-.56,2.1-1.74,2.1-.53,0-1.02-.04-1.49-.13l-.24-1.49c.36.12.85.18,1.33.18.51,0,.66-.18.66-.84,0-1.17-.6-2.36-1.74-3.46.57-1.11,1.02-2.29,1.32-3.42h-1.96v10.98h-1.38v-12.3Z"/>
        <path d="M115.43,76.77h3.42v-.79h-2.61v-1.02h2.61v-.76h-1.8v-1h1.8v-.9h-2.03v1.29h-1.3v-2.37h3.29v-1.5h1.38v1.5h3.34v2.37h-1.3v-1.29h-2.08v.9h1.86v1h-1.86v.76h2.62v1.02h-2.62v.79h3.52v1.09h-8.23v-1.09ZM116.52,78.64h5.97v4.14h-1.32v-.5h-3.33v.65h-1.32v-4.29ZM121.17,81.15v-1.42h-3.33v1.42h3.33ZM124.26,71.34h1.33v8.22h-1.33v-8.22ZM124.73,82.68l-.27-1.41c.66.09,1.41.15,1.89.15.36,0,.45-.1.45-.51v-10.65h1.38v11.08c0,1.11-.34,1.44-1.44,1.44-.58,0-1.35-.04-2.01-.1Z"/>
        <path d="M133.17,78.34c-.54.61-1.17,1.36-1.94,2.38l-1.23-.93c1.25-1.26,2.28-2.73,2.7-3.57.15-.3.33-.74.48-1.2v-.96c-.86.2-1.89.35-2.68.42l-.24-1.39c.83-.06,1.95-.2,2.91-.42,0-1.07-.02-1.86-.03-2.66l1.59.06c-.03.88-.06,1.68-.08,2.61l.63.42c-.15.51-.36,1.07-.64,1.77v.18c1.69-1.79,3.18-3.1,4.51-3.1.96,0,1.6.58,1.6,1.68,0,.64-.1,1.3-.22,2.04-.25,1.59-.36,2.77-.36,3.38,0,.81.27,1.03.72,1.03.63,0,1.33-.42,2.07-1.63l.66,1.54c-.75,1.08-1.75,1.62-2.97,1.62s-2.01-.88-2.01-2.28c0-.94.1-2.19.38-3.93.08-.5.15-1.05.15-1.44,0-.36-.12-.51-.39-.51-.72,0-2.57,1.74-4.14,3.33,0,1.96,0,3.44.03,5.7l-1.57.06c.03-1.62.06-2.92.08-4.2Z"/>
        <path d="M149.1,81.07c3.67.01,5.42-.84,5.42-2.29,0-.87-.81-1.62-2.04-1.62-1.65,0-3.41.86-4.35,2.21l-1.21-.69c.53-1.52.98-3.15,1.32-4.71-.93.04-1.8.06-2.67.06l-.13-1.53c1.06.03,2.07.03,3.12-.03.17-.87.3-1.7.39-2.45l1.58.24c-.09.62-.24,1.33-.41,2.1,1.26-.12,2.62-.31,4.25-.6l.19,1.54c-1.81.27-3.38.45-4.78.55-.27,1.08-.56,2.15-.79,2.99,1.09-.71,2.46-1.08,3.64-1.08,2.04,0,3.46,1.21,3.46,3.03,0,2.28-1.8,3.58-6.17,3.75l-.81-1.47Z"/>
        <path d="M163.05,77.71c-.86.34-1.65.66-2.18.88l-.61-1.25,2.31-.86c-.31-.76-.64-1.54-1.06-2.37l1.32-.51c.38.8.69,1.59,1.02,2.43.18-.08.36-.14.52-.2.71-.25,1.58-.54,2.33-.71-.86-.54-1.5-.83-2.33-1.11l.53-1.1c.93.29,1.62.58,2.55,1.11l-.66,1.06c.42-.09.79-.15,1.08-.15,1.37,0,2.58.84,2.58,2.35,0,1.59-1.44,2.36-2.91,2.36-.42,0-.74-.03-.97-.08l-.41-1.3c.31.07.76.13,1.21.13.95,0,1.62-.39,1.62-1.14,0-.71-.48-1.1-1.21-1.1-.65,0-1.58.29-2.97.83-.17.06-.33.13-.5.2.6,1.57,1.32,3.55,1.8,5.26l-1.38.43c-.45-1.8-1.09-3.67-1.68-5.2Z"/>
        <path d="M177.81,81.74c1.84-.72,2.59-1.23,3.33-2.01.67-.72,1.26-1.88,1.26-2.96,0-1.47-.98-1.99-1.91-1.99-.5,0-.97.07-2.21.4-1.12.3-1.69.46-2.61.72l-.44-1.47c.92-.22,1.49-.38,2.54-.63,1.39-.34,2.13-.48,2.94-.48,1.77,0,3.36.99,3.36,3.21,0,1.89-.79,3.13-1.56,4.03-.81.95-1.95,1.68-3.45,2.27l-1.26-1.1ZM177.42,71.28l.57-1.33c1.5.27,2.91.57,4.54,1.35l-.63,1.38c-1.46-.72-3-1.09-4.49-1.4Z"/>
        <path d="M188.66,81.28c1.28-2.38,2.07-4.33,2.71-6.57-.92.13-1.77.25-2.43.36l-.25-1.46c.69-.06,1.96-.19,2.98-.34.24-1.04.45-2.11.65-3.25l1.53.24c-.19.93-.4,1.86-.64,2.82.42-.03.81-.06,1.12-.06,1.44,0,2.4.88,2.4,2.68,0,1.29-.12,2.91-.45,4.28-.38,1.56-1.28,1.96-2.17,1.96-.71,0-1.4-.13-2.01-.36l-.12-1.65c.7.34,1.38.48,1.83.48.58,0,.89-.31,1.11-1.35.2-.88.3-2,.3-3.06s-.43-1.59-1.18-1.59c-.27,0-.62.03-1.16.09-.71,2.62-1.48,4.83-2.8,7.51l-1.41-.74ZM197.27,72.87l1.28-.84c1.04,1.47,1.75,3.2,2.34,5.46l-1.44.81c-.56-2.29-1.1-3.92-2.18-5.43Z"/>
        <path d="M206.94,81.2c3.18-.27,5.28-1.23,5.25-2.83-.02-.97-.84-1.6-2.13-1.57-1.58.03-3.15.96-4.4,2.34l-1.18-.57c.34-1.81.52-4.08.54-6.07l1.59.15c-.04,1.26-.2,2.85-.42,4.32,1.15-.99,2.73-1.49,3.9-1.52,2.05-.04,3.63.99,3.66,2.82v.08c0,2.38-2.04,3.72-5.87,4.2l-.94-1.33ZM206.34,71.32l.56-1.26c1.46.24,2.95.75,4.36,1.5l-.61,1.35c-1.44-.77-2.85-1.26-4.31-1.59Z"/>
        <path d="M219.5,78.58c-.48.6-1,1.31-1.62,2.21l-1.27-.94c.96-1.1,1.92-2.31,2.49-3.48.12-.24.27-.64.42-1.11v-1.21c-.72.18-1.66.33-2.34.39l-.24-1.38c.76-.06,1.71-.17,2.56-.38,0-1.08-.01-1.88-.03-2.66l1.59.06c-.03.84-.05,1.62-.06,2.5l.72.34c-.13.42-.43,1.17-.75,1.91v.15c1.54-1.65,3-2.91,4.8-2.91s2.73,1.5,2.73,4.46c0,.75-.08,1.5-.2,2.16.66.36,1.29.81,1.88,1.37l-.96,1.27c-.39-.46-.84-.87-1.3-1.18-.09.25-.2.46-.3.63-.5.79-1.43,1.2-2.5,1.2-1.59,0-2.58-.95-2.58-2.15s1.04-2.04,2.56-2.04c.57,0,1.17.11,1.79.29.06-.52.09-1.06.09-1.58,0-1.77-.41-2.95-1.35-2.95-1.26,0-2.94,1.47-4.65,3.33,0,1.92,0,3.38.03,5.61l-1.58.06c.03-1.51.04-2.76.08-3.96ZM225.11,80.55c.6,0,1.08-.29,1.33-.83.04-.09.09-.2.12-.3-.49-.2-1.02-.3-1.42-.3-.64,0-1.09.27-1.09.68,0,.45.36.75,1.07.75Z"/>
        <path d="M230.91,80.94c0-1.17.98-2.15,2.17-2.15s2.15.99,2.15,2.16-.98,2.16-2.17,2.16-2.15-.99-2.15-2.17ZM234.23,80.95c0-.64-.51-1.15-1.16-1.15s-1.16.52-1.16,1.15.51,1.16,1.16,1.16,1.16-.53,1.16-1.16Z"/>
      </g>
      <circle class="cls-8" cx="308.3" cy="82.97" r="30"/>
      <circle class="cls-10" cx="30" cy="190.8" r="30"/>
      <path class="cls-7" d="M329.84,132.45H90.46c-4.68,0-8.47,3.79-8.47,8.47v43.9s-9.69,9.69-9.69,9.69h9.69v.5c0,4.68,3.79,8.47,8.47,8.47h239.38c4.68,0,8.47-3.79,8.47-8.47v-54.09c0-4.68-3.79-8.47-8.47-8.47Z"/>
      <g>
        <path d="M95.93,161.02c1.23-2.76,2.1-5.34,2.71-7.94-1.02.08-1.98.12-2.77.15l-.17-1.51c1.04-.03,2.14-.08,3.29-.15.15-.81.3-1.63.42-2.47l1.54.24c-.14.72-.29,1.42-.44,2.11,1.11-.12,2.21-.25,3.27-.46l.24,1.5c-1.18.2-2.53.36-3.85.48-.69,2.92-1.54,5.7-2.71,8.65l-1.53-.6ZM101.16,159.09c0-.55.21-1.23.67-1.89l1.37.43c-.39.45-.57.9-.57,1.21,0,.58.66.92,2.13.92.96,0,1.98-.1,2.79-.28l.3,1.56c-.93.18-2.13.21-2.85.21-2.75,0-3.84-.9-3.84-2.16ZM101.93,154.29c1.71-.29,3.71-.42,5.4-.34l-.19,1.49c-1.63-.09-3.45.03-4.8.27l-.41-1.41Z"/>
        <path d="M112.92,157.68c0-.84.03-2.65.06-3.78.03-.97.02-2.97-.01-4.28l1.72.03c-.03,1.29-.07,3.18-.12,4.12-.04,1-.08,2.75-.08,3.67,0,1.79.5,2.66,1.89,2.66,1.72,0,3.57-1.23,4.56-3.04l.83,1.63c-1.16,1.65-3.21,2.92-5.4,2.92-2.62,0-3.45-1.63-3.45-3.95Z"/>
        <path d="M124.92,160.59c1.28-2.38,2.07-4.33,2.71-6.57-.92.13-1.77.25-2.43.36l-.25-1.45c.69-.06,1.96-.2,2.98-.35.24-1.04.45-2.11.65-3.25l1.53.24c-.19.93-.4,1.86-.64,2.82.42-.03.81-.06,1.12-.06,1.44,0,2.4.88,2.4,2.68,0,1.29-.12,2.91-.45,4.28-.38,1.56-1.28,1.96-2.17,1.96-.71,0-1.4-.13-2.01-.36l-.12-1.65c.7.34,1.38.48,1.83.48.58,0,.89-.31,1.11-1.35.2-.88.3-2,.3-3.06s-.43-1.59-1.18-1.59c-.27,0-.62.03-1.16.09-.71,2.62-1.48,4.83-2.8,7.51l-1.41-.74ZM133.53,152.17l1.28-.84c1.04,1.47,1.75,3.2,2.34,5.46l-1.44.81c-.56-2.29-1.1-3.92-2.18-5.43Z"/>
        <path d="M139.97,156.69c0-1.42.32-3.93.86-6.79l1.53.24c-.6,2.89-.92,5.41-.92,6.58,0,.47.03,1.01.11,1.46.24-.76.62-1.65.9-2.19l.9.9c-.46.93-.67,1.53-.84,2.1-.2.69-.3,1.36-.24,1.99l-1.18.5c-.62-1.21-1.11-2.82-1.11-4.78ZM144.32,158.32c0-.65.27-1.37.99-2.17l1.42.48c-.69.6-.92,1.08-.92,1.46,0,.75.63,1.19,2.29,1.19.66,0,1.63-.09,2.59-.32l.3,1.56c-1.04.17-2.07.21-2.7.21-2.71,0-3.99-.72-3.99-2.4ZM144.48,151.42c1.68.03,4.29-.12,6-.39l.18,1.5c-1.72.27-4.32.44-6.04.39l-.14-1.5Z"/>
        <path d="M152.57,159.16l1.3-1.12c.92.78,1.98,2,2.77,3.13l-1.41,1.25c-.69-1.16-1.64-2.29-2.67-3.25Z"/>
        <path d="M169.07,157.12c0-1.2.54-3.22,1.86-4.9-.83.13-1.93.27-2.64.33l-.25-1.47c2.05-.1,4.17-.4,5.46-.82l.86,1.21c-.81.17-1.23.38-1.61.73-1.8,1.68-2.13,3.95-2.13,5.05,0,1.94,1.04,3.13,2.6,3.13,2.19,0,3.57-1.95,3.36-5.86-.04-.86-.15-1.86-.33-2.68-.1-.5-.24-.95-.45-1.44l1.54-.36c.14.82.27,1.38.51,2.04.58,1.59,1.67,3.09,2.7,4.4l-1.14,1.17c-.53-.75-1.09-1.54-1.56-2.45.01.17.03.33.03.5.11,3.9-1.57,6.17-4.71,6.17-2.6,0-4.1-2.01-4.1-4.74Z"/>
        <path d="M183.81,158.44c0-1.32,1-2.5,2.88-3.69-.61-1.41-1.3-3.21-1.71-4.98l1.58-.38c.27,1.41.88,3.25,1.44,4.62,1.14-.6,2.5-1.21,4.02-1.84l.69,1.47c-3.94,1.35-7.35,3.1-7.35,4.63,0,.94.79,1.51,2.99,1.51,1.32,0,2.92-.1,4.67-.43l.27,1.6c-1.79.3-3.62.36-4.79.36-3.46,0-4.68-1.16-4.68-2.88Z"/>
        <path d="M200.9,159.45c4-.44,6.24-1.82,6.24-3.81,0-1.38-.86-2.45-2.59-2.45-.89,0-1.94.21-3.2.48-1.53.33-2.8.65-4.17.98l-.41-1.58c1.31-.29,2.67-.57,4.17-.87,1.35-.27,2.67-.51,3.67-.51,2.7,0,4.23,1.63,4.23,3.87,0,2.79-2.36,4.67-7.04,5.38l-.92-1.5Z"/>
        <path d="M211.38,160.74c1.25-2.34,2.1-4.38,2.71-6.57-.92.14-1.77.25-2.43.36l-.25-1.46c.69-.06,1.96-.2,2.98-.34.24-1.04.45-2.12.65-3.25l1.53.24c-.19.93-.42,1.86-.66,2.82.44-.03.83-.06,1.14-.06,1.44,0,2.4.88,2.4,2.68,0,1.29-.12,2.91-.45,4.27-.37,1.56-1.27,1.97-2.17,1.97-.7,0-1.39-.14-2.01-.36l-.12-1.65c.71.35,1.38.48,1.83.48.58,0,.88-.32,1.11-1.35.19-.89.3-2,.3-3.06s-.43-1.59-1.18-1.59c-.26,0-.62.03-1.14.09-.73,2.59-1.53,4.88-2.82,7.51l-1.41-.73ZM219.38,152.71l1.23-.91c1.17,1.39,1.95,3.06,2.64,5.19l-1.38.9c-.72-2.26-1.35-3.97-2.49-5.17ZM220.55,150.6l.79-.66c.63.6,1.05,1.11,1.56,2.01l-.86.67c-.51-.92-.94-1.48-1.5-2.02ZM222,149.76l.79-.66c.68.58,1.08,1.16,1.56,1.98l-.87.66c-.45-.84-.9-1.46-1.49-1.98Z"/>
        <path d="M225.21,156.07h3.42v-.79h-2.61v-1.02h2.61v-.76h-1.8v-1h1.8v-.9h-2.03v1.29h-1.3v-2.37h3.29v-1.5h1.38v1.5h3.34v2.37h-1.3v-1.29h-2.08v.9h1.86v1h-1.86v.76h2.62v1.02h-2.62v.79h3.52v1.09h-8.23v-1.09ZM226.31,157.95h5.97v4.14h-1.32v-.5h-3.33v.65h-1.32v-4.29ZM230.96,160.45v-1.42h-3.33v1.42h3.33ZM234.05,150.64h1.33v8.22h-1.33v-8.22ZM234.51,161.98l-.27-1.41c.66.09,1.41.15,1.89.15.36,0,.45-.1.45-.51v-10.65h1.38v11.08c0,1.11-.34,1.44-1.44,1.44-.58,0-1.35-.04-2.01-.1Z"/>
        <path d="M242.96,157.65c-.54.61-1.17,1.36-1.94,2.38l-1.23-.93c1.25-1.26,2.28-2.73,2.7-3.57.15-.3.33-.74.48-1.2v-.96c-.86.2-1.89.35-2.68.42l-.24-1.39c.83-.06,1.95-.2,2.91-.42,0-1.07-.02-1.86-.03-2.66l1.59.06c-.03.88-.06,1.68-.08,2.61l.63.42c-.15.51-.36,1.07-.64,1.77v.18c1.69-1.79,3.18-3.1,4.51-3.1.96,0,1.6.58,1.6,1.68,0,.64-.1,1.3-.22,2.04-.25,1.59-.36,2.77-.36,3.38,0,.81.27,1.03.72,1.03.63,0,1.33-.42,2.07-1.63l.66,1.54c-.75,1.08-1.75,1.62-2.97,1.62s-2.01-.88-2.01-2.28c0-.94.1-2.19.38-3.93.08-.5.15-1.05.15-1.44,0-.36-.12-.51-.39-.51-.72,0-2.57,1.74-4.14,3.33,0,1.96,0,3.44.03,5.7l-1.57.06c.03-1.62.06-2.92.08-4.2Z"/>
        <path d="M258.87,157.12c0-1.67,1.05-3.22,3.02-4.56-2.88.27-4.68.42-6.81.58l-.19-1.58c3.12-.12,7.92-.41,11.43-.97l.3,1.53c-2.08.29-2.79.51-4,1.47-1.38,1.08-2.21,2.19-2.21,3.55,0,1.71,1.37,2.59,4.04,2.94l-.67,1.46c-2.99-.42-4.89-1.86-4.89-4.42Z"/>
        <path d="M269.67,155.59c0-.52.38-1.26,1.02-1.92l1.05.51c-.4.36-.64.67-.64.88,0,.33.43.48,1.5.48h.22c.06-.36.11-.73.17-1.14.06-.45.13-.93.2-1.42-1-.01-2.01-.08-2.9-.2l-.07-1.42c1.05.15,2.11.24,3.15.24.12-.93.24-1.8.3-2.43l1.56.21c-.11.52-.24,1.32-.38,2.17.92-.04,1.83-.15,2.74-.32l.09,1.42c-.89.15-2.04.26-3.06.29-.07.53-.13,1.02-.19,1.47-.04.38-.09.72-.12,1.04,1.06-.1,2.17-.3,3.03-.57l.33,1.41c-1.11.24-2.37.39-3.51.47-.04.55-.08.96-.08,1.21,0,1.38.62,2.16,2.07,2.14,1.54-.01,2.92-1.09,2.92-2.89,0-.93-.33-1.68-.93-2.69l1.56-.06c.66,1.09.88,2.17.88,2.94,0,2.66-1.84,4.2-4.47,4.2-2.43,0-3.54-1.21-3.54-3.33,0-.34.03-.84.09-1.46h-.36c-1.96,0-2.64-.55-2.64-1.25Z"/>
        <path d="M284.13,155.59c0-.52.38-1.26,1.02-1.92l1.05.51c-.4.36-.64.67-.64.88,0,.33.43.48,1.5.48h.22c.06-.36.11-.73.17-1.14.06-.45.13-.93.2-1.42-1-.01-2.01-.08-2.9-.2l-.07-1.42c1.05.15,2.11.24,3.15.24.12-.93.24-1.8.3-2.43l1.56.21c-.11.52-.24,1.32-.38,2.17.92-.04,1.83-.15,2.74-.32l.09,1.42c-.89.15-2.04.26-3.06.29-.07.53-.13,1.02-.19,1.47-.04.38-.09.72-.12,1.04,1.06-.1,2.17-.3,3.03-.57l.33,1.41c-1.11.24-2.37.39-3.51.47-.04.55-.08.96-.08,1.21,0,1.38.62,2.16,2.07,2.14,1.54-.01,2.92-1.09,2.92-2.89,0-.93-.33-1.68-.93-2.69l1.56-.06c.66,1.09.88,2.17.88,2.94,0,2.66-1.84,4.2-4.47,4.2-2.43,0-3.54-1.21-3.54-3.33,0-.34.03-.84.09-1.46h-.36c-1.96,0-2.64-.55-2.64-1.25Z"/>
        <path d="M302.06,161.05c1.84-.72,2.59-1.23,3.33-2.01.67-.72,1.26-1.88,1.26-2.96,0-1.47-.98-1.99-1.91-1.99-.5,0-.97.07-2.21.4-1.12.3-1.69.46-2.61.72l-.44-1.47c.92-.22,1.49-.38,2.54-.63,1.39-.34,2.13-.48,2.94-.48,1.77,0,3.36.99,3.36,3.21,0,1.89-.79,3.13-1.56,4.03-.81.95-1.95,1.68-3.45,2.27l-1.26-1.1ZM301.67,150.58l.57-1.33c1.5.27,2.91.57,4.54,1.35l-.63,1.38c-1.46-.72-3-1.09-4.49-1.4Z"/>
        <path d="M313.67,157.12c0-1.2.54-3.22,1.86-4.9-.83.13-1.93.27-2.64.33l-.25-1.47c2.05-.1,4.17-.4,5.46-.82l.86,1.21c-.81.17-1.23.38-1.6.73-1.8,1.68-2.13,3.95-2.13,5.05,0,1.94,1.04,3.13,2.6,3.13,2.19,0,3.57-1.95,3.36-5.86-.04-.86-.15-1.86-.33-2.68-.1-.5-.24-.95-.45-1.44l1.54-.36c.14.82.27,1.38.51,2.04.58,1.59,1.67,3.09,2.7,4.4l-1.14,1.17c-.53-.75-1.09-1.54-1.56-2.45.01.17.03.33.03.5.11,3.9-1.57,6.17-4.71,6.17-2.6,0-4.1-2.01-4.1-4.74Z"/>
        <path d="M97.05,184.69c0-1.32,1-2.5,2.88-3.69-.61-1.41-1.3-3.21-1.71-4.98l1.58-.38c.27,1.41.88,3.25,1.44,4.62,1.14-.6,2.5-1.21,4.02-1.84l.69,1.47c-3.94,1.35-7.35,3.1-7.35,4.63,0,.94.79,1.51,2.99,1.51,1.32,0,2.92-.1,4.67-.43l.27,1.6c-1.79.3-3.62.36-4.79.36-3.46,0-4.68-1.16-4.68-2.88Z"/>
        <path d="M114.14,185.7c4-.44,6.24-1.82,6.24-3.81,0-1.38-.86-2.45-2.59-2.45-.89,0-1.94.21-3.2.48-1.53.33-2.8.65-4.17.98l-.41-1.58c1.31-.29,2.67-.57,4.17-.87,1.35-.27,2.67-.51,3.67-.51,2.7,0,4.23,1.63,4.23,3.87,0,2.79-2.36,4.67-7.04,5.38l-.92-1.5Z"/>
        <path d="M124.62,186.99c1.25-2.34,2.1-4.38,2.71-6.57-.92.14-1.77.25-2.43.36l-.25-1.46c.69-.06,1.96-.2,2.98-.34.24-1.04.45-2.12.65-3.25l1.53.24c-.19.93-.42,1.86-.66,2.82.44-.03.83-.06,1.14-.06,1.44,0,2.4.88,2.4,2.68,0,1.29-.12,2.91-.45,4.27-.37,1.56-1.27,1.97-2.17,1.97-.7,0-1.39-.14-2.01-.36l-.12-1.65c.71.35,1.38.48,1.83.48.58,0,.88-.32,1.11-1.35.19-.89.3-2,.3-3.06s-.43-1.59-1.18-1.59c-.26,0-.62.03-1.14.09-.73,2.59-1.53,4.88-2.82,7.51l-1.41-.73ZM132.62,178.96l1.23-.91c1.17,1.39,1.95,3.06,2.64,5.19l-1.38.9c-.72-2.26-1.35-3.97-2.49-5.17ZM133.79,176.85l.79-.66c.63.6,1.05,1.11,1.56,2.01l-.86.67c-.51-.92-.94-1.48-1.5-2.02ZM135.24,176.01l.79-.66c.68.58,1.08,1.16,1.56,1.98l-.87.66c-.45-.84-.9-1.46-1.49-1.98Z"/>
        <path d="M138.93,183.34h1.88v-2.19h-2.34v-1.17h2.34v-1.71c-.31.41-.64.79-1.12,1.21l-.94-.9c1.08-.9,2.01-2.13,2.56-3.39l1.33.38c-.18.41-.39.77-.62,1.11h8.79v1.17h-1.17v2.13h2.05v1.17h-2.05v2.19h1.59v1.19h-12.3v-1.19ZM138.69,187.69c.67-.71,1.32-1.73,1.71-2.78l1.35.46c-.45,1.25-1.08,2.4-1.75,3.23l-1.3-.92ZM143.36,179.98v-2.13h-1.29v2.13h1.29ZM143.36,183.34v-2.19h-1.29v2.19h1.29ZM142.58,185.41l1.38-.24c.33.9.55,1.86.73,3.04l-1.54.27c-.12-1.19-.31-2.24-.57-3.08ZM145.85,179.98v-2.13h-1.29v2.13h1.29ZM145.85,183.34v-2.19h-1.29v2.19h1.29ZM145.35,185.32l1.37-.36c.45.86.81,1.74,1.17,2.88l-1.51.45c-.26-1.16-.62-2.16-1.02-2.97ZM148.38,179.98v-2.13h-1.35v2.13h1.35ZM148.38,183.34v-2.19h-1.35v2.19h1.35ZM148.14,185.28l1.3-.54c.9.93,1.59,1.79,2.22,2.79l-1.44.78c-.67-1.2-1.38-2.23-2.08-3.03Z"/>
        <path d="M156.92,188.37l-.24-1.26c.69.1,1.29.17,1.61.17.37,0,.48-.08.48-.41v-.84h-4.69v-.99h4.69v-.74h-5.83v-1.02h5.83v-.67h-4.68v-.96h4.68v-.74h-3.81v-2.59h3.81v-.72h-5.47v-1.05h5.47v-1.29h1.44v1.29h5.59v1.05h-5.59v.72h3.93v2.59h-3.93v.74h4.38v1.63h1.58v1.02h-1.58v2.36h-1.42v-.63h-2.95v1.25c0,.94-.32,1.2-1.43,1.2-.49,0-1.26-.04-1.86-.1ZM158.76,180.03v-.83h-2.46v.83h2.46ZM162.78,180.03v-.83h-2.58v.83h2.58ZM163.16,183.28v-.67h-2.95v.67h2.95ZM163.16,185.04v-.74h-2.95v.74h2.95Z"/>
        <path d="M168.09,184.53c1.35-2.04,2.19-3.66,2.8-5.29-.99.09-1.93.15-2.67.17l-.19-1.42c1-.02,2.19-.08,3.38-.2.22-.76.45-1.56.66-2.43l1.53.38c-.2.66-.38,1.27-.57,1.86.89-.12,1.73-.27,2.42-.45l.27,1.42c-.78.18-1.95.36-3.18.51-.73,2.04-1.6,3.92-3.03,6.27l-1.41-.81ZM171.17,185.83c0-1.14,1.06-2.05,2.67-2.05.36,0,.75.03,1.14.09-.03-.5-.06-1.08-.06-1.37,0-.42.06-1.15.51-1.92l1.33.77c-.29.58-.33.99-.33,1.41,0,.47.03.9.04,1.43,1.07.34,2.16.88,3.15,1.47l-.72,1.3c-.78-.55-1.58-1.02-2.35-1.35v.24c0,1.4-1,2.25-2.58,2.25-1.39,0-2.8-.71-2.8-2.26ZM173.96,186.67c.69,0,1.11-.31,1.11-.94,0-.12,0-.29-.01-.48-.34-.09-.69-.13-1-.13-.79,0-1.33.29-1.33.76,0,.53.55.79,1.25.79ZM176.22,179.46l.67-1.2c1.37.52,2.46,1.14,3.48,2.13l-.82,1.18c-1.16-1.07-2.04-1.59-3.33-2.12Z"/>
        <path d="M186.59,186.76c3.18-.27,5.28-1.23,5.25-2.83-.02-.97-.84-1.6-2.13-1.57-1.58.03-3.15.96-4.4,2.34l-1.18-.57c.34-1.81.52-4.08.54-6.07l1.59.15c-.04,1.26-.2,2.85-.42,4.32,1.15-.99,2.73-1.49,3.9-1.52,2.05-.04,3.63.99,3.66,2.82v.08c0,2.38-2.04,3.72-5.87,4.2l-.94-1.33ZM185.99,176.88l.56-1.26c1.46.24,2.95.75,4.36,1.5l-.61,1.35c-1.44-.77-2.85-1.26-4.31-1.59Z"/>
        <path d="M196.16,185.65c.36-.06.73-.13,1.08-.21v-9.13h4.74v7.99c.27-.07.65-.19.86-.27l.06,1.25c-1.95.69-4.29,1.35-6.27,1.79l-.46-1.41ZM200.72,179.17v-1.68h-2.21v1.68h2.21ZM200.72,181.98v-1.68h-2.21v1.68h2.21ZM200.72,184.62v-1.51h-2.21v2.07c.76-.17,1.54-.36,2.21-.55ZM201.3,187.45c2.29-1.4,3.15-3.41,3.29-7.69h-2.16v-1.33h2.19v-3.09h1.4v2.94h3.17c-.03,4.72-.17,7.78-.44,8.83-.22.84-.6,1.12-1.59,1.12-.64,0-1.25-.05-1.74-.15l-.27-1.54c.51.17,1.02.24,1.53.24s.72-.17.81-.72c.17-1.08.27-3.21.31-6.45h-1.81c-.04,1.74-.27,3.62-.57,4.69-.57,1.82-1.65,3.33-3.04,4.25l-1.06-1.09Z"/>
        <path d="M211.68,186.84c1.28-2.38,2.07-4.33,2.71-6.57-.92.13-1.77.25-2.43.36l-.25-1.45c.69-.06,1.96-.2,2.98-.35.24-1.04.45-2.11.65-3.25l1.53.24c-.19.93-.4,1.86-.64,2.82.42-.03.81-.06,1.12-.06,1.44,0,2.4.88,2.4,2.68,0,1.29-.12,2.91-.45,4.28-.38,1.56-1.28,1.96-2.17,1.96-.71,0-1.4-.13-2.01-.36l-.12-1.65c.7.34,1.38.48,1.83.48.58,0,.89-.31,1.11-1.35.2-.88.3-2,.3-3.06s-.43-1.59-1.18-1.59c-.27,0-.62.03-1.16.09-.71,2.62-1.48,4.83-2.8,7.51l-1.41-.74ZM220.29,178.42l1.28-.84c1.04,1.47,1.75,3.2,2.34,5.46l-1.44.81c-.56-2.29-1.1-3.92-2.18-5.43Z"/>
        <path d="M228.89,185.7c0-1.05.95-1.82,2.23-1.82s2.39.72,3.12,2.01c.72-.48,1.19-1.19,1.19-2.03,0-1.05-1.07-1.91-2.79-1.91-1.09,0-2.42.36-3.42.99-.69.43-1.2.86-1.96,1.63l-1.04-1.12c1.65-1.27,4.05-3.39,6.21-5.82-1.21.21-2.73.34-3.99.41l-.27-1.44c1.72-.03,3.61-.15,5.77-.55l.85,1.05c-1.44,1.54-2.56,2.61-3.91,3.83.69-.21,1.33-.3,1.93-.3,2.52,0,4.16,1.33,4.16,3.2,0,2.4-2.4,4.05-5.24,4.05-1.54,0-2.85-.83-2.85-2.17ZM231.89,186.55c.39,0,.75-.04,1.11-.13-.46-.81-1.11-1.26-1.8-1.26-.51,0-.81.25-.81.58,0,.52.66.81,1.5.81Z"/>
        <path d="M242.52,184.14c-.48.6-1,1.31-1.62,2.21l-1.27-.94c.96-1.1,1.92-2.31,2.49-3.48.12-.24.27-.64.42-1.11v-1.21c-.72.18-1.66.33-2.34.39l-.24-1.38c.76-.06,1.71-.17,2.56-.38,0-1.08-.01-1.88-.03-2.66l1.59.06c-.03.84-.04,1.62-.06,2.5l.72.34c-.13.42-.43,1.17-.75,1.91v.15c1.54-1.65,3-2.91,4.8-2.91s2.73,1.5,2.73,4.46c0,.75-.08,1.5-.2,2.16.66.36,1.29.81,1.88,1.37l-.96,1.27c-.39-.46-.84-.87-1.3-1.18-.09.25-.2.46-.3.63-.5.79-1.43,1.2-2.5,1.2-1.59,0-2.58-.95-2.58-2.15s1.04-2.04,2.56-2.04c.57,0,1.17.11,1.79.29.06-.52.09-1.06.09-1.57,0-1.77-.41-2.96-1.35-2.96-1.26,0-2.94,1.47-4.65,3.33,0,1.92,0,3.38.03,5.61l-1.58.06c.03-1.51.04-2.76.08-3.96ZM248.13,186.1c.6,0,1.08-.29,1.33-.83.04-.09.09-.2.12-.3-.49-.2-1.02-.3-1.42-.3-.64,0-1.09.27-1.09.68,0,.45.36.75,1.07.75Z"/>
        <path d="M259.55,186.42c0-.66.49-1.23,1.21-1.23s1.21.57,1.21,1.23-.5,1.21-1.21,1.21-1.21-.55-1.21-1.21ZM259.88,176.73h1.76l-.09,7.33h-1.56l-.11-7.33Z"/>
      </g>
      <g>
        <path class="cls-6" d="M39.57,181.04c5.99-4.81,10.66-4.4,11.63-2.77.89,1.5-.2,9.39-9.11,4.98"/>
        <path class="cls-4" d="M43.81,183.61c2.15-3.69,6.52-2.97,7.64-2.44-1.95,3.62-3.96,4.96-7.64,2.44Z"/>
        <path class="cls-1" d="M46.8,185.19c-1.31,0-2.94-.38-4.99-1.39-.3-.15-.42-.51-.28-.82.15-.3.52-.42.82-.28,3.32,1.64,5.84,1.68,7.29.12,1.3-1.4,1.35-3.69,1.02-4.24-.21-.35-.72-.62-1.4-.75-.91-.16-4.27-.39-9.33,3.68-.26.21-.65.17-.86-.09-.21-.26-.17-.65.09-.86,3.68-2.96,7.53-4.43,10.31-3.92,1.04.19,1.83.66,2.23,1.32.64,1.09.43,3.95-1.18,5.69-.75.81-1.93,1.54-3.74,1.54Z"/>
        <path class="cls-6" d="M45.05,195.26c1.64-16.82-17.11-22.8-25.64-13.47-2.97,3.25-5.19,9.02-4.06,15.77-3.29,3.25-2.73,7.92,2.42,10.46,3.1,1.53,6.19,2.19,13.34,2.19,6.63,0,14.3-2.8,16.45-6.93,1.2-2.31.78-5.72-2.5-8.03Z"/>
        <path class="cls-2" d="M34.83,177.63c-.6-4.19-4.15-6.52-4.34-.47"/>
        <path class="cls-2" d="M23.15,178.7c-.51-4.2,2.31-7.38,4.07-1.58"/>
        <path class="cls-6" d="M18.69,181.76c-6.66-3.82-11.21-2.69-11.91-.92-.65,1.62,2.36,9.82,10.47,4.08"/>
        <ellipse class="cls-1" cx="34.31" cy="197.21" rx="1.44" ry="1.56" transform="translate(-30.26 7.74) rotate(-8.95)"/>
        <path class="cls-4" d="M15.42,185.57c-2.15-3.69-7.03-2.78-8.16-2.25,1.95,3.62,4.47,4.77,8.16,2.25Z"/>
        <path class="cls-4" d="M28.25,177.15c1.23,7.46-2.33,14.45-12.53,14.45,0-11.42,12.53-14.45,12.53-14.45Z"/>
        <path class="cls-4" d="M30.49,177.16c0,8.41,6.81,12.72,13.84,13.25,0-11.42-13.84-13.25-13.84-13.25Z"/>
        <path class="cls-4" d="M14.27,204.03c13.81-6.39,25.45-3.61,33.28-.74-3.13,7.57-29.25,10.15-33.28.74Z"/>
        <path class="cls-1" d="M31.1,210.83c-7.59,0-10.64-.79-13.61-2.26-2.68-1.33-4.37-3.31-4.74-5.59-.32-1.98.37-3.96,1.94-5.63-1.1-7.13,1.47-12.92,4.26-15.97,4.25-4.65,11.25-5.93,17.42-3.18,3.01,1.34,5.47,3.51,7.11,6.28,1.79,3.02,2.53,6.54,2.2,10.49,3.38,2.56,3.63,6.22,2.4,8.6-2.36,4.54-10.49,7.26-16.99,7.26ZM29.73,177.99c-3.76,0-7.35,1.46-9.87,4.22-2.64,2.89-5.06,8.42-3.91,15.26.03.2-.03.39-.17.53-1.44,1.42-2.08,3.13-1.81,4.79.3,1.88,1.75,3.54,4.07,4.69,2.8,1.38,5.71,2.13,13.07,2.13,6.88,0,14.01-2.96,15.91-6.6,1.03-1.98.75-5.1-2.31-7.25-.18-.13-.28-.34-.26-.56.71-7.25-2.49-13.19-8.56-15.89-2.01-.89-4.11-1.33-6.15-1.33Z"/>
        <path class="cls-1" d="M30.74,207.32c-1.88,0-3.48-.99-4.4-2.72l-.45.09c-.33.07-.65-.14-.72-.47-.07-.33.14-.65.47-.72l.91-.19c.28-.06.57.09.68.35.73,1.67,2.12,2.55,3.82,2.43,1.72-.13,3.25-1.27,3.64-2.72.07-.28.34-.46.62-.45l.77.04c.34.02.59.3.58.64-.02.34-.31.59-.64.58l-.31-.02c-.69,1.72-2.5,2.99-4.57,3.14-.14.01-.27.02-.41.02Z"/>
        <ellipse class="cls-1" cx="34.31" cy="197.21" rx="1.44" ry="1.56" transform="translate(-30.26 7.74) rotate(-8.95)"/>
        <ellipse class="cls-1" cx="26.64" cy="197.56" rx="1.56" ry="1.44" transform="translate(-172.02 214.19) rotate(-87.1)"/>
        <path class="cls-1" d="M12.04,187.54c-1.46,0-2.58-.54-3.4-1.18-2.09-1.64-2.9-4.58-2.43-5.75.29-.72.99-1.3,1.99-1.65,2.66-.93,6.69-.08,10.79,2.27.29.17.39.54.22.83-.17.29-.54.39-.83.22-5.62-3.23-8.91-2.48-9.78-2.18-.65.23-1.11.57-1.26.95-.21.53.31,2.97,2.06,4.35,1.89,1.49,4.48,1.14,7.49-.99.27-.19.65-.13.85.15.19.27.13.65-.15.85-2.23,1.58-4.07,2.14-5.55,2.14Z"/>
        <path class="cls-1" d="M34.83,178.24c-.3,0-.56-.22-.6-.52-.32-2.23-1.48-3.66-2.12-3.62-.31.02-.93.69-1,3.09-.01.34-.3.59-.63.59-.34-.01-.6-.29-.59-.63.11-3.61,1.4-4.22,2.15-4.27.03,0,.06,0,.09,0,1.46,0,2.94,2.06,3.31,4.67.05.33-.18.64-.52.69-.03,0-.06,0-.09,0Z"/>
        <path class="cls-1" d="M23.15,179.31c-.3,0-.57-.23-.6-.54-.32-2.66.61-5.08,2.07-5.39.74-.15,2.14.1,3.19,3.56.1.32-.08.66-.41.76-.32.1-.66-.08-.76-.41-.7-2.3-1.46-2.78-1.77-2.72-.62.13-1.38,1.81-1.11,4.05.04.33-.2.64-.53.68-.02,0-.05,0-.07,0Z"/>
        <path class="cls-1" d="M35.58,188.74c-.65-1.09-1.64-1.26-2.41-.7-.18.13-.11.42.12.44.71.07,1.33.3,1.98.61.22.1.44-.14.31-.35Z"/>
        <path class="cls-1" d="M24.68,189.14c.65-1.09,1.64-1.26,2.41-.7.18.13.11.42-.12.44-.71.07-1.33.3-1.98.61-.22.1-.44-.14-.31-.35Z"/>
        <circle class="cls-1" cx="31.96" cy="203.15" r=".57"/>
        <circle class="cls-1" cx="30.17" cy="203.15" r=".57"/>
      </g>
      <g>
        <g>
          <path class="cls-1" d="M325.77,75.53c1.96.16,1.33,2.32.37,3.57-.2.26-.59.3-.84.08-1.7-1.45-1.11-3.78.47-3.66Z"/>
          <path class="cls-1" d="M325.66,76.38c-.34,0-.62-.28-.62-.62v-3.88l-.98-1.36c-.2-.28-.13-.66.14-.86.28-.2.66-.13.86.14l1.09,1.52c.08.1.12.23.12.36v4.08c0,.34-.28.62-.62.62Z"/>
          <polygon class="cls-5" points="322.73 65.8 316.41 65.21 319.22 70.9 325.66 71.58 322.73 65.8"/>
          <rect class="cls-5" x="315.81" y="69.01" width="6.88" height="2.99" transform="translate(113.09 -183.25) rotate(38.45)"/>
          <path class="cls-1" d="M321.04,74.9c-.13,0-.27-.04-.38-.13-.27-.21-.31-.6-.1-.87l2.32-2.95c.13-.17.34-.25.55-.23l1.17.13-2.27-4.46-4.88-.46.69,1.4c.1.21.08.46-.06.65l-1.87,2.48c-.21.27-.59.33-.86.12-.27-.21-.33-.59-.12-.86l1.64-2.18-1.02-2.05c-.1-.2-.08-.44.04-.62s.34-.29.57-.26l6.32.59c.21.02.4.15.49.34l2.93,5.78c.1.2.09.44-.04.63-.13.19-.35.29-.57.26l-1.97-.21-2.11,2.68c-.12.15-.3.24-.49.24Z"/>
        </g>
        <path class="cls-9" d="M316.2,100.51l1.71-.86,4.59-2.84,2.64-4.39.28-4.79-2.34-9.89-4.79-6.82-5.62-3.02-6.16-.11-6.16,2.16-3.41,3.79-4.85,9.67-1.63,4.07-.28,5.61,3.62,4.23c4.39,3.17,12.82,4.62,22.39,3.2Z"/>
        <path class="cls-11" d="M325.06,89.18c-5.95-1.44-12.03,4.39-11.11,11.55,6.59-1.14,10.95-4.52,11.11-11.55Z"/>
        <ellipse class="cls-1" cx="300.81" cy="87.82" rx="1.91" ry="1.76" transform="translate(165.76 370.59) rotate(-80.75)"/>
        <ellipse class="cls-1" cx="311.34" cy="88.96" rx="1.76" ry="1.91" transform="translate(-3.7 14.17) rotate(-2.59)"/>
        <path class="cls-11" d="M291.03,86.49c5.2.87,7.66,6.71,5.13,12.44-4.82-3.29-7.39-6.4-5.13-12.44Z"/>
        <path class="cls-1" d="M311.55,101.35c-.33,0-.6-.25-.62-.58-.02-.34.24-.63.58-.65,4.82-.27,12.9-2.05,12.92-10.94,0-1.93-.17-6.91-1.92-11.46-2.11-5.46-5.73-8.5-10.79-9.04-12.14-1.29-14.96,5.89-16.82,10.64-.23.59-.45,1.14-.67,1.63-.21.47-.48,1.01-.76,1.58-1.47,2.98-3.7,7.49-2.19,11.05.9,2.11,3.06,3.71,6.43,4.77,1.39.44,3.2.96,4.76,1.11.34.03.59.33.55.67-.03.34-.34.59-.67.55-1.68-.16-3.56-.71-5.01-1.16-3.72-1.17-6.14-3.01-7.19-5.46-1.74-4.08.64-8.89,2.21-12.08.28-.56.54-1.09.74-1.54.21-.46.42-1,.64-1.58,1.88-4.79,5.03-12.8,18.1-11.41,5.55.59,9.52,3.89,11.81,9.82,1.83,4.74,2.01,9.91,2.01,11.91,0,2.06-.47,5.05-2.62,7.56-2.37,2.76-6.23,4.31-11.47,4.61-.01,0-.02,0-.04,0Z"/>
        <path class="cls-1" d="M299.55,87.17c-.07,0-.13-.02-.19-.07-.78-.62-1.18-1.25-1.48-2.35-.04-.16.05-.33.22-.38.16-.04.33.05.38.22.3,1.1.68,1.56,1.27,2.03.13.11.16.3.05.43-.06.08-.15.12-.24.12Z"/>
        <path class="cls-1" d="M299.35,87.79c-.83,0-1.72-.48-2.42-1.31-.11-.13-.09-.32.03-.44.13-.11.32-.1.44.03.63.74,1.44,1.15,2.12,1.08.17-.02.32.1.34.27.02.17-.1.32-.27.34-.08,0-.15.01-.23.01Z"/>
        <path class="cls-1" d="M312.2,88.39c-.15,0-.28-.11-.31-.27-.02-.17.1-.32.26-.35.68-.09,1.47-.68,1.91-1.43.09-.15.28-.19.42-.11.15.09.2.28.11.42-.54.92-1.49,1.61-2.36,1.73-.01,0-.03,0-.04,0Z"/>
        <path class="cls-1" d="M313.31,89.68c-.38,0-.78-.07-1.16-.25-.16-.07-.22-.25-.15-.41.07-.16.25-.22.41-.15.88.4,1.88.09,2.56-.25.15-.07.34-.01.41.14.08.15.01.34-.14.41-.52.26-1.21.5-1.92.5Z"/>
        <g>
          <path class="cls-3" d="M310.34,94.15c-.69-1.89-3.76-3.93-5.32-3.7-1.56.22-4.86,2.12-5.88,2.06s-1.74-.75-1.86,1.64,1.75,3.62,4.26,2.74c3.48,1.98,9.99.5,8.8-2.74Z"/>
          <path class="cls-3" d="M310.34,96.29c-.77,3.01-5.09,4.77-6.39,4.32-1.3-.44-4.02-1.68-2.59-4.29,2.58.43,8.21.42,8.33-.81s.65.78.65.78Z"/>
          <path class="cls-1" d="M305.27,98.4c-1.1,0-2.27-.34-3.48-1.02-2.37.67-3.69.04-4.39-.63-.88-.84-1.21-2.18-.86-3.5.35-1.34.95-1.45,1.88-1.47.67-.02,1.67-.04,3.32-.9,3.65-1.92,5.78-.82,7.87,1.43.2.22.19.56-.03.76-.22.2-.56.19-.76-.03-1.84-1.98-3.51-2.82-6.57-1.21-1.87.98-3.07,1.01-3.79,1.02q-.69.02-.86.67c-.24.93-.02,1.89.56,2.45.73.7,1.95.8,3.55.31.15-.05.3-.03.43.05,1.98,1.16,4.81,1.86,7.06-1.42.14-.21.41-.29.65-.19,0,0,.74.3,1.4.44.29.06.47.35.41.64-.06.29-.35.48-.64.41-.42-.09-.86-.24-1.17-.35-1.27,1.68-2.82,2.53-4.56,2.53Z"/>
          <path class="cls-1" d="M304.5,101.17c-.58,0-1.15-.1-1.66-.3-2.67-1.04-2.67-3.69-2.66-3.81,0-.3.25-.53.54-.53h0c.3,0,.54.25.53.55,0,.08.02,2.02,1.98,2.79,1.15.45,2.63.23,3.97-.59,1.48-.9,2.46-2.33,2.61-3.82.03-.3.29-.51.59-.48.3.03.51.3.48.59-.19,1.82-1.36,3.55-3.12,4.63-1.05.64-2.19.97-3.26.97Z"/>
        </g>
        <path class="cls-1" d="M300.87,79.48c1.71-.7,3.25-.04,3.97,1.3.17.31-.15.58-.48.41-1.07-.54-2.13-.81-3.29-1.03-.39-.07-.53-.55-.2-.68Z"/>
        <path class="cls-1" d="M314.46,82.08c-1.26-1.34-2.94-1.38-4.15-.47-.28.21-.11.59.27.58,1.2-.05,2.27.15,3.42.43.38.09.71-.28.47-.54Z"/>
      </g>
    </g>
  </g>
</svg>