<?xml version="1.0" encoding="UTF-8"?>
<svg id="_レイヤー_2" data-name="レイヤー 2" xmlns="http://www.w3.org/2000/svg" width="339.66" height="217.19" viewBox="0 0 339.66 217.19">
  <defs>
    <style>
      .cls-1 {
        fill: #211815;
      }

      .cls-2 {
        fill: #f5f19b;
      }

      .cls-3 {
        fill: #ecbb6e;
      }

      .cls-4 {
        fill: #93c9ce;
      }

      .cls-5 {
        fill: #5c948d;
      }

      .cls-6 {
        fill: #fffba1;
      }

      .cls-7, .cls-8 {
        fill: #fff;
      }

      .cls-9 {
        fill: #def7c8;
      }

      .cls-10 {
        fill: #de8a4c;
      }

      .cls-11 {
        fill: #ceeaeb;
      }

      .cls-12 {
        fill: #f2d496;
      }

      .cls-8 {
        stroke: #ceeaeb;
        stroke-miterlimit: 10;
        stroke-width: 2.83px;
      }
    </style>
  </defs>
  <g id="_レイヤー_1-2" data-name="レイヤー 1">
    <g>
      <path class="cls-8" d="M9.89,107.66h239.38c4.68,0,8.47,3.79,8.47,8.47v66.99s9.69,9.69,9.69,9.69h-9.69s0,.5,0,.5c0,4.68-3.79,8.47-8.47,8.47H9.89c-4.68,0-8.47-3.79-8.47-8.47v-77.18c0-4.68,3.79-8.47,8.47-8.47Z"/>
      <g>
        <path d="M15.18,126.5c0-.44-.02-1.02-.04-1.35.69.07,1.2.18,1.6.33.36.14.48.23.48.39q0,.09-.06.24c-.2.51-.25,1.08-.25,2.44,0,1.92.12,3.12.42,4.04.22.71.57,1.11.97,1.11.62,0,1.12-.72,1.68-2.38.28.77.39.99.81,1.53.08.1.12.21.12.31,0,.24-.22.75-.53,1.19-.58.85-1.33,1.32-2.13,1.32-1.15,0-2.02-.93-2.56-2.77-.34-1.2-.51-2.71-.51-4.81v-1.58ZM24.1,126.74c.09,0,.17.04.29.15.75.72,1.53,1.92,2.03,3.09.33.79.64,1.86.64,2.17,0,.15-.08.23-.39.39-.34.18-1.05.42-1.23.42-.13,0-.19-.08-.24-.34-.2-1.16-.46-2-.93-2.97-.42-.87-.45-.92-1.47-2.17.63-.46,1.12-.73,1.3-.73Z"/>
        <path d="M29.64,126.5c0-.44-.02-1.02-.04-1.35.69.07,1.2.18,1.6.33.36.14.48.23.48.39q0,.09-.06.24c-.2.51-.25,1.08-.25,2.44,0,1.92.12,3.12.42,4.04.22.71.57,1.11.97,1.11.62,0,1.12-.72,1.68-2.38.28.77.39.99.81,1.53.08.1.12.21.12.31,0,.24-.22.75-.53,1.19-.58.85-1.33,1.32-2.13,1.32-1.15,0-2.02-.93-2.56-2.77-.34-1.2-.51-2.71-.51-4.81v-1.58ZM38.56,126.74c.09,0,.17.04.29.15.75.72,1.53,1.92,2.03,3.09.33.79.64,1.86.64,2.17,0,.15-.08.23-.39.39-.34.18-1.05.42-1.23.42-.13,0-.19-.08-.24-.34-.2-1.16-.46-2-.93-2.97-.42-.87-.45-.92-1.47-2.17.63-.46,1.12-.73,1.3-.73Z"/>
        <path d="M45.61,134.75c0,.78.01,1.21.08,1.74h-1.61c.06-.54.09-.99.09-1.72v-3.85c0-.71,0-.93.03-1.71-.38.7-.54.96-.94,1.45-.18-.7-.39-1.27-.63-1.68,1.23-1.39,2.22-3.6,2.6-5.73l1.48.54c-.06.18-.19.58-.22.73-.21.78-.44,1.37-.87,2.36v7.88ZM51.46,127.5c-.03.2-.03.25-.08.57-.45,3.88-1.69,6.31-4.38,8.5-.38-.52-.63-.81-1.09-1.21,1.38-.97,2.26-1.98,2.97-3.34-.39-.46-.63-.71-1.41-1.44-.27.45-.49.76-.91,1.27-.27-.58-.51-.97-.86-1.41,1.18-1.36,1.83-2.89,2.12-5.02-.5,0-.66.01-1.02.06v-1.51c.39.06.74.08,1.37.08h2.08c.66,0,1.05-.01,1.41-.08v1.5c-.33-.03-.62-.04-1.12-.04h-1.3c-.11.75-.14.96-.26,1.5h.92c.53,0,.81-.01,1.07-.04l.51.63ZM48.57,128.27c-.12.38-.25.69-.42,1.05.76.71.9.84,1.35,1.31.27-.81.38-1.31.51-2.36h-1.44ZM55.87,134.88c0,1.21-.41,1.48-2.24,1.48-.39,0-.69,0-1.27-.01-.09-.63-.17-.95-.41-1.5.58.08,1.32.12,1.67.12.73,0,.83-.04.83-.38v-9.6c0-.66-.02-1-.08-1.49h1.58c-.06.39-.08.81-.08,1.49v9.88ZM51.97,133.05c.04-.36.06-.71.06-1.23v-6.27c0-.51-.02-.83-.06-1.21h1.54c-.04.34-.06.65-.06,1.21v6.27c0,.58.01.9.06,1.23h-1.54Z"/>
        <path d="M63.48,131.16c.34-.11.6-.15.85-.15,1.04,0,1.51.62,1.71,2.16.1.88.15,1.05.36,1.23.18.18.46.24.99.24.71,0,1.05-.06,2.28-.39.04-.02.08-.02.1-.02.09,0,.14.03.2.14.11.24.23,1.03.23,1.47,0,.13-.03.19-.17.22-.41.11-1.83.23-2.7.23-1.3,0-2-.24-2.4-.86-.25-.41-.38-.85-.46-1.79-.1-1.15-.29-1.44-.88-1.44-.54,0-.96.27-1.84,1.15s-1.59,1.76-2.08,2.54c-.09.15-.2.24-.29.24-.1,0-.21-.09-.67-.58-.45-.5-.62-.69-.62-.78,0-.1.03-.13.3-.38q.36-.3,5.94-6.24c-2.42.43-3.95.75-4.3.88-.17.06-.23.08-.3.08-.13,0-.17-.04-.25-.34-.15-.5-.22-.89-.29-1.49.32.01.42.01.53.01.66,0,2.5-.18,4.17-.42,1.26-.17,1.46-.21,1.79-.38.09-.04.18-.08.24-.08.38,0,1.23.98,1.23,1.41,0,.18-.06.25-.25.36-.23.09-.54.3-.81.52-.15.12-.6.54-.81.74l-1.77,1.7ZM61.69,123.66c.06-.18.1-.25.18-.24.08.02.12.02.15.03.61.21,1.18.34,1.83.46.93.18,1.06.2,2.67.27.18.01.2.06.2.42,0,.45-.06,1-.13,1.12-.04.09-.11.13-.18.13s-1.7-.18-1.94-.21c-1.08-.17-2.02-.39-2.86-.69-.14-.06-.18-.1-.18-.21,0-.13.11-.58.27-1.09Z"/>
        <path d="M74.8,127.92c-1.06.18-1.3.22-1.56.3-.15.04-.27.06-.36.06-.27,0-.4-.48-.46-1.65.87,0,1.35-.04,2.42-.24,0-.48.01-1.03.01-1.23,0-.58-.03-1.09-.09-1.47,1.58.07,2.04.18,2.04.46q0,.08-.13.39t-.2,1.62c.48.38.74.67.72.87,0,.04-.03.08-.09.13-.22.2-.25.22-.52.62q-.06.08-.15.19l-.06.09c0,.22,0,.25-.02.54.45-.51.87-.93,1.28-1.26,1.32-1.08,2.31-1.53,3.39-1.53s1.77.43,2.29,1.33c.45.78.69,1.88.69,3.17,0,.78-.06,1.38-.23,2.5.72.51,1.5,1.3,1.5,1.51,0,.24-.84,1.08-1.09,1.08-.11,0-.12-.02-.32-.32-.12-.17-.28-.36-.61-.72-.21.39-.33.55-.54.75-.56.51-1.3.78-2.19.78-1.56,0-2.56-.79-2.56-2,0-1.28,1.04-2.24,2.4-2.24.78,0,1.35.11,1.86.33.06-.55.08-.83.08-1.3,0-2.37-.45-3.3-1.59-3.3-.81,0-1.89.57-3.03,1.59-.41.38-.72.69-1.37,1.39v.87c0,2,.04,4,.11,4.53v.06c0,.27-.21.34-.93.34-.66,0-.79-.06-.79-.34v-.12c.03-.43.04-.96.04-1.62q0-.99.01-2.17s-.03.04-.06.08c-.33.41-.87,1.14-1.22,1.63-.17.24-.25.32-.36.32-.15,0-.42-.27-.88-.87-.18-.22-.29-.42-.29-.5s.08-.17.45-.5c.27-.25,1.29-1.5,1.81-2.19.27-.38.46-.65.58-.84v-1.16ZM80.55,133.07c-.69,0-1.11.29-1.11.75s.32.69.89.69c.5,0,.9-.15,1.17-.45.13-.13.34-.51.34-.57h0c-.51-.33-.81-.42-1.29-.42Z"/>
        <path d="M94.26,135.06c0,.66-.53,1.18-1.18,1.18s-1.19-.52-1.19-1.18.53-1.18,1.19-1.18,1.18.52,1.18,1.18ZM93.73,132.84h-1.33l-.41-8.98h2.16l-.42,8.98Z"/>
        <path d="M101.94,126.5c0-.44-.02-1.02-.04-1.35.69.07,1.2.18,1.6.33.36.14.48.23.48.39q0,.09-.06.24c-.2.51-.25,1.08-.25,2.44,0,1.92.12,3.12.42,4.04.22.71.57,1.11.97,1.11.62,0,1.12-.72,1.68-2.38.28.77.39.99.81,1.53.08.1.12.21.12.31,0,.24-.22.75-.53,1.19-.58.85-1.33,1.32-2.13,1.32-1.15,0-2.02-.93-2.56-2.77-.34-1.2-.51-2.71-.51-4.81v-1.58ZM110.86,126.74c.09,0,.17.04.29.15.75.72,1.53,1.92,2.03,3.09.33.79.64,1.86.64,2.17,0,.15-.08.23-.39.39-.34.18-1.05.42-1.23.42-.13,0-.19-.08-.24-.34-.2-1.16-.46-2-.93-2.97-.42-.87-.45-.92-1.47-2.17.63-.46,1.12-.73,1.3-.73Z"/>
        <path d="M121.89,128.91c.58-.24,1.37-.39,1.91-.39,2.29,0,3.79,1.32,3.79,3.32,0,1.37-.71,2.59-1.91,3.36-.97.6-2.77,1.07-4.2,1.07q-.45,0-.58-.41c-.12-.36-.36-.73-.66-1.04,2.05-.12,2.7-.22,3.64-.64,1.25-.53,1.89-1.35,1.89-2.37,0-1.14-.83-1.92-2.05-1.92-1.62,0-3.51.9-5.13,2.45-.22.22-.34.34-.85.96-.14.18-.24.24-.33.24-.27,0-1.23-1.08-1.23-1.39,0-.09.03-.13.25-.33,1.08-.95,3.78-3.81,5.7-6.06-1.49.18-2.76.41-3.33.6-.27.11-.34.12-.41.12-.13,0-.19-.08-.28-.34-.15-.41-.27-1-.33-1.59.19.03.34.04.58.04,1.46,0,4.56-.36,5.08-.6.18-.08.24-.09.33-.09.26,0,.54.23.96.75.27.32.38.5.38.6,0,.15-.09.25-.31.38-.2.12-.34.22-.55.4-.33.26-.45.38-1.5,1.4q-1.37,1.33-2.38,2.29c.81-.48,1.15-.66,1.53-.79Z"/>
        <path d="M136.93,124.31c.18.12.25.21.25.32s-.01.12-.24.38c-.08.09-.3.42-.54.83q-.75,1.25-1.16,1.96c-.42.71-.69,1.18-.84,1.41q-.04.07-.25.45c-.2.35-.32.53-.53.81.97-.86,1.5-1.08,2.49-1.08.66,0,1.25.29,1.62.78.31.42.4.81.54,2.28.07.88.15,1.28.25,1.5.1.21.31.33.58.33,1.03,0,2.26-1.25,2.86-2.88.15.63.27.93.58,1.49.11.18.14.3.14.45,0,.17-.08.38-.26.66-.78,1.26-2.05,2.01-3.42,2.01-.86,0-1.58-.3-1.95-.79-.3-.42-.44-.97-.56-2.44-.07-.96-.15-1.29-.36-1.53-.17-.18-.41-.27-.74-.27-.99,0-2.29,1.33-3.06,3.1-.22.51-.38.97-.54,1.54-.06.22-.13.32-.24.32-.31,0-1.04-.3-1.42-.58-.1-.09-.15-.15-.15-.24,0-.08.03-.15.22-.57.12-.27.17-.34.27-.62q1.11-2.59,4.19-8.82c.34-.69.51-1.12.61-1.58.78.29,1.14.47,1.62.79Z"/>
        <path d="M146.1,127.77c-.27.02-.43.03-.61.05-.14.01-.15.01-.17.01-.12,0-.18-.04-.23-.2-.08-.24-.18-1.04-.19-1.48.17.01.6.03,1.14.03.17,0,1.35-.07,1.88-.12.25-1.21.34-1.84.34-2.65,1.54.21,2.1.39,2.1.67,0,.11-.01.13-.24.48-.12.18-.17.34-.42,1.27.7-.12,1.12-.22,1.68-.41.1-.03.15-.04.22-.04.11,0,.13.08.23.51.07.38.12.69.12.85,0,.18-.04.21-.43.3-.51.12-1.38.27-2.31.39-.56,1.68-.93,2.58-1.62,3.99-.53,1.05-.83,1.61-1.23,2.24-.12.18-.19.24-.3.24-.15,0-.57-.22-1.09-.61-.24-.17-.3-.24-.3-.35s.06-.19.25-.46c.43-.54,1-1.47,1.5-2.46.42-.82.57-1.17,1-2.35-.58.04-.63.06-1.32.1ZM151.03,136.41c-1.64,0-2.75-.9-2.75-2.23s1.15-2.42,2.7-2.42c.36,0,.53.01,1.14.11-.06-.72-.06-1.01-.12-2.4,0-.29-.03-.67-.06-1.16.77.08,1.35.17,1.64.29.12.04.18.12.18.24,0,.08-.01.13-.03.24-.08.31-.09.54-.09.94,0,.56.04,1.5.09,2.24,1.07.48,1.5.72,2.25,1.3.33.25.45.39.45.51,0,.15-.08.29-.5.96-.18.3-.31.44-.42.44q-.09,0-.51-.39c-.33-.33-.71-.58-1.23-.9,0,1.39-1.02,2.23-2.74,2.23ZM151,133.2c-.72,0-1.21.34-1.21.87,0,.5.45.81,1.12.81.79,0,1.21-.41,1.21-1.2,0-.12,0-.24-.02-.24-.3-.15-.7-.24-1.11-.24ZM156.61,128.94c-.18.26-.27.33-.38.33-.08,0-.13-.03-.24-.13-.38-.36-.9-.75-1.46-1.09q-.36-.22-1.02-.53c-.21-.09-.29-.15-.29-.27,0-.11.08-.24.3-.58.36-.53.45-.62.58-.62.28,0,1.39.57,2.19,1.11.65.43.84.61.84.78,0,.12-.24.57-.54,1Z"/>
        <path d="M160.66,131.64c-.66,0-1.28.03-1.8.09v-1.57c.5.06,1.06.09,1.78.09h1.19v-1.63h-.32c-.61,0-1.12.03-1.71.07v-1.48c.47.06.99.09,1.68.09h7.98c.66,0,1.18-.03,1.68-.09v1.48c-.54-.04-1.11-.07-1.68-.07h-.9l.02,1.63h1.54c.69,0,1.24-.03,1.77-.09v1.57c-.54-.06-1.12-.09-1.75-.09h-1.54v3.25c.03,1.29-.42,1.59-2.33,1.59-.33,0-.76-.01-1.41-.06-.07-.65-.18-1.04-.4-1.59.83.12,1.36.17,2.14.17.36,0,.5-.11.48-.44l-.02-2.75c-1.38,1.77-3.81,3.32-7.02,4.46-.34-.66-.51-.9-1.02-1.41,1.44-.36,2.62-.81,3.78-1.44,1.07-.57,1.94-1.2,2.46-1.79h-4.6ZM162.25,124.26c0-.3-.03-.6-.08-.85h1.68c-.04.25-.07.54-.07.85v.24h2.98v-.24c0-.3-.01-.57-.06-.85h1.67c-.05.29-.06.52-.06.85v.24h1.86c.76,0,1.23-.03,1.67-.09v1.56c-.44-.06-.9-.07-1.67-.07h-1.86v.13c0,.3.01.52.04.76h-1.63c.04-.24.04-.45.04-.79v-.1h-2.98v.1c0,.36.01.54.04.79h-1.63c.04-.24.06-.48.06-.76v-.13h-1.67c-.76,0-1.23.01-1.67.07v-1.56c.45.06.92.09,1.67.09h1.67v-.24ZM163.33,130.25h3.71l-.02-1.63h-3.69v1.63Z"/>
        <path d="M179.68,131.94c-1.48.87-1.91,1.31-1.91,1.96,0,.27.11.45.33.58.33.2,1.07.3,2.01.3.81,0,1.93-.08,2.7-.18.32-.04.5-.09,1.09-.24h.08c.11,0,.18.07.23.18.09.31.15.76.15,1.3,0,.23-.08.32-.27.36-.36.08-2.03.17-3.12.17-1.83,0-2.8-.12-3.52-.42-.87-.36-1.31-1.04-1.31-1.98,0-.87.41-1.63,1.21-2.28.65-.51.79-.62,2.18-1.4-.12-.5-.35-.71-.81-.71-.62,0-1.26.24-1.96.71-.43.3-.95.72-1.26,1.04-.45.46-.5.5-.62.5-.15,0-.46-.34-.78-.87-.15-.25-.24-.45-.24-.55,0-.14.03-.17.39-.39,1.23-.82,2.25-1.88,2.87-2.95-1.07.07-1.62.09-2.21.09-.23,0-.27-.04-.34-.3-.05-.2-.12-.99-.14-1.4.51.08.81.09,1.53.09.58,0,1.23-.01,1.91-.04.31-.85.42-1.39.43-2.1,1.33.22,1.95.45,1.95.71,0,.06-.02.09-.06.18-.1.2-.22.43-.42.9q-.03.06-.04.1c.86-.12,1.61-.27,2.13-.39.33-.09.41-.11.48-.11.12,0,.18.04.21.14.06.27.15.96.15,1.17,0,.17-.06.24-.25.28-.48.14-2.13.39-3.51.53-.45.83-.76,1.3-1.23,1.81.67-.31,1.18-.43,1.78-.43.68,0,1.12.39,1.43,1.23,1.48-.81,2.28-1.24,2.37-1.3.69-.4.98-.63,1.31-1,.61.63,1.27,1.58,1.27,1.83,0,.09-.06.15-.25.2-.74.19-2.1.78-4.38,1.89.01.27.04.96.04,1.44v.72c0,.18-.03.27-.1.31-.08.08-.48.12-.93.12-.51,0-.6-.04-.6-.29v-.06c.03-.44.04-1,.04-1.37v-.08Z"/>
        <path d="M193.33,124.16c0-.39-.02-.55-.08-.93h1.75c-.06.28-.09.58-.09.93v.18h4.26c.75,0,1.14-.01,1.63-.09v1.51c-.53-.06-.92-.08-1.53-.08h-1.92c1.12.68,2.31,1.5,3.29,2.28l-1.11,1.07c-.6-.56-.81-.75-1.33-1.17-2.59.22-5.02.34-8.17.4-.15.02-.36.02-.62.03h-.46c-.12.01-.33.03-.51.04l-.18-1.44h.18q.39.04,1.56.04h.76c.35-.44.6-.79.84-1.26h-2.26c-.67,0-1.05.02-1.56.08v-1.51c.48.08.9.09,1.67.09h3.88v-.18ZM191.1,134.93c0,.67.02,1.18.08,1.63h-1.71c.06-.51.09-1,.09-1.81v-4.47c0-.69-.01-1.08-.06-1.45.31.03.82.04,1.62.04h6.4q1.09-.02,1.2-.02s.09-.01.19-.01c.03-.01.09-.01.17-.01-.04.4-.06.84-.06,1.53v4.58c0,.64-.13,1-.45,1.25-.27.19-.63.27-1.44.27-.32,0-.56-.01-1.54-.06-.08-.45-.15-.74-.38-1.37.73.11,1.26.13,1.75.13.42,0,.54-.09.54-.39v-.58h-6.41v.75ZM197.5,130.19h-6.41v.74h6.41v-.74ZM191.1,132.92h6.41v-.74h-6.41v.74ZM193.3,125.69c-.2.33-.55.84-.87,1.25,1.17-.01,3.18-.1,4.26-.18-.42-.29-.52-.34-1.02-.64l.78-.42h-3.15Z"/>
        <path d="M204.79,127.44c-.39.09-.53.13-1.07.33-.19.08-.3.11-.39.11-.33,0-.63-.62-.9-1.91.96-.04,1.31-.09,2.97-.34,1.8-.27,4.08-.62,5.28-.76,1.35-.18,2.43-.36,3-.48.1-.03.15-.03.22-.03.2,0,.27.09.41.46.12.31.21.76.21.97,0,.18-.06.24-.27.24-.32,0-.6.03-.89.08-2.53.42-4.56,2.64-4.56,4.98,0,1.75,1.38,2.91,3.72,3.12.21.01.29.09.29.27,0,.38-.15,1.09-.29,1.42-.08.17-.19.24-.39.24s-.65-.09-1.11-.22c-2.55-.75-3.88-2.37-3.88-4.67,0-1.25.41-2.4,1.19-3.39.42-.54.78-.84,1.63-1.43-1.96.33-4.04.72-5.17,1.01Z"/>
        <path d="M218.4,127.77c-.27.02-.43.03-.61.05-.14.01-.15.01-.17.01-.12,0-.18-.04-.23-.2-.08-.24-.18-1.04-.19-1.48.17.01.6.03,1.14.03.17,0,1.35-.07,1.88-.12.25-1.21.34-1.84.34-2.65,1.54.21,2.1.39,2.1.67,0,.11-.01.13-.24.48-.12.18-.17.34-.42,1.27.7-.12,1.12-.22,1.68-.41.1-.03.15-.04.22-.04.11,0,.13.08.23.51.07.38.12.69.12.85,0,.18-.04.21-.43.3-.51.12-1.38.27-2.31.39-.56,1.68-.93,2.58-1.62,3.99-.53,1.05-.83,1.61-1.23,2.24-.12.18-.19.24-.3.24-.15,0-.57-.22-1.09-.61-.24-.17-.3-.24-.3-.35s.06-.19.25-.46c.43-.54,1-1.47,1.5-2.46.42-.82.57-1.17,1-2.35-.58.04-.63.06-1.32.1ZM223.33,136.41c-1.64,0-2.75-.9-2.75-2.23s1.15-2.42,2.7-2.42c.36,0,.53.01,1.14.11-.06-.72-.06-1.01-.12-2.4,0-.29-.03-.67-.06-1.16.77.08,1.35.17,1.64.29.12.04.18.12.18.24,0,.08-.01.13-.03.24-.08.31-.09.54-.09.94,0,.56.04,1.5.09,2.24,1.07.48,1.5.72,2.25,1.3.33.25.45.39.45.51,0,.15-.08.29-.5.96-.18.3-.31.44-.42.44q-.09,0-.51-.39c-.33-.33-.71-.58-1.23-.9,0,1.39-1.02,2.23-2.74,2.23ZM223.3,133.2c-.72,0-1.21.34-1.21.87,0,.5.45.81,1.12.81.79,0,1.21-.41,1.21-1.2,0-.12,0-.24-.02-.24-.3-.15-.7-.24-1.11-.24ZM228.91,128.94c-.18.26-.27.33-.38.33-.08,0-.13-.03-.24-.13-.38-.36-.9-.75-1.46-1.09q-.36-.22-1.02-.53c-.21-.09-.29-.15-.29-.27,0-.11.08-.24.3-.58.36-.53.45-.62.58-.62.28,0,1.39.57,2.19,1.11.65.43.84.61.84.78,0,.12-.24.57-.54,1Z"/>
        <path d="M232.51,129.23c-.12.03-.18.06-.27.11-.08.04-.12.06-.18.06-.33,0-.57-.57-.75-1.68h.29c.63,0,2.24-.2,3.2-.39.31-1.31.48-2.31.48-3.02,0-.06,0-.15-.01-.25.64.06,1.26.2,1.68.38.24.09.36.21.36.36,0,.08-.02.13-.09.25q-.23.39-.69,2.04c.36-.04.76-.08,1.02-.08.62,0,1.1.12,1.44.36.6.43.9,1.32.9,2.68,0,2.24-.41,4.16-1.1,5.1-.48.66-1.11.98-2,.98-.54,0-1.05-.08-1.2-.17q-.12-.08-.17-.63c-.04-.41-.13-.77-.32-1.19.78.27.98.32,1.46.32.72,0,1.02-.35,1.35-1.56.23-.79.35-1.81.35-2.92,0-1.17-.29-1.59-1.08-1.59-.27,0-.71.04-1.05.09-.04.18-.06.2-.12.39-.42,1.54-1.19,3.55-1.95,5.17-.79,1.63-.99,1.96-1.18,1.96-.12,0-.53-.21-.96-.5-.35-.21-.44-.3-.44-.42q0-.08.62-1.05c.83-1.28,1.91-3.77,2.28-5.25-1.11.25-1.73.39-1.86.43ZM241.93,126.15c-.24.18-.41.25-.48.25-.04,0-.09-.03-.13-.11-.32-.51-.84-1.09-1.28-1.47-.03-.03-.04-.06-.04-.09,0-.06.11-.17.36-.36.25-.18.33-.22.43-.22.24,0,1.56,1.33,1.56,1.58,0,.09-.12.19-.42.42ZM240.34,127.74c0-.11.13-.24.57-.58.3-.23.45-.32.57-.32.2,0,.87.72,1.5,1.61.52.75,1.09,1.81,1.09,2.07,0,.15-.04.2-.52.58-.3.24-.65.44-.77.44-.1,0-.15-.04-.25-.3-.29-.72-.54-1.21-.95-1.86-.4-.65-.43-.67-1.15-1.46-.06-.08-.09-.12-.09-.18ZM242.31,123.14c.25,0,1.53,1.28,1.53,1.53,0,.08-.09.17-.39.38-.27.21-.41.29-.46.29q-.08,0-.38-.42c-.25-.34-.74-.86-1-1.08-.04-.04-.08-.08-.08-.12,0-.12.62-.57.78-.57Z"/>
        <path d="M22.63,154.44c2.05,0,3.39,1.21,3.39,3.06s-1.12,3.02-3.37,3.74c-.81.25-2.15.5-2.75.5-.32,0-.39-.08-.6-.51-.16-.35-.34-.56-.79-.87,3.77-.3,5.62-1.26,5.62-2.9,0-.92-.64-1.46-1.72-1.46-1.37,0-2.78.71-3.93,1.95-.21.21-.41.46-.54.69-.13.22-.23.3-.36.3-.22,0-.75-.22-1.11-.5-.18-.13-.24-.24-.24-.48q0-.12.04-.48s0-.15.01-.31c.08-.96.12-1.37.3-2.72q.03-.16.14-.87s.04-.33.12-.89c.01-.13.03-.25.03-.49.72.1,1.4.27,1.68.43.12.06.18.13.17.22,0,.06-.03.11-.07.2-.17.25-.21.39-.35.96-.13.57-.34,1.89-.38,2.38,1.53-1.41,2.87-1.96,4.71-1.96ZM22.36,150.17c.58.34.76.51.76.67,0,.13-.24.58-.5.96-.24.34-.33.42-.45.42-.07,0-.12-.03-.3-.17-1-.76-1.8-1.2-2.92-1.59-.22-.09-.27-.12-.27-.24,0-.15.12-.41.39-.79.24-.36.34-.45.51-.45.36,0,1.83.63,2.78,1.19Z"/>
        <path d="M29.02,158.28c.27-.24.34-.3.45-.3.19,0,1.09.66,1.75,1.29.75.69,1.59,1.69,1.59,1.9,0,.14-.03.17-.46.56-.57.52-.69.62-.79.62-.09,0-.18-.06-.25-.21-.53-.93-1.73-2.16-2.79-2.85-.12-.09-.18-.15-.18-.24,0-.1.03-.15.69-.76Z"/>
        <path d="M50.5,153.83c.34,1.29,1.11,2.69,2.07,3.77,1.06,1.23,2.26,2.04,3.97,2.74-.5.57-.69.89-1.05,1.65-2.85-1.46-4.65-3.38-5.73-6.12-.43,1.47-1.2,2.73-2.35,3.86-.97.97-2.01,1.65-3.43,2.28-.24-.55-.54-1-1-1.51,1.75-.71,3-1.56,3.93-2.68.9-1.1,1.38-2.25,1.63-3.98h-3.39c-.92,0-1.33.02-1.82.09v-1.8c.45.06.98.09,1.82.09h3.54c.03-.66.04-1.01.04-1.58,0-.72-.03-1.16-.11-1.58h1.91c-.08.51-.09.71-.11,1.7,0,.61-.01.94-.03,1.46h3.81c.81,0,1.33-.03,1.81-.09v1.8c-.55-.06-1-.09-1.8-.09h-3.72Z"/>
        <path d="M63.34,152.37c-1.29.22-2.62.38-3.43.38-.24,0-.34-.05-.38-.18-.06-.22-.12-.67-.15-1.23,1.22,0,2.15-.08,3.48-.29q-.08-.22-.27-.78c-.13-.36-.25-.66-.42-.97.65-.13,1.23-.21,1.77-.21.13,0,.21.09.21.24v.21c0,.27.06.63.21,1.21,1.12-.25,2.08-.57,2.85-.9.12-.04.15-.06.2-.06.07,0,.12.08.25.39.13.34.27.74.27.81s-.03.11-.12.15c-.88.38-1.29.51-3.03.95.21.52.27.66.52,1.2.83-.22,1.23-.36,1.53-.51l1.41-.71s.04-.03.04-.03c.01,0,.04.01.06.01.06,0,.12.09.25.38.18.36.33.76.33.85q0,.11-.31.27c-.83.45-1.47.71-2.55,1,.6.88,1.46,1.84,1.96,2.21.51.36.52.39.52.54,0,.13-.15.45-.43.94-.25.44-.38.56-.54.56-.09,0-.11,0-.33-.17-.76-.58-2.31-.99-3.79-.99-1.29,0-2.1.45-2.1,1.2,0,.46.36.84,1,1.08.58.21,1.88.34,3.27.34.33,0,.62-.01,1.2-.04-.27.39-.41.66-.58,1.29-.09.31-.2.38-.66.38-1.6,0-3.03-.18-3.99-.53-1.28-.45-1.95-1.29-1.95-2.42,0-1.6,1.32-2.58,3.51-2.58,1.35,0,2.21.15,3.15.57-.84-.79-1.29-1.33-1.72-2.04-.72.15-1.08.21-1.56.29-.86.12-2.42.24-3.04.24-.48,0-.5-.02-.63-1.42.33.01.58.01.73.01.96,0,2.79-.2,3.79-.41-.18-.38-.38-.81-.54-1.24Z"/>
        <path d="M81.28,150.32c0,.14-.06.18-.32.33-.1.06-.24.18-.38.34-.93,1.08-2.26,2.54-3.45,3.74-.25.25-.36.45-.36.63,0,.17.12.34.41.6.88.81,2.32,2.28,3.39,3.5.75.84.94,1.11.94,1.26,0,.17-.25.42-.87.9-.29.22-.47.33-.56.33-.13,0-.19-.06-.34-.3-.64-1.02-2.22-2.92-3.42-4.14-.67-.67-.81-.82-1.02-1.12-.25-.36-.36-.66-.36-1,0-.3.09-.61.27-.92q.17-.27,1.08-1.24c.87-.9,1.8-2.04,2.38-2.88.39-.56.59-.92.78-1.42,1.17.64,1.82,1.14,1.82,1.41Z"/>
        <path d="M92.11,149.67c0-.39-.02-.55-.08-.93h1.75c-.06.28-.09.58-.09.93v.18h4.26c.75,0,1.14-.01,1.63-.09v1.51c-.53-.06-.92-.08-1.53-.08h-1.92c1.12.68,2.31,1.5,3.29,2.28l-1.11,1.07c-.6-.56-.81-.75-1.33-1.17-2.59.22-5.02.34-8.17.4-.15.02-.36.02-.62.03h-.46c-.12.01-.33.03-.51.04l-.18-1.44h.18q.39.04,1.56.04h.76c.34-.44.6-.79.84-1.26h-2.26c-.67,0-1.05.02-1.56.08v-1.51c.48.08.9.09,1.67.09h3.88v-.18ZM89.88,160.44c0,.67.01,1.18.08,1.63h-1.71c.06-.51.09-1,.09-1.81v-4.47c0-.69-.01-1.08-.06-1.45.31.03.82.04,1.62.04h6.41q1.09-.02,1.2-.02s.09-.01.19-.01c.03-.01.09-.01.17-.01-.04.4-.06.84-.06,1.53v4.58c0,.64-.13,1-.45,1.25-.27.19-.63.27-1.44.27-.32,0-.56-.01-1.54-.06-.08-.45-.15-.74-.38-1.37.73.11,1.26.13,1.75.13.42,0,.54-.09.54-.39v-.58h-6.41v.75ZM96.28,155.7h-6.41v.74h6.41v-.74ZM89.88,158.43h6.41v-.74h-6.41v.74ZM92.08,151.2c-.2.33-.55.84-.87,1.25,1.17-.01,3.18-.1,4.26-.18-.42-.29-.52-.34-1.02-.64l.78-.42h-3.15Z"/>
        <path d="M103.95,152.13c2.49-.71,3.78-.93,5.19-.93,1.51,0,2.7.41,3.5,1.19.66.67,1.02,1.6,1.02,2.7,0,1.92-1.03,3.54-2.83,4.47-.96.48-1.93.81-3.27,1.06-.58.12-.88.17-1.11.17-.18,0-.27-.06-.36-.22-.34-.69-.48-.9-.93-1.37,2.23-.27,3.45-.57,4.62-1.16,1.28-.63,1.98-1.67,1.98-2.92,0-1.41-.96-2.32-2.43-2.32-1.78,0-3.76.51-6.04,1.56-.41.18-.62.29-.77.38-.27.15-.34.18-.43.18-.29,0-.79-.92-1.14-2.07.69-.09,1.38-.25,3.01-.71Z"/>
        <path d="M121.24,158.46c-.72,1.25-1.71,1.94-2.73,1.94-1.56,0-2.67-1.53-2.67-3.66,0-2.37,1.2-4.41,3.25-5.49,1-.54,2.08-.78,3.51-.78,3.14,0,5.46,2.22,5.46,5.19,0,2.62-1.29,4.51-3.78,5.58-.5.21-.89.33-1.08.33-.18,0-.25-.06-.45-.34-.25-.39-.54-.68-.95-.95,3.09-.79,4.49-2.25,4.49-4.68,0-1.25-.53-2.29-1.46-2.96-.53-.36-.95-.51-1.77-.64-.42,3.16-.92,4.89-1.83,6.46ZM119.08,153.15c-1,.88-1.58,2.15-1.58,3.55,0,1.16.38,1.83,1,1.83.75,0,1.52-1.04,2.08-2.82.36-1.12.54-1.98.77-3.65-1.07.23-1.59.48-2.28,1.08Z"/>
        <path d="M136.3,157.46c-1.48.87-1.91,1.31-1.91,1.96,0,.27.11.45.33.58.33.2,1.07.3,2.01.3.81,0,1.93-.08,2.7-.18.32-.04.5-.09,1.09-.24h.08c.11,0,.18.07.23.18.09.31.15.76.15,1.3,0,.23-.08.32-.27.36-.36.08-2.03.17-3.12.17-1.83,0-2.8-.12-3.52-.42-.87-.36-1.31-1.04-1.31-1.98,0-.87.41-1.63,1.21-2.28.65-.51.79-.62,2.17-1.4-.12-.5-.34-.71-.81-.71-.62,0-1.26.24-1.96.71-.43.3-.95.72-1.26,1.04-.45.46-.5.5-.62.5-.15,0-.46-.34-.78-.87-.15-.25-.24-.45-.24-.55,0-.14.03-.17.39-.39,1.23-.82,2.25-1.88,2.87-2.95-1.07.07-1.62.09-2.21.09-.23,0-.27-.04-.34-.3-.05-.2-.12-.99-.14-1.4.51.08.81.09,1.53.09.58,0,1.23-.01,1.91-.04.31-.85.42-1.39.43-2.1,1.33.22,1.95.45,1.95.71,0,.06-.02.09-.06.18-.1.2-.22.43-.42.9q-.03.06-.04.1c.86-.12,1.61-.27,2.13-.39.33-.09.41-.11.48-.11.12,0,.18.04.21.14.06.27.15.96.15,1.17,0,.17-.06.24-.25.28-.48.14-2.13.39-3.51.53-.45.83-.76,1.3-1.23,1.81.67-.31,1.18-.43,1.78-.43.68,0,1.12.39,1.43,1.23,1.48-.81,2.28-1.24,2.37-1.3.69-.4.98-.63,1.31-1,.61.63,1.27,1.58,1.27,1.83,0,.09-.06.15-.25.2-.74.19-2.1.78-4.38,1.89.01.27.04.96.04,1.44v.72c0,.18-.03.27-.1.31-.08.08-.48.12-.93.12-.51,0-.6-.04-.6-.29v-.06c.03-.44.04-1,.04-1.37v-.08Z"/>
        <path d="M145.81,157.65q0-.46.03-1.56c-.39.5-.46.57-1.08,1.06-.22-.71-.39-1.05-.69-1.54.99-.71,1.62-1.33,2.42-2.4.36-.45.63-.92.79-1.31l1.29.89c-.11.12-.23.31-.41.58-.27.42-.46.7-.86,1.18v5.85c0,.78.02,1.29.08,1.68h-1.67c.06-.42.09-.93.09-1.71v-2.73ZM148.5,149.57q-.12.15-.39.46c-1,1.2-1.89,1.97-3.1,2.73-.22-.57-.46-.96-.79-1.37,1.44-.83,2.5-1.8,3.03-2.76l1.26.93ZM150.22,151.67c-.69,0-.99.01-1.44.06v-1.53c.43.06.81.09,1.48.09h1.62v-.41c0-.41-.01-.71-.08-1.11h1.71c-.06.36-.08.67-.08,1.12v.39h1.86c.66,0,1.04-.02,1.47-.09v1.53c-.43-.04-.75-.06-1.46-.06h-1.88v1.44h2.42c.65,0,1.1-.03,1.53-.08v1.53c-.38-.06-.79-.08-1.51-.08h-.33v1.26h.34c.66,0,1.07-.01,1.5-.07v1.56c-.39-.04-.86-.08-1.47-.08h-.38v3.34c0,.65-.11.93-.45,1.17-.32.23-.76.3-1.68.3-.35,0-.66-.02-1.35-.06-.07-.64-.18-1.05-.39-1.58.75.12,1.25.17,1.74.17s.61-.07.61-.36v-2.99h-4.33c-.63,0-1.04.02-1.49.08v-1.56c.41.06.79.07,1.41.07h4.41v-1.26h-4.12c-.68,0-.98.02-1.41.08v-1.53c.43.06.75.08,1.41.08h1.98v-1.44h-1.67ZM151.09,160.53c-.76-1.23-1.08-1.62-1.93-2.46l1.18-.85c.83.79,1.17,1.2,2.01,2.34l-1.26.97Z"/>
        <path d="M161.79,152.13c2.49-.71,3.78-.93,5.19-.93,1.51,0,2.7.41,3.5,1.19.66.67,1.02,1.6,1.02,2.7,0,1.92-1.03,3.54-2.83,4.47-.96.48-1.93.81-3.27,1.06-.58.12-.88.17-1.11.17-.18,0-.27-.06-.36-.22-.34-.69-.48-.9-.93-1.37,2.23-.27,3.45-.57,4.62-1.16,1.28-.63,1.98-1.67,1.98-2.92,0-1.41-.96-2.32-2.43-2.32-1.78,0-3.76.51-6.04,1.56-.41.18-.62.29-.77.38-.27.15-.34.18-.43.18-.29,0-.79-.92-1.14-2.07.69-.09,1.38-.25,3.01-.71Z"/>
        <path d="M178.02,159.78c0,1.41-1.14,2.55-2.54,2.55s-2.53-1.14-2.53-2.55,1.14-2.54,2.53-2.54,2.54,1.14,2.54,2.54ZM174.12,159.78c0,.76.61,1.38,1.36,1.38s1.37-.62,1.37-1.38-.62-1.37-1.37-1.37-1.36.62-1.36,1.37Z"/>
        <path d="M199.42,155.15c-.69,0-1.79.22-2.54.51-1.59.62-2.64,1.74-2.64,2.83,0,.69.45,1.16,1.35,1.38.41.11,1.11.18,1.6.17h.15c.25,0,.34.09.34.29,0,.5-.09,1.18-.17,1.38-.06.12-.13.17-.29.17-.91,0-2.07-.24-2.85-.6-1.15-.51-1.79-1.4-1.79-2.5,0-.71.27-1.43.78-2.07.29-.34.51-.55,1.05-.93-2.73.83-4.09,1.35-5.01,1.95-.12.08-.19.11-.27.11-.17,0-.3-.13-.51-.51-.21-.35-.36-.77-.36-.99,0-.13.06-.18.42-.29.34-.1.58-.25,1.16-.66.69-.51,1.77-1.44,2.7-2.32.77-.74,1.2-1.19,2.1-2.24-.87.11-3.23.51-3.57.6-.21.06-.22.06-.27.06-.14,0-.2-.06-.25-.21-.12-.33-.23-.88-.3-1.51.21.01.32.01.45.01.67,0,2.13-.12,3.93-.34.67-.08,1.07-.17,1.33-.3.18-.09.21-.11.32-.11.18,0,.42.2.84.71.3.34.39.51.39.67s-.06.24-.25.38q-.27.17-1.53,1.33c-1.04.96-2.27,2.01-3.65,3.1,2.12-.63,3.22-.93,5.52-1.44.51-.11,1.01-.24,1.58-.42.08-.03.13-.04.18-.04.12,0,.18.06.25.19.17.35.36,1.08.36,1.35,0,.21-.06.3-.22.3h-.34Z"/>
        <path d="M205.11,153.38c-.67.13-1.32.3-1.74.45-.11.04-.2.06-.27.06-.13,0-.21-.08-.3-.33-.11-.33-.21-.86-.27-1.38.22.01.33.03.46.03.57,0,1.18-.08,2.13-.26l.03-.9c.02-.21.02-.36.02-.41,0-.64-.02-1.04-.08-1.44.79.03,1.29.09,1.77.21.2.04.29.13.29.27,0,.06-.01.11-.09.27-.13.28-.15.46-.25,1.71.33.22.62.54.62.69,0,.09-.04.17-.18.33-.22.24-.3.34-.58.76q-.03.39-.03.5c.5-.43.82-.72,1.33-1.09.57-.43,1.2-.84,1.65-1.06.58-.32.99-.42,1.53-.42.79,0,1.37.3,1.68.87.18.36.25.71.25,1.29,0,.51-.03.99-.12,2.08-.12,1.29-.18,2.25-.18,2.83s.13.76.55.76c.6,0,1.33-.43,1.98-1.17.01.58.06.77.25,1.37.04.12.06.2.06.25,0,.17-.08.3-.33.5-.61.5-1.5.81-2.29.81-1.32,0-1.92-.69-1.92-2.2,0-.69.04-1.58.2-3.67.04-.5.06-.92.06-1.12,0-.62-.21-.9-.66-.9s-1.33.48-2.52,1.39c-.6.45-.94.77-1.57,1.41v.69c0,1.12.07,3.72.13,4.63v.18c0,.12-.02.17-.04.21-.08.09-.51.15-1.2.15-.43,0-.53-.06-.53-.32,0-.09,0-.24.02-.4v-.35q.01-.52.08-3.38-.86,1.11-1.37,1.94c-.13.21-.23.29-.34.29s-.39-.24-.86-.75c-.29-.33-.39-.47-.39-.56,0-.07.03-.13.13-.24.95-.98,1.74-1.91,2.87-3.32l.03-1.27Z"/>
        <path d="M218.05,154.74c-.12.03-.18.06-.27.11-.08.04-.12.06-.18.06-.33,0-.57-.57-.75-1.68h.29c.63,0,2.24-.2,3.2-.39.31-1.31.48-2.31.48-3.02,0-.06,0-.15-.01-.25.64.06,1.26.2,1.68.38.24.09.36.21.36.36,0,.08-.02.13-.09.25q-.23.39-.69,2.04c.36-.04.76-.08,1.02-.08.62,0,1.1.12,1.44.36.6.43.9,1.32.9,2.68,0,2.24-.41,4.16-1.1,5.1-.48.66-1.11.98-2,.98-.54,0-1.05-.08-1.2-.17q-.12-.08-.17-.63c-.04-.41-.13-.77-.32-1.19.78.27.98.32,1.46.32.72,0,1.02-.35,1.35-1.56.23-.79.35-1.81.35-2.92,0-1.17-.29-1.59-1.08-1.59-.27,0-.71.04-1.05.09-.04.18-.06.2-.12.39-.42,1.54-1.19,3.55-1.95,5.17-.79,1.63-.99,1.96-1.18,1.96-.12,0-.53-.21-.96-.5-.35-.21-.44-.3-.44-.42q0-.08.62-1.05c.83-1.28,1.91-3.77,2.28-5.25-1.11.25-1.73.39-1.86.43ZM227.47,151.67c-.24.18-.41.25-.48.25-.04,0-.09-.03-.13-.11-.32-.51-.84-1.09-1.28-1.47-.03-.03-.04-.06-.04-.09,0-.06.11-.17.36-.36.25-.18.33-.22.43-.22.24,0,1.56,1.33,1.56,1.58,0,.09-.12.19-.42.42ZM225.88,153.26c0-.11.13-.24.57-.58.3-.23.45-.32.57-.32.2,0,.87.72,1.5,1.61.52.75,1.09,1.81,1.09,2.07,0,.15-.04.2-.52.58-.3.24-.65.44-.77.44-.1,0-.15-.04-.25-.3-.29-.72-.54-1.21-.95-1.86-.4-.65-.43-.67-1.15-1.46-.06-.08-.09-.12-.09-.18ZM227.85,148.65c.25,0,1.53,1.28,1.53,1.53,0,.08-.09.17-.39.38-.27.21-.41.29-.46.29q-.08,0-.38-.42c-.25-.34-.74-.86-1-1.08-.04-.04-.08-.08-.08-.12,0-.12.62-.57.78-.57Z"/>
        <path d="M234.92,155.22c-.48,0-.84.01-1.22.08v-1.04c-.67.71-1.05,1.04-1.8,1.6-.24-.48-.6-.93-1.11-1.41,1.79-1.24,2.88-2.43,3.79-4.14.34-.63.5-1.02.57-1.46l1.73.63c-.15.22-.23.36-.39.73-.52,1.12-1.38,2.43-2.31,3.5.38.03.45.03.75.03h5.28c.36,0,.56,0,.9-.02-1-1.12-1.74-2.26-2.37-3.61-.06-.15-.19-.41-.3-.6l1.59-.63c.12.39.25.71.57,1.26.96,1.74,2.17,3.03,3.97,4.17-.58.69-.71.87-1.09,1.56-.79-.6-1.17-.92-1.77-1.52-.01.2-.01.24-.01.5,0,2.99-.22,5.26-.6,6.01-.32.63-.84.84-2.07.84-.3,0-.58-.01-1.53-.06-.07-.63-.17-.99-.42-1.68.66.1,1.32.18,1.73.18.54,0,.71-.06.82-.27.23-.42.45-2.34.45-3.84v-.83h-2.76c-.12,1.53-.43,2.55-1.12,3.67-.79,1.33-1.96,2.33-3.66,3.18-.27-.53-.49-.84-1.05-1.41.88-.33,1.49-.69,2.22-1.32,1.01-.87,1.65-2,1.89-3.29.04-.25.08-.41.1-.84h-.78Z"/>
        <path d="M27.55,178.12c-.29-.04-.5-.06-.97-.08-.17,2.39-.62,4.11-1.5,5.73.76.94,1.62,1.68,2.65,2.22-.39.57-.55.9-.82,1.65-1.05-.66-1.77-1.3-2.7-2.46-.75,1.06-1.54,1.8-2.66,2.47-.27-.58-.43-.84-.94-1.46,1.2-.64,1.96-1.32,2.68-2.38-.58-1.05-.93-2-1.17-3.21-.21.34-.36.55-.67.97-.25-.69-.48-1.09-.86-1.57.21-.23.27-.3.47-.62-.29-.03-.63-.04-1.16-.04h-4.5c-.54,0-.87.01-1.26.08v-1.46c.39.06.69.07,1.26.07h.32v-1.21h-.18c-.5,0-.84.02-1.14.06v-1.42c.38.04.54.06,1.14.06h.18v-.17c0-.5-.02-.73-.08-1.06h1.56c-.04.24-.06.48-.06,1.06v.17h1.35v-.18c0-.53-.01-.83-.06-1.05h1.54c-.06.28-.08.54-.08,1.05v.18c.63,0,.78-.01,1.12-.06v1.42c-.3-.04-.57-.06-1.12-.06v1.21q.85-.01,1.26-.06v1.25c.57-.97.92-1.84,1.26-3.2.21-.84.3-1.39.3-1.88l1.65.3c-.04.12-.06.19-.29,1.17-.09.33-.15.54-.29,1h2.33c.64,0,1-.02,1.42-.08v1.56ZM16.39,185.94c0,.72.03,1.27.08,1.68h-1.65c.06-.42.09-.93.09-1.67v-4.62c0-.58-.01-1.04-.04-1.35.36.04.81.06,1.33.06h3c.57,0,.99-.01,1.32-.06-.03.33-.05.85-.05,1.56v4.68c0,.99-.37,1.28-1.71,1.28-.27,0-.48,0-.83-.01-.09-.65-.13-.8-.33-1.31.3.03.67.06.9.06.39,0,.5-.06.5-.25v-.87h-2.61v.83ZM19,181.96v-.66h-2.61v.66h2.61ZM19,183.88v-.69h-2.61v.69h2.61ZM17.14,178.05h1.35v-1.21h-1.35v1.21ZM23.35,178.05c-.11.27-.14.35-.27.69.08.62.15.99.36,1.75.24.87.39,1.29.69,1.86.41-.83.6-1.53.79-2.76.11-.64.13-.96.15-1.54h-1.72Z"/>
        <path d="M30.46,175.8c0-.69-.01-1.01-.09-1.47h1.73c-.08.45-.09.79-.09,1.46v1.19h.79c.32,0,.5-.02.72-.04v1.48c-.25-.03-.48-.04-.75-.04h-.77v2.19c.44-.15.65-.22,1.26-.46v1.41q-.84.33-1.26.48v4.18c0,.63-.22,1.05-.64,1.18-.3.11-.86.17-1.39.17-.26,0-.45-.01-.87-.04-.06-.63-.12-.92-.35-1.5.54.08.93.11,1.28.11s.43-.08.43-.44v-3.13q-1.32.42-1.59.54l-.31-1.6c.62-.08.71-.09,1.9-.42v-2.66h-.73c-.36,0-.62.01-1.02.06v-1.53c.33.06.6.08,1.04.08h.72v-1.17ZM40.93,181.26q-.1.14-.38.58c-.75,1.25-1.3,1.98-2.1,2.75,1.11.71,2.07,1.08,3.55,1.37-.39.48-.67.99-.9,1.56-1.77-.54-2.82-1.04-3.93-1.86-1.17.85-2.38,1.41-4.05,1.89-.31-.64-.51-.97-.88-1.44,1.5-.31,2.45-.7,3.76-1.53-.84-.9-1.23-1.5-1.8-2.8-.27.01-.45.03-.69.06v-1.51c.31.06.66.08,1.15.08h4.54c.39,0,.66-.02.87-.06l.84.93ZM41.88,177.22c-.17,2.16-.33,2.34-2.22,2.34-.69,0-1.04-.03-1.26-.11-.44-.15-.57-.4-.57-1.08v-2.19h-1.74c-.06,2.12-.62,3.24-2.05,4.18-.34-.45-.63-.71-1.16-1.08,1.31-.72,1.73-1.67,1.73-3.91,0-.23-.02-.41-.04-.72.27.03.61.04.94.04h2.97c.32,0,.63-.01.9-.04-.03.18-.04.51-.04.92v2.21c0,.22.01.29.12.32.06.03.24.04.39.04.21,0,.42-.03.48-.08.13-.11.18-.39.18-1.17v-.17c0-.11,0-.27-.02-.48.83.45.96.51,1.41.66v.32ZM35.8,181.77c.38.73.83,1.33,1.44,1.9.69-.58,1.04-.99,1.6-1.9h-3.04Z"/>
        <path d="M48.87,176.52c-.42.45-.79.78-1.37,1.21-.33-.45-.58-.69-.97-.96,1.14-.75,2-1.72,2.31-2.58l1.52.27q-.11.15-.26.4c-.07.14-.18.29-.31.46h4.23c.62,0,.95-.01,1.2-.06l.85.67c-.12.15-.15.2-.25.36-.54.78-.73,1.04-1.33,1.62-.43-.24-.81-.39-1.33-.56.46-.31.63-.46.96-.85h-2.22c.45,1.42,1.95,2.21,4.54,2.34-.3.51-.43.83-.58,1.41-.6-.11-.83-.15-1.32-.27-.01.42-.01.81-.01,1.23v2.67q.01,1.27.06,1.53c-.31-.03-.91-.04-1.53-.04h-.67c1.15.54,2.13.78,3.99.96-.36.42-.52.67-.9,1.32-2.13-.36-3.17-.72-4.7-1.65l.84-.63h-3.94l.88.63c-1.5.92-2.46,1.26-4.56,1.65-.33-.6-.45-.76-.88-1.28,1.9-.22,2.86-.48,3.84-1h-.58c-.68,0-1.19.02-1.53.04.03-.27.06-.85.06-1.44v-2.85c0-.66-.01-1.07-.06-1.47.29.02.83.03,1.47.03h.75c-.17-.36-.33-.6-.6-.93-.77.36-.98.45-2.08.9-.21.09-.36.15-.62.29l-.57-1.48c.96-.18,2.24-.65,3.53-1.29l.43,1.26-.51.25c1-.13,1.63-.29,2.17-.53.9-.4,1.33-.87,1.53-1.65h-1.46ZM45.81,176.98c-.83-.66-1.33-.97-2.28-1.41l.93-1.09c1.07.5,1.49.74,2.34,1.32l-.99,1.18ZM46.38,181.29h6.63v-.54h-6.63v.54ZM46.38,182.79h6.63v-.57h-6.63v.57ZM46.38,184.26h6.63v-.54h-6.63v.54ZM53.1,179.7h.5c-1.2-.43-1.89-.99-2.46-1.91-.38.62-.71.93-1.33,1.31-.45.27-.88.43-1.62.6h4.92Z"/>
        <path d="M64.68,179.64c.03,1.12.06,1.71.21,3.21,1.26.41,1.86.66,2.75,1.14,1.18.67,1.79,1.12,1.79,1.33,0,.18-.2.52-.54,1.02-.23.33-.39.48-.51.48-.08,0-.14-.03-.24-.14-1.07-1.02-1.92-1.57-3.18-2.08-.03.91-.2,1.39-.63,1.84-.53.52-1.44.81-2.62.81-1.96,0-3.17-.87-3.17-2.29,0-1.51,1.32-2.47,3.38-2.47.5,0,.93.03,1.3.08-.15-2.46-.2-3.65-.21-5.85-.01-.87-.04-1.39-.13-2.1.69.02,1.38.09,1.79.2.24.08.33.15.33.31,0,.08-.01.12-.06.24-.17.39-.22.96-.25,2.62q.12,0,.58-.03c.72-.04,1.74-.22,2.88-.54.04-.01.08-.01.12-.01.09,0,.12.03.18.18.15.36.32,1.1.32,1.35,0,.12-.06.17-.2.21-1.16.27-2.77.5-3.66.5h-.21ZM61.74,183.96c-1.02,0-1.63.34-1.63.92,0,.53.51.79,1.46.79,1.15,0,1.66-.41,1.66-1.35v-.12c-.49-.18-.92-.24-1.48-.24Z"/>
        <path d="M76.8,185.29c0,1.41-1.14,2.55-2.54,2.55s-2.53-1.14-2.53-2.55,1.14-2.54,2.53-2.54,2.54,1.14,2.54,2.54ZM72.9,185.29c0,.76.62,1.38,1.36,1.38s1.37-.62,1.37-1.38-.62-1.37-1.37-1.37-1.36.62-1.36,1.37Z"/>
      </g>
      <circle class="cls-9" cx="308.24" cy="187.19" r="30"/>
      <path class="cls-8" d="M329.77,1.42H90.4c-4.68,0-8.47,3.79-8.47,8.47v43.9s-9.69,9.69-9.69,9.69h9.69v.5c0,4.68,3.79,8.47,8.47,8.47h239.38c4.68,0,8.47-3.79,8.47-8.47V9.89c0-4.68-3.79-8.47-8.47-8.47Z"/>
      <g>
        <path d="M96.82,22.43c-.27.02-.43.03-.61.05-.14.01-.15.01-.17.01-.12,0-.18-.04-.23-.2-.08-.24-.18-1.04-.19-1.48.17.01.6.03,1.14.03.17,0,1.35-.07,1.88-.12.25-1.21.34-1.85.34-2.66,1.54.21,2.1.39,2.1.67,0,.11-.01.13-.24.48-.12.18-.17.34-.42,1.28.7-.12,1.12-.23,1.68-.41.1-.03.15-.04.22-.04.11,0,.13.08.23.51.07.38.12.69.12.85,0,.18-.04.21-.43.3-.51.12-1.38.27-2.31.39-.56,1.68-.93,2.58-1.62,3.99-.53,1.05-.83,1.61-1.23,2.24-.12.18-.19.24-.3.24-.15,0-.57-.22-1.09-.61-.24-.17-.3-.24-.3-.34s.06-.2.25-.46c.43-.54,1-1.47,1.5-2.46.42-.82.57-1.17,1-2.35-.58.04-.63.06-1.32.1ZM101.76,31.07c-1.64,0-2.75-.9-2.75-2.24s1.15-2.42,2.7-2.42c.36,0,.53.02,1.14.11-.06-.72-.06-1.01-.12-2.4,0-.29-.03-.67-.06-1.15.77.07,1.35.16,1.64.29.12.04.18.12.18.24,0,.08-.01.14-.03.24-.08.32-.09.54-.09.94,0,.56.04,1.5.09,2.24,1.07.48,1.5.72,2.25,1.31.33.25.45.39.45.51,0,.15-.08.29-.5.96-.18.3-.31.44-.42.44q-.09,0-.51-.39c-.33-.33-.71-.58-1.23-.9,0,1.4-1.02,2.24-2.74,2.24ZM101.73,27.86c-.72,0-1.21.34-1.21.87,0,.49.45.81,1.12.81.79,0,1.21-.41,1.21-1.2,0-.12,0-.24-.02-.24-.3-.15-.7-.24-1.11-.24ZM107.34,23.6c-.18.26-.27.33-.38.33-.08,0-.13-.03-.24-.13-.38-.36-.9-.75-1.46-1.09q-.36-.22-1.02-.52c-.21-.09-.29-.15-.29-.27,0-.1.08-.24.3-.58.36-.53.45-.62.58-.62.28,0,1.39.57,2.19,1.11.65.43.84.61.84.78,0,.12-.24.57-.54,1Z"/>
        <path d="M116.58,18.96c.18.12.25.21.25.32s-.01.12-.24.38c-.08.09-.3.42-.54.83q-.75,1.25-1.16,1.96c-.42.71-.69,1.19-.84,1.41q-.04.07-.25.45c-.2.35-.32.53-.53.81.97-.86,1.5-1.08,2.49-1.08.66,0,1.25.29,1.62.78.31.42.4.81.54,2.28.07.88.15,1.27.25,1.5.1.21.31.33.58.33,1.03,0,2.26-1.25,2.86-2.88.15.63.27.93.58,1.49.11.18.14.3.14.45,0,.16-.08.38-.26.66-.78,1.26-2.05,2.01-3.42,2.01-.85,0-1.57-.3-1.95-.79-.3-.42-.44-.98-.56-2.45-.07-.96-.15-1.29-.36-1.53-.17-.18-.41-.27-.74-.27-.99,0-2.29,1.33-3.06,3.1-.22.51-.38.97-.54,1.54-.06.22-.13.32-.24.32-.31,0-1.04-.3-1.42-.58-.1-.09-.15-.15-.15-.24,0-.07.03-.15.22-.57.12-.27.17-.34.27-.62q1.11-2.59,4.19-8.82c.34-.69.51-1.12.61-1.58.78.29,1.14.47,1.62.79Z"/>
        <path d="M125.61,23.55c-.12.03-.18.06-.27.11-.08.04-.12.06-.2.06-.32,0-.55-.59-.74-1.7.12.02.23.02.29.02.63,0,2.24-.2,3.2-.39.31-1.32.48-2.31.48-3.03,0-.06,0-.14-.01-.26.64.08,1.26.21,1.68.38.24.09.36.22.36.38,0,.08-.02.12-.09.24q-.23.4-.69,2.05c.36-.04.76-.07,1.02-.07.62,0,1.1.12,1.44.36.6.44.9,1.32.9,2.69,0,2.23-.41,4.14-1.1,5.08-.48.66-1.11.97-1.99.97-.54,0-1.05-.07-1.2-.16q-.12-.08-.17-.63c-.04-.4-.13-.75-.32-1.17.78.26.98.3,1.46.3.72,0,1.02-.35,1.35-1.54.23-.79.35-1.83.35-2.93,0-1.17-.29-1.59-1.08-1.59-.27,0-.71.03-1.05.09-.04.17-.06.18-.12.39-.42,1.53-1.19,3.55-1.95,5.17-.79,1.63-.99,1.96-1.18,1.96-.12,0-.53-.21-.96-.5-.35-.21-.44-.3-.44-.42q0-.07.62-1.05c.83-1.27,1.91-3.78,2.28-5.25-1.11.24-1.73.39-1.86.43ZM133.26,21.87c0-.1.14-.24.57-.58.3-.23.45-.32.55-.32.09,0,.17.04.36.24.88.86,1.71,2,2.19,2.99.15.33.24.54.24.63,0,.15-.04.2-.52.58-.3.24-.65.43-.77.43-.1,0-.15-.04-.25-.3-.3-.74-.58-1.31-.94-1.86-.39-.6-.47-.69-1.35-1.64-.06-.09-.08-.13-.08-.18Z"/>
        <path d="M138.81,27.43c.27-.24.34-.3.45-.3.19,0,1.09.66,1.75,1.29.75.69,1.59,1.69,1.59,1.91,0,.13-.03.16-.46.55-.57.53-.69.62-.79.62-.09,0-.18-.06-.25-.21-.53-.93-1.73-2.16-2.79-2.85-.12-.09-.18-.15-.18-.24,0-.1.03-.15.69-.76Z"/>
        <path d="M154.92,22.35c-.81,0-.84,0-.93-.18-.09-.15-.2-.78-.24-1.44.56.06,1.1.09,1.82.09.43,0,1.02-.01,1.63-.06.12-.9.15-1.21.15-1.77,0-.26-.02-.45-.04-.79.73.04,1.57.18,1.9.3.12.04.17.09.17.21,0,.09-.01.15-.1.33-.14.3-.2.54-.29,1.02-.04.29-.06.34-.09.54,1.23-.15,2.46-.42,3.31-.75.12-.03.18-.04.24-.04.1,0,.15.08.21.38.06.33.13.93.13,1.09,0,.18-.06.21-.51.31-1.19.24-2.67.46-3.71.56-.45,1.8-.66,2.38-1.2,3.39.84-.66,1.29-.92,2.01-1.17.64-.24,1.27-.34,1.95-.34,1.09,0,1.98.3,2.55.87.53.52.83,1.3.83,2.12,0,1.11-.52,2.01-1.65,2.76-.83.57-2.19,1.05-3.56,1.23-.24.03-.48.06-.57.06-.23,0-.33-.07-.44-.25-.28-.54-.52-.85-.92-1.23,1.4-.06,2.46-.26,3.54-.64,1.14-.41,1.8-1.1,1.8-1.89,0-1.02-.61-1.63-1.63-1.63-1.69,0-3.58,1.05-4.8,2.65-.09.11-.18.17-.27.17-.27,0-1.31-.95-1.31-1.19,0-.08.02-.11.17-.3.79-1.08,1.41-2.59,1.85-4.46-.26.01-1.85.08-2.01.08Z"/>
        <path d="M174.58,27.36c1.08.36,1.54.55,2.31.99.99.57,1.16.72,1.16,1,0,.14-.2.45-.51.86-.22.29-.32.36-.43.36q-.09,0-.59-.45c-.54-.5-1.12-.86-1.89-1.15,0,1.23-.93,1.9-2.64,1.9-1.53,0-2.45-.67-2.45-1.79s1.05-1.98,2.52-1.98c.27,0,.48.01,1.04.06-.11-1.8-.15-3.04-.17-4.51,0-.88-.03-1.16-.14-1.63.63.01,1.31.08,1.61.13.21.06.27.12.27.27,0,.07,0,.09-.09.27-.1.25-.17.86-.18,1.86.94-.04,1.46-.13,2.61-.45.03-.02.06-.02.08-.02.04,0,.09.02.11.04.1.14.3.99.3,1.32,0,.13-.04.17-.58.29-.9.18-1.61.27-2.49.29.02.73.04,1.15.17,2.34ZM171.99,28.38c-.72,0-1.09.21-1.09.63,0,.36.33.52,1,.52s1.02-.17,1.15-.54c.05-.12.06-.2.06-.46-.32-.11-.62-.15-1.12-.15Z"/>
        <path d="M185.43,23.52c1.89-.53,3.25-.77,4.27-.77,2.12,0,3.42,1.16,3.42,3.03,0,1.12-.46,2.12-1.35,2.87-.58.5-1.46.92-2.61,1.26-.64.18-1.33.32-1.63.32-.18,0-.27-.04-.33-.2-.21-.53-.45-.9-.76-1.21,3.3-.35,4.98-1.39,4.98-3.11,0-.87-.72-1.54-1.65-1.54-1.62,0-3.39.54-5.25,1.58-.15.08-.24.12-.3.12-.25,0-.67-.75-1.02-1.83.74-.11.99-.17,2.24-.51Z"/>
        <path d="M200.8,23c-.19-.66-.25-1.06-.43-2.91-.06-.72-.12-1.08-.27-1.59.91.02,1.5.06,1.9.17.23.06.33.16.33.33,0,.06-.01.13-.04.25-.1.36-.15.63-.15,1.02,0,.74.15,1.93.32,2.46.09.29.18.39.34.39.36,0,1.68-.69,2.4-1.25.19-.15.22-.16.3-.16.13,0,.27.1.5.39.38.51.67,1.07.67,1.27,0,.17-.11.27-.36.35-.93.25-2.46.85-3.49,1.35-1.83.9-2.66,1.72-2.66,2.65s.76,1.29,2.7,1.29c1.12,0,2.14-.11,3.52-.33.06-.02.17-.03.2-.03.12,0,.19.06.25.18.04.15.15,1.07.15,1.42,0,.21-.06.29-.26.35-.33.07-2.14.18-3.28.18-1.92,0-3.2-.25-3.99-.79-.67-.46-1.04-1.2-1.04-2.1,0-.69.2-1.31.6-1.91.52-.78,1.09-1.27,2.35-2.02-.31-.29-.43-.5-.57-.96Z"/>
        <path d="M217.11,22.1c-3.29.19-4.56.34-5.5.6-.06.01-.12.03-.17.03-.11,0-.2-.08-.24-.2-.13-.38-.21-.87-.25-1.63.18.02.3.02.36.02.48,0,.93-.02,2.37-.11,1.11-.06,2.06-.11,3.41-.17-.01-1.35-.03-1.54-.17-2.24,1.16.03,1.74.09,1.95.18.09.03.13.11.13.26,0,.03-.01.09-.04.17-.13.33-.18.67-.21,1.59,2.19-.04,2.52-.04,4.02-.04.41,0,.46,0,.51.04.06.06.09.28.09.79,0,.69-.02.76-.21.76h-.06c-.64-.07-2.25-.13-3.3-.13q-.34,0-1.09.02l-.03,2.46c.22.51.3.92.3,1.63,0,1.89-.69,3.33-2.14,4.4-.6.45-1.37.84-1.63.84-.14,0-.21-.04-.33-.17-.42-.48-.74-.73-1.28-1.04.9-.25,1.37-.45,1.95-.82.43-.27.83-.6,1.11-.92.19-.22.34-.45.57-.94-.45.46-.79.61-1.35.61-1.26,0-2.08-.96-2.08-2.41,0-1.53.97-2.62,2.33-2.62.43,0,.7.04,1,.18v-1.14ZM215.29,25.6c0,.63.36,1.06.9,1.06.57,0,.92-.4.92-1.08s-.33-1.11-.9-1.11c-.54,0-.92.46-.92,1.12ZM221.02,20.13c-.42-.75-.75-1.2-1.12-1.57-.03-.03-.05-.08-.05-.12,0-.06.14-.19.35-.33q.36-.22.43-.22c.13,0,.34.19.78.74.39.48.64.85.64.97,0,.07-.04.12-.24.29-.24.21-.54.39-.63.39-.07,0-.12-.03-.17-.14ZM222.91,17.68c.42.46.79,1,.79,1.14,0,.1-.09.2-.39.41-.21.13-.39.22-.45.22q-.09,0-.36-.45c-.22-.41-.51-.77-.9-1.17-.03-.03-.04-.09-.04-.12,0-.1.09-.19.33-.33.2-.12.38-.19.45-.19.11,0,.27.13.57.5Z"/>
        <path d="M228.19,21.27c2.49-.71,3.78-.93,5.19-.93,1.51,0,2.7.4,3.5,1.18.66.67,1.02,1.6,1.02,2.7,0,1.92-1.03,3.54-2.83,4.47-.96.48-1.93.81-3.27,1.07-.58.12-.88.16-1.11.16-.18,0-.27-.06-.36-.22-.34-.69-.48-.9-.93-1.37,2.23-.27,3.45-.57,4.62-1.15,1.28-.63,1.98-1.67,1.98-2.93,0-1.41-.96-2.32-2.43-2.32-1.78,0-3.76.51-6.04,1.56-.41.18-.62.29-.77.38-.27.15-.34.18-.43.18-.29,0-.79-.92-1.14-2.07.69-.09,1.38-.25,3.01-.71Z"/>
        <path d="M245.28,18.81c0-.39-.02-.55-.08-.93h1.75c-.06.28-.09.58-.09.93v.18h4.26c.75,0,1.14-.02,1.63-.09v1.51c-.53-.06-.92-.07-1.53-.07h-1.92c1.12.67,2.31,1.5,3.29,2.28l-1.11,1.07c-.6-.56-.81-.75-1.33-1.17-2.59.22-5.02.34-8.17.41-.15.01-.36.01-.62.03h-.46c-.12.02-.33.03-.51.04l-.18-1.44h.18q.39.04,1.56.04h.76c.35-.44.6-.79.84-1.26h-2.26c-.67,0-1.05.01-1.56.07v-1.51c.48.08.9.09,1.67.09h3.88v-.18ZM243.04,29.58c0,.67.02,1.18.08,1.64h-1.71c.06-.51.09-1.01.09-1.82v-4.47c0-.69-.01-1.08-.06-1.46.31.03.82.04,1.62.04h6.4q1.09-.02,1.2-.02s.09-.01.19-.01c.03-.01.09-.01.17-.01-.04.4-.06.84-.06,1.53v4.58c0,.65-.13,1-.45,1.25-.27.2-.63.27-1.44.27-.32,0-.56-.01-1.54-.06-.08-.45-.15-.74-.38-1.36.73.1,1.26.13,1.75.13.42,0,.54-.09.54-.39v-.58h-6.41v.75ZM249.45,24.85h-6.41v.73h6.41v-.73ZM243.04,27.57h6.41v-.74h-6.41v.74ZM245.25,20.35c-.2.33-.55.84-.87,1.24,1.17-.01,3.18-.1,4.26-.18-.42-.29-.52-.34-1.02-.64l.78-.42h-3.15Z"/>
        <path d="M256.74,22.1c-.39.09-.53.13-1.07.33-.19.08-.3.11-.39.11-.33,0-.63-.62-.9-1.9.96-.04,1.31-.09,2.97-.35,1.8-.27,4.08-.62,5.28-.76,1.35-.18,2.43-.36,3-.48.1-.03.15-.03.22-.03.2,0,.27.09.41.46.12.32.21.76.21.97,0,.18-.06.24-.27.24-.32,0-.6.03-.89.08-2.53.42-4.56,2.64-4.56,4.98,0,1.75,1.38,2.91,3.72,3.12.21.01.29.09.29.27,0,.38-.15,1.1-.29,1.43-.08.16-.19.24-.39.24s-.65-.09-1.11-.22c-2.55-.75-3.88-2.37-3.88-4.67,0-1.25.41-2.4,1.19-3.39.42-.54.78-.84,1.63-1.42-1.96.33-4.04.72-5.17,1Z"/>
        <path d="M276.72,23.26c2.12,0,3.62,1.44,3.62,3.48,0,1.39-.74,2.66-1.96,3.39-.86.51-1.91.77-3.09.77-1.91,0-3.02-.77-3.02-2.07,0-1.19.99-2.03,2.4-2.03,1.27,0,2.19.64,2.8,1.96.76-.55,1.08-1.14,1.08-1.95,0-1.29-.92-2.13-2.36-2.13s-3.04.74-4.35,2.04c-.24.24-.46.49-.73.84-.11.15-.18.21-.27.21-.27,0-1.33-1.05-1.33-1.32,0-.13.06-.21.39-.45.34-.27.84-.71,1.47-1.3,1.46-1.38,2.52-2.54,4.09-4.46-1.88.24-3.13.45-3.6.62-.08.02-.12.03-.17.03-.12,0-.2-.07-.29-.3-.18-.45-.27-.95-.32-1.61.41.06.69.08,1.02.08.72,0,1.93-.1,3.51-.29.55-.06.73-.1,1.15-.27.14-.06.21-.07.3-.07.21,0,.42.18.81.78.29.39.38.59.38.71,0,.2-.04.26-.38.46-.27.17-.43.3-.78.63-.75.72-.76.72-1.69,1.66-.66.68-.74.75-1.33,1.35.97-.54,1.74-.76,2.64-.76ZM275.28,28.44c-.23-.15-.48-.22-.77-.22-.46,0-.76.22-.76.58,0,.44.46.71,1.18.71.33,0,.62-.03.99-.13-.18-.5-.33-.72-.64-.93Z"/>
        <path d="M292.42,19.11c-.76.39-1.05.75-1.15,1.43.13-.03.27-.04.31-.04.6,0,1.05.48,1.05,1.09,0,.66-.46,1.12-1.11,1.12-.79,0-1.26-.58-1.26-1.59,0-.6.18-1.27.44-1.69.25-.39.58-.67,1.12-.98l.6.66ZM295.32,19.11c-.77.39-1.05.75-1.16,1.43.13-.03.27-.04.31-.04.6,0,1.05.48,1.05,1.09,0,.66-.47,1.12-1.11,1.12-.79,0-1.26-.58-1.26-1.54,0-1.29.46-2.11,1.56-2.71l.6.66Z"/>
        <path d="M300,23.04c-1.19.12-1.49.13-2.16.13-.46,0-.54-.19-.65-1.53h.58c.74,0,1.4-.04,2.22-.13v-.32c0-.97-.06-1.74-.21-2.55,1.14.06,1.59.12,1.9.21.15.04.21.12.21.27,0,.09-.01.15-.09.3-.13.28-.21.83-.22,1.84.5-.09,1.29-.29,1.89-.46.04-.02.08-.02.1-.02.12,0,.2.06.23.17.08.3.17.9.17,1.12,0,.12-.08.22-.2.27-.18.07-1.27.3-2.23.46v1.94c1.48-.5,2.64-.74,3.63-.74,1.92,0,3.16,1.23,3.16,3.13,0,1.23-.49,2.22-1.38,2.75-.46.27-1.12.43-1.84.43s-1.37-.06-1.53-.17c-.16-.09-.18-.13-.21-.49-.03-.42-.12-.78-.3-1.22.62.23,1.12.32,1.71.32,1.17,0,1.83-.6,1.83-1.67s-.63-1.67-1.63-1.67c-.95,0-2.14.3-3.43.86q0,.06.01.64.01.99.01,1.2c.02.27.02.54.02.68,0,1.21-.46,1.8-1.46,1.8s-1.94-.51-2.54-1.29c-.24-.33-.36-.67-.36-1.08,0-.97.87-1.86,2.76-2.83v-2.37ZM300,27.06c-.87.53-1.23.87-1.23,1.19,0,.35.5.72.95.72.21,0,.29-.14.29-.48v-1.43ZM308.37,23.66c-.76-.81-1.81-1.48-2.8-1.8-.12-.04-.18-.1-.18-.18,0-.09.15-.33.57-.9.17-.22.18-.24.33-.24.15.01.72.21,1.11.39.94.43,2.17,1.36,2.17,1.65,0,.27-.75,1.21-.97,1.21-.08,0-.14-.03-.23-.13Z"/>
        <path d="M318.13,28.32c1.23,0,2.59-.18,3.94-.52.08-.03.12-.03.17-.03.09,0,.13.06.17.2.04.33.08.81.08,1.3,0,.3-.03.39-.17.45-.45.24-2.47.46-4.21.46-2.26,0-3.55-.38-4.59-1.35-.5-.46-.99-1.27-.99-1.6,0-.22.13-.32,1.37-1.02.54,1.49,1.79,2.12,4.25,2.12ZM318.27,19.7c.87,0,1.38-.03,2.4-.18h.11c.12,0,.17.04.2.13.03.18.06.63.06,1.17,0,.34-.03.47-.12.53-.12.08-1.42.17-2.43.17-1.33,0-2.45-.11-3.69-.35-.85-.16-.9-.21-.9-.73,0-.35.03-.92.08-1.33,1.3.41,2.73.6,4.3.6Z"/>
        <path d="M97.96,46.88c2.52-.71,3.78-.93,5.19-.93,1.51,0,2.7.4,3.5,1.19.66.67,1.02,1.6,1.02,2.7,0,1.92-1.04,3.55-2.83,4.47-.96.5-1.93.83-3.27,1.08-.58.12-.88.17-1.11.17-.18,0-.27-.06-.36-.22-.35-.71-.48-.9-.93-1.38,2.24-.27,3.45-.57,4.62-1.15,1.28-.63,1.98-1.67,1.98-2.93,0-1.41-.96-2.32-2.43-2.32-1.78,0-3.76.51-6.04,1.57-.4.18-.61.29-.76.38-.27.15-.34.18-.43.18-.29,0-.79-.92-1.14-2.08.69-.09,1.38-.24,3.02-.71ZM106.92,46.17c-.15.12-.22.17-.3.17q-.09,0-.39-.41c-.29-.39-.58-.72-1.07-1.14-.04-.04-.08-.1-.08-.15,0-.13.6-.63.78-.63.11,0,.53.35,1,.84.42.44.55.62.55.72,0,.12-.15.3-.51.6ZM107.86,45.02c-.33-.48-.75-.95-1.2-1.34-.06-.04-.08-.07-.08-.13,0-.13.57-.58.74-.58.13,0,.43.22.83.61.5.51.71.78.71.89s-.03.15-.21.31c-.24.21-.51.4-.58.4-.05,0-.12-.04-.2-.16Z"/>
        <path d="M111.15,49.07c-.12.03-.18.06-.27.11-.08.04-.12.06-.2.06-.32,0-.55-.59-.74-1.7.12.02.23.02.29.02.63,0,2.24-.2,3.2-.39.31-1.32.48-2.31.48-3.03,0-.06,0-.14-.01-.26.64.08,1.26.21,1.68.38.24.09.36.22.36.38,0,.08-.02.12-.09.24q-.23.4-.69,2.05c.36-.04.76-.07,1.02-.07.62,0,1.1.12,1.44.36.6.44.9,1.32.9,2.69,0,2.23-.41,4.14-1.1,5.08-.48.66-1.11.97-1.99.97-.54,0-1.05-.07-1.2-.16q-.12-.08-.17-.63c-.04-.4-.13-.75-.32-1.17.78.26.98.3,1.46.3.72,0,1.02-.35,1.35-1.54.23-.79.35-1.83.35-2.93,0-1.17-.29-1.59-1.08-1.59-.27,0-.71.03-1.05.09-.04.17-.06.18-.12.39-.42,1.53-1.19,3.55-1.95,5.17-.79,1.63-.99,1.96-1.18,1.96-.12,0-.53-.21-.96-.5-.35-.21-.44-.3-.44-.42q0-.07.62-1.05c.83-1.27,1.91-3.78,2.28-5.25-1.11.24-1.73.39-1.86.43ZM118.8,47.39c0-.1.14-.24.57-.58.3-.23.45-.32.55-.32.09,0,.17.04.36.24.88.86,1.71,2,2.19,2.99.15.33.24.54.24.63,0,.15-.04.2-.52.58-.3.24-.65.43-.77.43-.1,0-.15-.04-.25-.3-.3-.74-.58-1.31-.94-1.86-.39-.6-.47-.69-1.35-1.64-.06-.09-.08-.13-.08-.18Z"/>
        <path d="M124.96,46.67c0-.43-.02-1.02-.04-1.35.69.08,1.2.18,1.6.33.36.14.48.23.48.39q0,.09-.06.24c-.2.51-.25,1.08-.25,2.45,0,1.92.12,3.12.42,4.03.22.71.57,1.11.97,1.11.62,0,1.12-.72,1.68-2.38.28.76.39.99.81,1.53.08.11.12.21.12.31,0,.24-.22.75-.53,1.19-.58.86-1.33,1.32-2.13,1.32-1.15,0-2.02-.93-2.56-2.78-.34-1.2-.51-2.71-.51-4.81v-1.58ZM133.89,46.91c.09,0,.17.04.29.15.75.72,1.53,1.92,2.03,3.09.33.79.64,1.86.64,2.18,0,.15-.08.22-.39.39-.34.18-1.05.42-1.23.42-.13,0-.19-.08-.24-.34-.2-1.16-.46-2-.93-2.97-.42-.87-.45-.91-1.47-2.17.63-.46,1.12-.74,1.3-.74Z"/>
        <path d="M146.01,55.97c-1.27.29-2.71.51-4.72.71-.25.03-.42.06-.57.09l-.27-1.47h.17c.3,0,1.07-.03,1.54-.06v-1.85h-1.42c-.2,1.38-.63,2.52-1.35,3.54-.53-.69-.72-.9-1.2-1.29.87-1.19,1.15-2.38,1.15-4.89,0-.65-.03-1.42-.07-1.79.48.04.88.06,1.44.06h9.13c.63,0,1.02-.01,1.39-.06v1.27c-.27-.03-.81-.06-1.39-.06h-8.94v.87c0,.39-.01.66-.04,1.17h9.3c.61,0,.82-.01,1.18-.06v1.29c-.34-.04-.62-.06-1.18-.06h-1.2l1.21.48c-.43.38-.65.52-1.37.97,1,.29,1.95.44,2.99.48-.3.6-.44.9-.63,1.47-2.29-.3-3.95-.93-5.16-1.96v1.14ZM148.92,44.3c.76,0,1.02-.01,1.62-.06-.04.42-.04.67-.04,1.35v1.62c0,.51.01,1,.03,1.3-.6-.04-.77-.04-1.44-.04h-8.08c-.39,0-.84.02-1.29.04.03-.33.05-.63.05-1.32v-1.59c0-.67-.02-.96-.06-1.36.41.03,1,.06,1.62.06h1.54c-.01-.33-.03-.58-.08-.87h1.58c-.04.29-.06.55-.06.87h1.62c-.01-.1-.01-.13-.01-.24-.01-.15-.01-.24-.01-.27-.02-.17-.02-.21-.05-.36h1.59c-.05.29-.06.57-.06.87h1.54ZM141.24,45.36v.57h1.62v-.57h-1.62ZM141.24,46.92v.55h1.62v-.55h-1.62ZM141.4,50.63c.38.04.57.06,1.28.06h6.42c.71,0,.92-.02,1.29-.06v1.17c-.43-.04-.6-.06-1.29-.06h-6.42c-.68,0-.86.02-1.28.06v-1.17ZM143.62,55.08c.45-.06,1.2-.18,2.25-.36-.46-.43-.72-.76-1.04-1.33h-1.21v1.7ZM144.3,45.93h1.62v-.57h-1.62v.57ZM144.3,47.48h1.62v-.55h-1.62v.55ZM146.37,53.39c.33.45.62.69,1.18.99.44-.27.87-.62,1.26-.99h-2.45ZM147.37,45.93h1.62v-.57h-1.62v.57ZM147.37,47.48h1.62v-.55h-1.62v.55Z"/>
        <path d="M164.13,56.79v-.58h-9.31v.58h-1.61c.06-.48.09-1.09.09-1.87v-9.36c0-.66-.03-1.18-.08-1.72.45.06.94.08,1.68.08h9.12c.72,0,1.21-.01,1.69-.08-.06.55-.08.96-.08,1.72v9.38c0,.88.03,1.48.08,1.86h-1.59ZM154.81,53.4s.04-.03.45-.18c.9-.33,1.81-.85,2.49-1.42h-.84q-.67.02-.94.03c.03-.29.04-.42.04-.78v-1.05c0-.36,0-.45-.04-.78.28.03.43.03.94.03h5.1c.53,0,.68,0,.96-.03-.03.26-.03.35-.03.78v1.05c0,.42,0,.51.03.77l.6.34q-.09.08-.27.24c-.21.21-.48.42-.82.68.34.15.6.22,1.42.45-.41.46-.62.75-.92,1.19-1.52-.66-2.42-1.21-3.21-1.98q.01.26.01.5v.62c0,.38.02.57.06.83h-1.56c.04-.27.06-.5.06-.83v-.62c0-.1,0-.34.01-.45-.97.81-1.47,1.14-2.66,1.74-.33-.53-.43-.64-.9-1.08v1.52h9.3v-9.77h-9.3v8.22ZM156.88,47.12c-.58,0-.75,0-1.2.04v-1.17c.31.04.58.06,1.2.06h1.74c-.01-.26-.03-.38-.06-.57h1.62c-.03.15-.04.27-.06.57h2.03c.54,0,.85-.02,1.15-.06v1.17c-.39-.03-.6-.04-1.15-.04h-2.03v.58h2.58c.55,0,.76-.01,1.12-.06v1.23c-.36-.04-.65-.06-1.09-.06h-6.5c-.45,0-.74.01-1.11.06v-1.23c.32.04.6.06,1.14.06h2.35v-.58h-1.74ZM157.45,50.78h4.04v-.51h-4.04v.51ZM160.35,51.8c.36.3.54.42,1.11.77.27-.2.62-.5.86-.77h-1.96Z"/>
        <path d="M167.29,47.66c.77-.39,1.07-.75,1.16-1.42-.13.03-.25.04-.3.04-.6,0-1.07-.48-1.07-1.1,0-.66.47-1.12,1.11-1.12.79,0,1.26.57,1.26,1.54,0,1.29-.46,2.12-1.56,2.71l-.6-.66ZM170.19,47.66c.76-.39,1.06-.75,1.16-1.42-.14.03-.26.04-.3.04-.6,0-1.06-.48-1.06-1.1,0-.66.46-1.12,1.11-1.12.79,0,1.26.57,1.26,1.54,0,1.29-.47,2.12-1.56,2.71l-.6-.66Z"/>
        <path d="M186.7,50.87c-.54,1-1.16,1.99-1.71,2.8-.62.88-1.32,1.33-2.05,1.33-1.08,0-1.82-.88-1.82-2.21,0-1.14.57-2.11,1.63-2.75.71-.4,1.77-.69,2.62-.69h.15c.76-1.56.96-1.98,1.47-3.15-1.38.06-2.22.18-2.83.39-.03.01-.08.01-.11.01-.25,0-.49-.78-.57-1.91.33.06.64.09,1.05.09.51,0,1.38-.04,2.29-.13q.85-.07,1.05-.2c.12-.06.2-.09.27-.09.19,0,.49.24.82.65.24.32.39.57.39.67,0,.12-.06.22-.24.41-.22.24-.92,1.53-1.79,3.36,1.42.28,1.96.45,3,.9.08-.52.13-1.14.13-1.56,0-.2-.01-.42-.04-.68.65.09,1.19.2,1.62.3.27.07.36.15.36.27,0,.11-.03.21-.12.39-.13.28-.18.48-.29,1.09-.04.32-.09.53-.18.96.76.48,1.42.94,1.72,1.23.08.08.12.15.12.23,0,.42-.65,1.39-.92,1.39-.08,0-.15-.04-.27-.13-.4-.36-.9-.78-1.2-1.01-.51,1.08-1.04,1.77-1.86,2.48-.71.58-1.68,1.12-2.04,1.12-.12,0-.25-.06-.36-.15-.04-.04-.04-.06-.24-.33-.23-.35-.42-.51-.78-.68,1.2-.42,1.79-.72,2.43-1.28.65-.57,1.14-1.26,1.47-2.07-1.02-.56-2.03-.9-3.21-1.09ZM182.65,52.67c0,.36.13.58.38.58.33,0,.92-.73,1.86-2.36-1.42.15-2.23.79-2.23,1.77Z"/>
        <path d="M196.45,48.32h-.09c-.08.02-.14.02-.17.02-.13,0-.21-.06-.25-.25-.09-.38-.15-.84-.18-1.41.21.01.38.01.48.01.81,0,1.75-.06,2.55-.16.15-.99.22-1.76.22-2.37v-.34c1.74.22,2.07.33,2.06.6,0,.07-.03.12-.09.25-.18.34-.19.39-.43,1.58.58-.11,1.33-.3,1.63-.41.06-.03.08-.03.12-.03.13,0,.17.06.29.59.06.3.12.72.12.84,0,.1-.04.16-.18.19q-.27.09-2.32.45c-.69,3.04-1.41,5.29-2.57,7.99-.08.2-.15.27-.24.27-.2,0-.72-.21-1.23-.5-.25-.13-.33-.21-.33-.29,0-.06.04-.16.12-.31,1.14-2.16,1.96-4.46,2.54-6.93-.66.09-1.12.13-2.04.21ZM202.86,54.02c.44.29,1.07.42,1.95.42.97,0,1.82-.09,2.29-.24.12-.03.15-.04.21-.04.13,0,.2.04.24.18.1.31.18.93.18,1.39,0,.2-.06.27-.25.32-.5.1-1.33.17-2.22.17-1.88,0-2.92-.3-3.62-1.02-.25-.27-.46-.62-.58-.99-.09-.21-.15-.46-.15-.56,0-.25.45-.52,1.23-.78.17.63.34.9.72,1.16ZM207.07,49.65c-.3-.04-.93-.08-1.46-.08-1.11,0-1.57.04-2.89.27-.03.01-.08.01-.1.01-.09,0-.14-.03-.17-.12-.04-.11-.11-.84-.11-1.16,0-.19.03-.28.15-.33.06-.03.15-.04.46-.1,1.02-.18,1.88-.26,2.92-.26.87,0,1.32.03,1.42.11.08.06.09.18.09.68,0,.43-.03.82-.06.91-.02.04-.08.08-.15.08-.03,0-.08,0-.12-.01Z"/>
        <path d="M210.78,46.67c0-.43-.02-1.02-.04-1.35.69.08,1.2.18,1.6.33.36.14.48.23.48.39q0,.09-.06.24c-.2.51-.25,1.08-.25,2.45,0,1.92.12,3.12.42,4.03.22.71.57,1.11.97,1.11.62,0,1.12-.72,1.68-2.38.28.76.39.99.81,1.53.08.11.12.21.12.31,0,.24-.22.75-.53,1.19-.58.86-1.33,1.32-2.13,1.32-1.15,0-2.02-.93-2.56-2.78-.34-1.2-.51-2.71-.51-4.81v-1.58ZM219.7,46.91c.09,0,.17.04.29.15.75.72,1.53,1.92,2.03,3.09.33.79.64,1.86.64,2.18,0,.15-.08.22-.39.39-.34.18-1.05.42-1.23.42-.13,0-.19-.08-.24-.34-.2-1.16-.46-2-.93-2.97-.42-.87-.45-.91-1.47-2.17.63-.46,1.12-.74,1.3-.74Z"/>
        <path d="M225.27,48.5h-.09c-.08.01-.13.01-.17.01-.13,0-.21-.06-.25-.25-.09-.38-.15-.83-.18-1.41.21.01.38.01.48.01.81,0,1.75-.06,2.55-.17.15-.99.23-1.74.23-2.37v-.34c1.74.24,2.07.33,2.05.6,0,.08-.03.12-.09.26-.18.34-.2.39-.44,1.57.58-.11,1.33-.3,1.64-.4.06-.03.07-.03.12-.03.13,0,.16.06.28.59.06.3.12.72.12.84,0,.11-.04.16-.18.2q-.27.09-2.33.45c-.69,3.06-1.41,5.29-2.56,8-.08.19-.15.27-.24.27-.2,0-.72-.21-1.23-.5-.26-.13-.33-.2-.33-.29,0-.06.04-.16.12-.31,1.14-2.16,1.96-4.46,2.53-6.91-.66.07-1.12.12-2.04.19ZM231.67,54.2c.43.29,1.06.42,1.95.42.97,0,1.81-.09,2.29-.24.12-.03.15-.04.21-.04.13,0,.19.04.24.18.11.31.18.93.18,1.39,0,.2-.06.27-.25.32-.5.1-1.33.17-2.22.17-1.88,0-2.92-.3-3.61-1.02-.25-.27-.46-.6-.58-.98-.09-.22-.15-.48-.15-.57,0-.26.45-.53,1.23-.78.17.63.34.92.72,1.16ZM235.89,49.83c-.3-.04-.93-.08-1.46-.08-1.11,0-1.58.04-2.89.27-.03.01-.08.01-.11.01-.09,0-.13-.03-.17-.12-.04-.11-.1-.84-.1-1.15,0-.2.03-.29.15-.33.06-.03.15-.04.46-.11,1.02-.18,1.88-.25,2.92-.25.87,0,1.32.03,1.43.1.07.06.09.18.09.68,0,.43-.03.82-.06.91-.01.04-.08.08-.15.08-.03,0-.08,0-.12-.02ZM234.24,44.55c.2,0,1.47,1.42,1.47,1.65,0,.06-.1.19-.22.29-.06.04-.15.12-.25.21-.13.12-.18.15-.33.21t-.08.03c-.06,0-.06-.02-.34-.45-.25-.39-.74-.99-.99-1.22-.03-.03-.08-.09-.08-.1.03-.06.05-.09.05-.09.07-.09.33-.3.39-.34.15-.08.24-.13.25-.15.01-.03.03-.03.04-.03h.09ZM236.77,45.6c-.21.15-.36.24-.43.24-.06,0-.09-.03-.17-.15-.33-.54-.65-.93-1.14-1.42-.04-.04-.06-.08-.06-.12,0-.14.57-.56.76-.56.11,0,.29.15.62.5.48.49.83.94.83,1.09,0,.09-.11.2-.41.42Z"/>
        <path d="M241.48,48.09c-1.06.18-1.3.22-1.56.3-.15.04-.27.06-.36.06-.27,0-.4-.48-.46-1.65.87,0,1.35-.04,2.42-.24,0-.48.01-1.04.01-1.23,0-.58-.03-1.09-.09-1.47,1.58.08,2.04.18,2.04.46q0,.08-.13.39t-.2,1.62c.48.38.74.67.72.87,0,.04-.03.08-.09.13-.22.2-.25.22-.52.62q-.06.08-.15.2l-.06.09c0,.22,0,.25-.02.54.45-.51.87-.93,1.28-1.26,1.32-1.08,2.31-1.53,3.39-1.53s1.77.44,2.29,1.33c.45.78.69,1.88.69,3.17,0,.78-.06,1.38-.23,2.5.72.51,1.5,1.3,1.5,1.51,0,.24-.84,1.08-1.09,1.08-.11,0-.12-.02-.32-.31-.12-.17-.28-.36-.61-.72-.21.39-.33.55-.54.75-.56.51-1.3.78-2.19.78-1.56,0-2.56-.79-2.56-2,0-1.28,1.04-2.23,2.4-2.23.78,0,1.35.1,1.86.33.06-.56.08-.83.08-1.31,0-2.37-.45-3.3-1.59-3.3-.81,0-1.89.57-3.03,1.59-.41.38-.72.69-1.37,1.39v.87c0,1.99.04,4,.11,4.53v.06c0,.27-.21.34-.93.34-.66,0-.79-.06-.79-.34v-.12c.03-.43.04-.96.04-1.62q0-.99.01-2.18s-.03.04-.06.08c-.33.4-.87,1.14-1.22,1.63-.17.24-.25.31-.36.31-.15,0-.42-.27-.88-.87-.18-.23-.29-.42-.29-.5s.08-.16.45-.49c.27-.26,1.29-1.5,1.81-2.19.27-.38.46-.65.58-.84v-1.16ZM247.23,53.24c-.69,0-1.11.29-1.11.75s.32.69.89.69c.5,0,.9-.15,1.17-.45.13-.13.34-.51.34-.57h0c-.51-.33-.81-.42-1.29-.42Z"/>
        <path d="M252.87,50.13c.55-.67.83-.92,1.48-1.33.92-.57,1.59-.78,2.46-.78.69,0,1.29.13,1.94.45q.39.2,1.36.83c1.14.74,1.94,1.05,2.66,1.05.31,0,.75-.12,1.11-.29.64-.33,1.03-.66,1.56-1.37l1.2,1.2c-.62.78-.93,1.09-1.42,1.46-.77.57-1.62.85-2.6.85-.45,0-.92-.08-1.32-.21-.58-.2-.89-.35-2.06-1.11-1.32-.84-1.78-1.02-2.58-1.02-.98,0-1.67.36-2.61,1.38l-1.18-1.11Z"/>
      </g>
      <circle class="cls-11" cx="31.42" cy="60.58" r="30"/>
      <g>
        <path class="cls-7" d="M40.68,50.7c5.99-4.82,10.66-4.4,11.63-2.77.89,1.5-.2,9.39-9.12,4.98"/>
        <path class="cls-4" d="M44.92,53.28c2.15-3.7,6.52-2.97,7.65-2.44-1.95,3.62-3.96,4.96-7.65,2.44Z"/>
        <path class="cls-1" d="M47.91,54.85c-1.31,0-2.95-.38-4.99-1.39-.3-.15-.43-.52-.28-.82.15-.3.52-.42.82-.28,3.32,1.64,5.84,1.68,7.3.12,1.3-1.4,1.35-3.69,1.02-4.24-.21-.35-.72-.62-1.4-.75-.91-.17-4.28-.39-9.33,3.68-.26.21-.65.17-.86-.09-.21-.26-.17-.65.09-.86,3.68-2.96,7.54-4.43,10.31-3.93,1.04.19,1.83.66,2.23,1.32.64,1.09.43,3.95-1.18,5.69-.75.81-1.93,1.54-3.74,1.54Z"/>
        <path class="cls-7" d="M46.17,64.93c1.64-16.83-17.12-22.81-25.65-13.47-2.98,3.26-5.19,9.03-4.06,15.78-3.29,3.25-2.73,7.92,2.42,10.47,3.1,1.53,6.2,2.2,13.34,2.2,6.63,0,14.3-2.8,16.45-6.94,1.2-2.31.78-5.73-2.5-8.03Z"/>
        <path class="cls-2" d="M35.94,47.29c-.6-4.19-4.15-6.53-4.34-.47"/>
        <path class="cls-2" d="M24.25,48.36c-.51-4.21,2.31-7.38,4.07-1.58"/>
        <path class="cls-7" d="M19.79,51.42c-6.66-3.83-11.22-2.69-11.92-.92-.65,1.62,2.36,9.82,10.47,4.08"/>
        <path class="cls-4" d="M16.52,55.23c-2.15-3.7-7.04-2.78-8.16-2.25,1.95,3.62,4.48,4.77,8.16,2.25Z"/>
        <path class="cls-4" d="M29.35,46.81c1.23,7.47-2.33,14.46-12.54,14.46,0-11.43,12.54-14.46,12.54-14.46Z"/>
        <path class="cls-4" d="M31.6,46.82c0,8.41,6.81,12.73,13.85,13.26,0-11.43-13.85-13.26-13.85-13.26Z"/>
        <path class="cls-4" d="M15.37,73.7c13.82-6.39,25.47-3.61,33.3-.74-3.13,7.58-29.27,10.16-33.3.74Z"/>
        <path class="cls-1" d="M32.21,80.51c-7.6,0-10.65-.79-13.61-2.26-2.69-1.33-4.37-3.31-4.74-5.59-.32-1.98.37-3.97,1.94-5.63-1.1-7.14,1.47-12.92,4.26-15.98,4.25-4.65,11.26-5.93,17.43-3.18,3.01,1.34,5.47,3.51,7.11,6.28,1.79,3.02,2.53,6.55,2.2,10.5,3.38,2.57,3.64,6.23,2.4,8.6-2.36,4.55-10.5,7.26-17,7.26ZM30.83,47.65c-3.76,0-7.35,1.46-9.87,4.22-2.64,2.89-5.06,8.42-3.91,15.27.03.2-.03.39-.17.53-1.44,1.42-2.08,3.13-1.81,4.8.3,1.88,1.75,3.55,4.07,4.69,2.8,1.38,5.72,2.13,13.07,2.13,6.88,0,14.02-2.96,15.91-6.61,1.03-1.99.75-5.1-2.31-7.25-.18-.13-.28-.34-.26-.56.71-7.25-2.5-13.19-8.57-15.9-2.01-.89-4.11-1.33-6.16-1.33Z"/>
        <path class="cls-1" d="M13.13,57.21c-1.46,0-2.58-.54-3.4-1.18-2.09-1.64-2.9-4.58-2.44-5.76.29-.72.99-1.31,1.99-1.65,2.66-.93,6.7-.08,10.8,2.27.29.17.39.54.23.83-.17.29-.54.39-.83.23-5.62-3.23-8.91-2.49-9.79-2.18-.65.23-1.11.57-1.26.95-.21.53.31,2.97,2.06,4.35,1.89,1.49,4.48,1.14,7.5-.99.27-.19.65-.13.85.15.19.27.13.66-.15.85-2.23,1.58-4.07,2.14-5.56,2.14Z"/>
        <path class="cls-1" d="M35.94,47.9c-.3,0-.56-.22-.6-.52-.32-2.23-1.49-3.66-2.13-3.63-.31.02-.93.69-1,3.09-.01.34-.3.6-.63.59-.34-.01-.6-.29-.59-.63.11-3.62,1.4-4.23,2.15-4.27.03,0,.06,0,.09,0,1.46,0,2.94,2.06,3.31,4.67.05.33-.18.64-.52.69-.03,0-.06,0-.09,0Z"/>
        <path class="cls-1" d="M24.25,48.97c-.3,0-.57-.23-.6-.54-.32-2.67.61-5.08,2.07-5.39.74-.15,2.14.1,3.19,3.56.1.32-.08.66-.41.76-.32.1-.66-.08-.76-.41-.7-2.3-1.46-2.79-1.77-2.72-.62.13-1.38,1.81-1.11,4.05.04.33-.2.64-.53.68-.02,0-.05,0-.07,0Z"/>
        <path class="cls-1" d="M37.18,58.81c-.65-1.09-1.64-1.26-2.42-.7-.18.13-.11.42.12.44.71.07,1.33.3,1.99.61.22.1.44-.14.31-.35Z"/>
        <path class="cls-1" d="M26.21,59.01c.65-1.09,1.64-1.26,2.42-.7.18.13.11.42-.12.44-.71.07-1.33.3-1.99.61-.22.1-.44-.14-.31-.35Z"/>
        <circle class="cls-1" cx="33.06" cy="72.82" r=".57"/>
        <circle class="cls-1" cx="31.28" cy="72.82" r=".57"/>
        <path class="cls-1" d="M31.39,77.02c-.58,0-1.17-.13-1.74-.4-1.05-.5-1.76-1.38-1.96-2.34l-.5.2c-.32.13-.68-.02-.8-.34-.13-.32.02-.68.34-.8l1.32-.53c.21-.08.44-.05.62.09.17.14.26.36.22.59-.16.89.54,1.66,1.3,2.02.9.43,2.24.48,3.27-.69.23-.26.62-.28.87-.05.26.23.28.62.05.87-.81.91-1.88,1.39-2.99,1.39Z"/>
        <ellipse class="cls-1" cx="35.85" cy="67.36" rx="1.44" ry="1.56" transform="translate(-10.04 6.4) rotate(-8.95)"/>
        <ellipse class="cls-1" cx="28.18" cy="67.72" rx="1.56" ry="1.44" transform="translate(-40.87 92.44) rotate(-87.1)"/>
      </g>
      <g>
        <path class="cls-1" d="M325.21,179.77c1.81.14,1.23,2.13.34,3.29-.19.24-.54.27-.77.08-1.57-1.34-1.02-3.48.43-3.36Z"/>
        <path class="cls-1" d="M325.11,180.56c-.31,0-.57-.25-.57-.57v-3.57l-.9-1.25c-.18-.25-.12-.61.13-.79.25-.18.61-.12.79.13l1,1.4c.07.1.11.21.11.33v3.75c0,.31-.25.57-.57.57Z"/>
        <polygon class="cls-5" points="322.27 170.84 316.14 170.26 318.87 175.77 325.11 176.44 322.27 170.84"/>
        <rect class="cls-5" x="315.56" y="173.94" width="6.67" height="2.9" transform="translate(178.24 -160.28) rotate(38.45)"/>
        <path class="cls-1" d="M320.63,179.62c-.12,0-.25-.04-.35-.12-.25-.19-.29-.55-.09-.8l2.25-2.85c.12-.15.31-.23.51-.21l1.19.13-2.23-4.39-4.8-.45.7,1.41c.1.19.07.42-.06.59l-1.81,2.4c-.19.25-.54.3-.79.11-.25-.19-.3-.54-.11-.79l1.6-2.12-.99-2.01c-.09-.18-.08-.4.04-.57.12-.17.31-.27.52-.24l6.12.57c.19.02.37.13.45.31l2.84,5.6c.09.19.08.41-.04.58-.12.17-.32.26-.53.24l-1.92-.2-2.06,2.61c-.11.14-.28.22-.45.22Z"/>
        <path class="cls-6" d="M316.59,202.58l4.18-1.62,2.02-5.47-.29-8.15-2.24-7.54-3.74-4.67-5.59-1.9-5.52-.3-7.14,3.84-3.23,5.74-3.98,4.71-1.8,4.98,1.36,4.52,9.81,4.92c2.84,1.15,12.97,1.45,16.17.94Z"/>
        <path class="cls-12" d="M289.68,188.92c4.88.32,7.71,5.48,5.9,11.02-4.77-2.59-7.43-5.23-5.9-11.02Z"/>
        <path class="cls-12" d="M322.86,192.68c-5.64-.78-9.96,4.07-9.08,10.38,5.99-1.67,9.58-3.87,9.08-10.38Z"/>
        <path class="cls-1" d="M301.16,181.82c1.6-.65,3.04-.03,3.72,1.21.16.29-.14.55-.45.39-1.01-.51-1.99-.76-3.07-.96-.36-.07-.49-.51-.19-.64Z"/>
        <path class="cls-1" d="M313.87,184.26c-1.18-1.26-2.75-1.29-3.88-.44-.27.2-.1.55.25.54,1.13-.04,2.13.14,3.2.4.36.09.66-.26.44-.5Z"/>
        <path class="cls-1" d="M309.87,193.3c-.14,0-.27-.05-.39-.14-.25-.21-.29-.59-.07-.85.68-.81,1.51-1.23,2.34-1.19.75.04,1.43.46,1.93,1.18.19.27.12.65-.15.84-.27.19-.65.12-.84-.15-.2-.29-.53-.64-1-.66-.44-.02-.92.25-1.36.77-.12.14-.29.21-.46.21Z"/>
        <path class="cls-1" d="M302.42,192.04c-.19,0-.37-.09-.49-.25-.37-.52-.72-.8-1-.81,0,0,0,0-.02,0-.33,0-.68.34-.92.64-.21.26-.59.29-.85.08-.26-.21-.29-.59-.08-.85.6-.74,1.23-1.1,1.9-1.08.7.02,1.33.45,1.94,1.31.19.27.13.65-.14.84-.11.08-.23.11-.35.11Z"/>
        <path class="cls-1" d="M312.64,203.63c-.31,0-.56-.25-.57-.56,0-.31.24-.57.56-.58,3.72-.08,6.39-.95,7.93-2.58,1.98-2.1,1.87-5.19,1.79-7.45l-.02-.46c-.13-4.27-1.4-18.26-12.21-18.99-9.16-.62-12.59,5.21-14.85,9.07-.46.78-.86,1.46-1.24,1.98-.11.15-.23.31-.37.48-1.58,2.06-4.51,5.88-3.4,9.55.8,2.64,3.61,4.79,8.34,6.41,1.43.49,2.87.87,4.3,1.14.31.06.51.35.45.66s-.36.51-.66.45c-1.48-.28-2.97-.67-4.45-1.18-5.1-1.74-8.15-4.15-9.07-7.16-1.28-4.23,2.01-8.51,3.59-10.57.13-.17.25-.33.36-.47.35-.47.73-1.12,1.17-1.87,2.26-3.85,6.04-10.29,15.91-9.63,5.1.34,8.83,3.35,11.1,8.93,1.72,4.24,2.1,8.81,2.17,11.16l.02.46c.09,2.46.21,5.83-2.1,8.27-1.78,1.89-4.64,2.85-8.73,2.94,0,0,0,0-.01,0Z"/>
        <path class="cls-1" d="M300.76,190.73c-.06,0-.12-.02-.18-.06-.75-.6-1.14-1.21-1.43-2.27-.04-.15.05-.31.2-.35.15-.04.31.05.35.2.29,1.07.66,1.52,1.23,1.97.12.1.14.28.05.4-.06.07-.14.11-.22.11Z"/>
        <path class="cls-1" d="M312.75,192.26c-.14,0-.26-.1-.28-.25-.02-.16.09-.3.24-.32.67-.09,1.43-.66,1.87-1.39.08-.13.25-.18.39-.1.13.08.18.25.1.39-.52.88-1.44,1.55-2.28,1.67-.01,0-.03,0-.04,0Z"/>
        <path class="cls-1" d="M314.09,192.8c-.37,0-.75-.07-1.12-.24-.14-.07-.21-.23-.14-.38.07-.14.23-.2.38-.14.86.39,1.83.09,2.49-.24.14-.07.31-.01.38.13.07.14.01.31-.13.38-.5.25-1.16.48-1.86.48Z"/>
        <path class="cls-1" d="M299.89,190.73c-.8,0-1.66-.46-2.34-1.26-.1-.12-.09-.3.03-.4.12-.1.3-.09.4.03.62.73,1.4,1.13,2.07,1.05.16-.02.3.09.31.25.02.16-.09.3-.25.31-.07,0-.15.01-.22.01Z"/>
        <g>
          <path class="cls-3" d="M310.06,196.46c-.67-1.83-3.64-3.8-5.16-3.59-1.51.21-4.7,2.06-5.7,2-.99-.06-1.68-.73-1.8,1.59s1.7,3.51,4.13,2.66c3.37,1.92,9.68.49,8.53-2.66Z"/>
          <path class="cls-3" d="M310.06,198.84c-.75,3.68-4.93,5.84-6.2,5.3s-2.85-1.42-1.47-4.62c2.5.53,6.91-.12,7.03-1.63s.63.96.63.96Z"/>
          <path class="cls-10" d="M303.64,199.84c-.73,1.35-.38,3.07,1.83,1.99,2.21-1.08,2.21-2.29,2.21-2.29,0,0,1.45-.73-.48,0-1.94.73-3.55.3-3.55.3Z"/>
          <path class="cls-1" d="M305.14,200.55c-1.06,0-2.19-.33-3.37-.99-2.29.66-3.56.04-4.23-.6-.84-.81-1.16-2.1-.83-3.37.34-1.28.9-1.38,1.8-1.41.65-.02,1.63-.04,3.22-.88,3.52-1.85,5.58-.79,7.59,1.38.19.2.18.52-.03.7-.2.19-.52.18-.7-.03-1.79-1.93-3.42-2.74-6.4-1.17-1.8.95-2.92.97-3.66.99-.69.02-.69.03-.86.67-.24.91-.02,1.85.55,2.4.71.68,1.91.79,3.46.3.13-.04.28-.02.4.05,1.93,1.13,4.69,1.81,6.88-1.38.13-.19.38-.27.6-.18,0,0,.72.29,1.36.43.27.06.44.32.38.59-.06.27-.33.44-.59.38-.42-.09-.85-.24-1.15-.34-1.22,1.63-2.73,2.45-4.41,2.45Z"/>
          <path class="cls-1" d="M304.44,204.69c-.6,0-1.18-.14-1.7-.42-.85-.46-1.39-1.1-1.6-1.92-.43-1.62.6-3.29.65-3.36.15-.23.45-.3.68-.16.23.15.3.45.16.68,0,.01-.85,1.39-.53,2.59.15.55.51.97,1.11,1.3.86.46,1.92.39,3-.19,1.51-.82,3.14-2.8,3.35-5.36.02-.27.26-.48.54-.45.27.02.48.26.45.54-.21,2.58-1.73,4.99-3.86,6.15-.76.41-1.52.62-2.25.62Z"/>
        </g>
      </g>
    </g>
  </g>
</svg>