<?xml version="1.0" encoding="UTF-8"?>
<svg id="_レイヤー_2" data-name="レイヤー 2" xmlns="http://www.w3.org/2000/svg" width="339.66" height="239.57" viewBox="0 0 339.66 239.57">
  <defs>
    <style>
      .cls-1 {
        fill: #211815;
      }

      .cls-2 {
        fill: #f5f19b;
      }

      .cls-3 {
        fill: #e0a99c;
      }

      .cls-4 {
        fill: #ecbb6e;
      }

      .cls-5 {
        fill: #93c9ce;
      }

      .cls-6 {
        fill: #5c948d;
      }

      .cls-7 {
        fill: #fffba1;
      }

      .cls-8, .cls-9 {
        fill: #fff;
      }

      .cls-10 {
        fill: #def7c8;
      }

      .cls-11 {
        fill: #de8a4c;
      }

      .cls-12 {
        fill: #ceeaeb;
      }

      .cls-13 {
        fill: #f2d496;
      }

      .cls-9 {
        stroke: #ceeaeb;
        stroke-miterlimit: 10;
        stroke-width: 2.83px;
      }
    </style>
  </defs>
  <g id="_レイヤー_1-2" data-name="レイヤー 1">
    <g>
      <path class="cls-9" d="M9.89,130.04h239.38c4.68,0,8.47,3.79,8.47,8.47v66.99s9.69,9.69,9.69,9.69h-9.69s0,.5,0,.5c0,4.68-3.79,8.47-8.47,8.47H9.89c-4.68,0-8.47-3.79-8.47-8.47v-77.18c0-4.68,3.79-8.47,8.47-8.47Z"/>
      <g>
        <path d="M18.4,149.37c-.69.04-1.33.06-1.91.06-.63,0-.67,0-.71-.09-.04-.09-.09-.72-.09-1.16v-.28c.71.03,1,.04,1.38.04s.95-.02,1.4-.03c.07-.87.09-1.17.09-1.47,0-.14,0-.23-.02-.44.72.02,1.28.06,1.71.17.12.03.18.09.18.19,0,.08-.02.14-.09.31-.12.29-.21.68-.27,1.14.96-.08,2.12-.23,2.58-.33.45-.1.76-.17.84-.17.32-.03.54-.09.63-.17.02-.01.03-.01.03-.01.03,0,.04.01.08.01.06,0,.1.06.13.17.03.23.08.75.08,1.08,0,.23-.04.29-.2.31-.88.18-2.71.4-4.29.54-.01.06-.01.09-.01.24-.03.29-.03.32-.04,1.07.66-.15,1.25-.23,1.98-.23.11-.48.12-.6.15-.95,1.16.24,1.72.45,1.72.63,0,.06-.01.1-.13.3-.04.06-.08.1-.11.21,1.94.45,3.17,1.88,3.17,3.72,0,1.64-.88,2.94-2.58,3.84-.63.33-1.51.63-1.84.63-.17,0-.29-.06-.38-.18-.31-.45-.51-.66-.99-1.06,1.56-.29,2.32-.6,3.07-1.21.69-.58,1.02-1.26,1.02-2.1,0-1.2-.71-2.1-1.91-2.44-.9,2.07-1.5,3.04-2.58,4.15.08.25.13.4.27.72.06.12.07.17.07.21,0,.15-.06.2-.4.38-.38.2-.81.35-.96.35-.13,0-.17-.04-.33-.51-.87.61-1.8.94-2.71.94-1.02,0-1.71-.83-1.71-2.02,0-1.88,1.37-3.71,3.63-4.83.01-.78.03-1.44.04-1.74ZM16.29,155.67c0,.38.23.6.6.6.51,0,1.18-.29,1.86-.78-.21-1.02-.3-1.71-.38-2.83-1.32.98-2.08,2.1-2.08,3.02ZM21.54,151.53c-.67.06-1.04.12-1.65.33.03,1.06.06,1.52.18,2.28.63-.8,1.05-1.54,1.47-2.61Z"/>
        <path d="M37.09,151.31c2.05,0,3.39,1.21,3.39,3.06s-1.12,3.02-3.37,3.73c-.81.26-2.15.5-2.75.5-.32,0-.39-.08-.6-.51-.16-.35-.34-.56-.79-.87,3.77-.3,5.62-1.26,5.62-2.9,0-.92-.64-1.46-1.72-1.46-1.37,0-2.78.71-3.93,1.95-.21.21-.41.46-.54.69s-.23.3-.36.3c-.22,0-.75-.22-1.11-.49-.18-.14-.24-.24-.24-.48q0-.12.04-.48s0-.15.01-.31c.08-.96.12-1.37.3-2.72q.03-.16.14-.87s.04-.33.12-.89c.01-.13.03-.25.03-.49.72.1,1.4.27,1.68.43.12.06.18.14.16.23,0,.06-.03.1-.07.2-.17.25-.21.39-.35.96-.13.57-.34,1.89-.38,2.38,1.53-1.41,2.87-1.96,4.71-1.96ZM36.82,147.03c.58.34.76.51.76.67,0,.14-.24.58-.5.96-.24.35-.33.42-.45.42-.07,0-.12-.03-.3-.17-1-.76-1.8-1.2-2.92-1.59-.22-.09-.27-.12-.27-.24,0-.15.12-.41.39-.79.24-.36.34-.45.51-.45.36,0,1.83.63,2.78,1.19Z"/>
        <path d="M43.48,155.15c.27-.24.34-.3.45-.3.19,0,1.09.66,1.75,1.29.75.69,1.59,1.69,1.59,1.9,0,.14-.03.17-.46.56-.57.52-.69.62-.79.62-.09,0-.18-.06-.25-.21-.53-.93-1.73-2.16-2.79-2.85-.12-.09-.18-.15-.18-.24,0-.1.03-.15.69-.76Z"/>
        <path d="M58.56,148.88c0-.44-.02-1.02-.04-1.35.69.07,1.2.18,1.6.33.36.14.48.23.48.39q0,.09-.06.24c-.2.51-.25,1.08-.25,2.44,0,1.92.12,3.12.42,4.03.22.71.57,1.11.97,1.11.62,0,1.12-.72,1.68-2.38.28.77.39.99.81,1.53.08.1.12.21.12.31,0,.24-.22.75-.53,1.19-.58.85-1.33,1.32-2.13,1.32-1.15,0-2.02-.93-2.56-2.77-.34-1.2-.51-2.71-.51-4.81v-1.58ZM67.48,149.12c.09,0,.17.04.29.15.75.72,1.53,1.92,2.03,3.09.33.79.64,1.86.64,2.17,0,.15-.08.23-.39.39-.34.18-1.05.42-1.23.42-.13,0-.19-.08-.24-.34-.2-1.16-.46-2-.93-2.97-.42-.87-.45-.92-1.47-2.17.63-.46,1.12-.73,1.3-.73Z"/>
        <path d="M73.02,148.88c0-.44-.02-1.02-.04-1.35.69.07,1.2.18,1.6.33.36.14.48.23.48.39q0,.09-.06.24c-.2.51-.25,1.08-.25,2.44,0,1.92.12,3.12.42,4.03.22.71.57,1.11.97,1.11.62,0,1.12-.72,1.68-2.38.28.77.39.99.81,1.53.08.1.12.21.12.31,0,.24-.22.75-.53,1.19-.58.85-1.33,1.32-2.13,1.32-1.15,0-2.02-.93-2.56-2.77-.34-1.2-.51-2.71-.51-4.81v-1.58ZM81.94,149.12c.09,0,.17.04.29.15.75.72,1.53,1.92,2.03,3.09.33.79.64,1.86.64,2.17,0,.15-.08.23-.39.39-.34.18-1.05.42-1.23.42-.13,0-.19-.08-.24-.34-.2-1.16-.46-2-.93-2.97-.42-.87-.45-.92-1.47-2.17.63-.46,1.12-.73,1.3-.73Z"/>
        <path d="M91.02,150.72c-.19-.66-.25-1.06-.43-2.91-.06-.72-.12-1.08-.27-1.59.91.02,1.5.06,1.9.17.23.06.33.17.33.33,0,.06-.01.13-.04.25-.1.36-.15.63-.15,1.02,0,.73.15,1.94.32,2.46.09.28.18.39.34.39.36,0,1.68-.69,2.4-1.24.19-.15.22-.17.3-.17.13,0,.27.1.5.39.38.51.67,1.06.67,1.27,0,.17-.11.27-.36.34-.93.25-2.46.85-3.49,1.35-1.83.9-2.66,1.73-2.66,2.65s.76,1.29,2.7,1.29c1.12,0,2.14-.1,3.52-.33.06-.02.17-.03.2-.03.12,0,.19.06.25.18.04.15.15,1.06.15,1.43,0,.21-.06.28-.26.34-.33.08-2.14.18-3.28.18-1.92,0-3.2-.25-3.99-.79-.67-.47-1.04-1.2-1.04-2.1,0-.69.2-1.31.6-1.9.52-.78,1.09-1.27,2.35-2.02-.31-.29-.43-.5-.57-.96Z"/>
        <path d="M108.07,156.05c1.23,0,2.59-.18,3.94-.52.08-.03.12-.03.17-.03.09,0,.13.06.17.2.04.33.08.81.08,1.3,0,.3-.03.39-.17.45-.45.24-2.47.46-4.21.46-2.26,0-3.55-.38-4.59-1.35-.5-.46-.99-1.27-.99-1.6,0-.22.13-.31,1.37-1.02.54,1.49,1.79,2.12,4.25,2.12ZM108.21,147.43c.87,0,1.38-.03,2.4-.18h.11c.12,0,.17.04.2.13.03.18.06.63.06,1.17,0,.35-.03.47-.12.53-.12.07-1.42.17-2.43.17-1.33,0-2.45-.11-3.69-.35-.85-.17-.9-.21-.9-.73,0-.35.03-.92.08-1.33,1.3.4,2.73.6,4.3.6Z"/>
        <path d="M121.89,151.29c.58-.24,1.37-.39,1.91-.39,2.29,0,3.79,1.32,3.79,3.31,0,1.37-.71,2.59-1.91,3.36-.97.6-2.77,1.06-4.2,1.06q-.45,0-.58-.4c-.12-.36-.36-.73-.66-1.04,2.05-.12,2.7-.23,3.64-.65,1.25-.52,1.89-1.35,1.89-2.37,0-1.14-.83-1.92-2.05-1.92-1.62,0-3.51.9-5.13,2.44-.22.23-.34.34-.85.96-.14.18-.24.24-.33.24-.27,0-1.23-1.08-1.23-1.39,0-.09.03-.14.25-.33,1.08-.95,3.78-3.81,5.7-6.06-1.49.18-2.76.41-3.33.6-.27.1-.34.12-.41.12-.13,0-.19-.08-.28-.35-.15-.4-.27-1-.33-1.59.19.03.34.04.58.04,1.46,0,4.56-.36,5.08-.6.18-.08.24-.09.33-.09.26,0,.54.23.96.75.27.31.38.5.38.6,0,.15-.09.25-.31.38-.2.12-.34.23-.55.4-.33.26-.45.38-1.5,1.4q-1.37,1.33-2.38,2.29c.81-.48,1.15-.66,1.53-.79Z"/>
        <path d="M133.98,154.61c.04.07.06.13.06.21,0,.1-.02.12-.15.45-.3.69-.66,1.77-.84,2.58-.04.17-.09.25-.15.29-.08.03-.59.1-.75.1h-.06c-.08,0-.18-.02-.3-.02-.2,0-.24-.04-.3-.23-.29-.97-.51-2.98-.51-4.5,0-1.65.1-2.67.52-4.92.15-.81.22-1.26.29-1.75.63.12,1.17.27,1.62.48.25.1.33.18.33.33,0,.1-.02.15-.18.39-.5.79-1.05,3.98-1.05,6.12,0,.34.02.81.06,1.56.42-.94.57-1.23.92-1.96.13.31.22.46.49.87ZM137.23,155.67c.48.25,1.05.34,2.06.34s1.53-.07,2.46-.34c.09-.03.16-.04.21-.04.1,0,.18.06.19.21.08.51.13,1.11.13,1.41,0,.15-.04.2-.25.26-.81.21-1.63.31-2.64.31-1.38,0-2.23-.17-2.94-.58-.66-.41-1.35-1.23-1.35-1.64,0-.21.32-.49,1.12-.99.27.54.53.81,1,1.06ZM136.18,148.02c.33.08,1.29.14,2.03.14.99,0,1.98-.08,2.91-.24q.08-.01.14-.01c.1,0,.15.04.18.16.03.15.08.81.08,1.22,0,.22-.04.3-.21.33-.62.12-1.63.19-2.71.19-1.29,0-2.45-.08-2.59-.17-.08-.04-.11-.15-.11-.42,0-.41.04-1,.08-1.12.01-.06.06-.09.15-.09.02,0,.04,0,.08.01Z"/>
        <path d="M147.49,148.22c-.58.88-1.28,1.68-2.15,2.5-.38-.48-.67-.77-1.12-1.12,1.22-1.08,2.01-2.06,2.61-3.25.18-.36.27-.6.31-.9l1.73.25c-.04.08-.21.4-.51,1h6.64c.79,0,1.3-.03,1.8-.09v1.68c-.46-.04-1.05-.07-1.8-.07h-7.51ZM152.31,158.6c-.87-.85-1.5-1.42-2.49-2.22-1.14.96-2.1,1.56-4.17,2.59-.29-.51-.5-.78-1.08-1.36,1.95-.83,2.94-1.37,3.99-2.19-.84-.62-1.38-.96-2.5-1.64l1.05-.96c1.07.6,1.4.81,2.55,1.59.68-.71,1.08-1.31,1.25-1.85l1.54.73c-.15.18-.3.38-.61.81-.35.48-.57.78-.95,1.2.87.66,1.6,1.27,2.5,2.08l-1.08,1.2ZM146.73,152.4c-.73,0-1.23.03-1.65.08v-1.5c.3.06.66.07,1.25.07h7.32c.97,0,1.21-.01,1.67-.06-.04.45-.06.85-.06,1.33,0,1.48.13,2.76.4,3.67.17.55.25.75.5.97.2-.27.32-.94.34-2.13.48.44.75.63,1.23.87-.23,2.27-.66,3.18-1.54,3.18-.65,0-1.38-.76-1.79-1.84-.45-1.19-.63-2.5-.66-4.65h-7ZM147.07,148.88c.18.03.64.04,1.08.04h6.03c.74,0,1.2-.03,1.53-.07v1.44c-.41-.06-.79-.08-1.53-.08h-5.73c-.6,0-.99.02-1.38.06v-1.4Z"/>
        <path d="M161.7,149.09c2.52-.7,3.78-.93,5.19-.93,1.51,0,2.7.4,3.5,1.19.66.67,1.02,1.6,1.02,2.7,0,1.92-1.04,3.55-2.83,4.47-.96.5-1.93.83-3.27,1.08-.58.12-.88.17-1.11.17-.18,0-.27-.06-.36-.23-.35-.71-.48-.9-.93-1.38,2.24-.27,3.45-.57,4.62-1.15,1.28-.63,1.98-1.67,1.98-2.93,0-1.41-.96-2.32-2.43-2.32-1.78,0-3.76.51-6.04,1.57-.4.18-.61.29-.76.38-.27.15-.34.18-.43.18-.29,0-.79-.92-1.14-2.08.69-.09,1.38-.24,3.02-.71ZM170.65,148.39c-.15.12-.22.16-.3.16q-.09,0-.39-.4c-.29-.39-.58-.72-1.07-1.14-.04-.04-.08-.1-.08-.15,0-.13.6-.63.78-.63.11,0,.53.35,1,.84.42.44.55.62.55.72,0,.12-.15.3-.51.6ZM171.6,147.23c-.33-.48-.75-.94-1.2-1.33-.06-.04-.08-.07-.08-.13,0-.14.57-.58.74-.58.13,0,.43.23.83.61.5.51.71.78.71.89s-.03.15-.21.31c-.24.21-.51.4-.58.4-.05,0-.12-.04-.2-.17Z"/>
        <path d="M174.24,148.88c0-.44-.02-1.02-.04-1.35.69.07,1.2.18,1.6.33.36.14.48.23.48.39q0,.09-.06.24c-.2.51-.25,1.08-.25,2.44,0,1.92.12,3.12.42,4.03.22.71.57,1.11.97,1.11.62,0,1.12-.72,1.68-2.38.28.77.39.99.81,1.53.08.1.12.21.12.31,0,.24-.22.75-.53,1.19-.58.85-1.33,1.32-2.13,1.32-1.15,0-2.02-.93-2.56-2.77-.34-1.2-.51-2.71-.51-4.81v-1.58ZM183.16,149.12c.09,0,.17.04.29.15.75.72,1.53,1.92,2.03,3.09.33.79.64,1.86.64,2.17,0,.15-.08.23-.39.39-.34.18-1.05.42-1.23.42-.13,0-.19-.08-.24-.34-.2-1.16-.46-2-.93-2.97-.42-.87-.45-.92-1.47-2.17.63-.46,1.12-.73,1.3-.73Z"/>
        <path d="M188.83,150.53h-.09c-.08.02-.14.02-.17.02-.13,0-.21-.06-.25-.25-.09-.38-.15-.84-.18-1.41.21.02.38.02.48.02.81,0,1.75-.06,2.55-.17.15-.99.22-1.75.22-2.37v-.35c1.74.23,2.07.33,2.06.6,0,.07-.03.12-.09.25-.18.34-.19.39-.43,1.57.58-.1,1.33-.3,1.63-.4.06-.03.08-.03.12-.03.13,0,.17.06.29.58.06.3.12.72.12.84,0,.1-.04.17-.18.19q-.27.09-2.32.45c-.69,3.04-1.41,5.29-2.57,7.99-.08.19-.15.27-.24.27-.2,0-.72-.21-1.23-.5-.25-.13-.33-.21-.33-.29,0-.06.04-.16.12-.31,1.14-2.16,1.96-4.45,2.54-6.93-.66.09-1.12.14-2.04.21ZM195.24,156.23c.44.29,1.07.42,1.95.42.97,0,1.82-.09,2.29-.24.12-.03.15-.04.21-.04.13,0,.2.04.24.18.1.31.18.93.18,1.39,0,.2-.06.27-.25.32-.5.1-1.33.16-2.22.16-1.88,0-2.92-.3-3.62-1.02-.25-.27-.46-.62-.58-.99-.09-.21-.15-.46-.15-.56,0-.25.45-.52,1.23-.78.17.63.34.9.72,1.15ZM199.45,151.86c-.3-.04-.93-.07-1.46-.07-1.11,0-1.57.04-2.89.27-.03.01-.08.01-.1.01-.09,0-.14-.03-.17-.12-.04-.1-.11-.84-.11-1.16,0-.19.03-.28.15-.33.06-.03.15-.04.46-.1,1.02-.18,1.88-.25,2.92-.25.87,0,1.32.03,1.42.1.08.06.09.18.09.68,0,.43-.03.82-.06.91-.02.05-.08.08-.15.08-.03,0-.08,0-.12-.02Z"/>
        <path d="M205.25,156.41q0-1.63.01-2.34c-.75.82-1.26,1.48-1.51,1.95-.08.15-.18.24-.27.24-.15,0-.51-.31-.99-.85-.19-.24-.28-.38-.28-.44q0-.1.76-.85c.64-.65,1.51-1.67,2.33-2.74,0-.09,0-.44.01-1.04-.74.13-1.68.39-1.93.52-.15.08-.18.09-.25.09-.26,0-.47-.58-.66-1.75.79-.01,1.79-.12,2.88-.3,0-.54.01-1.31.01-1.73,0-.45-.03-.81-.09-1.11.95.06,1.41.12,1.83.23.22.06.31.15.31.31,0,.08-.03.15-.09.3-.15.3-.17.41-.29,1.59.36.22.71.6.71.79q0,.13-.46.7c-.04.06-.18.26-.41.54q-.01.48-.01.58c1.47-1.24,2.71-1.77,4.18-1.77,2.34,0,3.81,1.48,3.81,3.87,0,1.83-.84,3.19-2.57,4.12-.66.38-1.79.78-2.12.78-.09,0-.19-.03-.24-.09t-.23-.3c-.25-.36-.54-.65-.84-.85,2.99-.81,4.17-1.86,4.17-3.7,0-1.44-.85-2.37-2.21-2.37-.88,0-1.69.29-2.65.92q-.48.31-1.33,1.04.01.12.01.31c0,1.6,0,1.74.09,4.89.02.17.02.29.02.31,0,.29-.21.35-1.31.35-.39,0-.42-.04-.42-.47l.02-1.74Z"/>
        <path d="M219.4,150.3c-1.06.18-1.3.22-1.56.3-.15.04-.27.06-.36.06-.27,0-.4-.48-.46-1.65.87,0,1.35-.04,2.42-.24,0-.48.01-1.03.01-1.23,0-.58-.03-1.09-.09-1.47,1.58.07,2.04.18,2.04.46q0,.08-.13.39t-.2,1.62c.48.38.74.68.72.87,0,.04-.03.08-.09.14-.22.19-.25.22-.52.61q-.06.08-.15.19l-.06.09c0,.23,0,.25-.02.54.45-.51.87-.93,1.28-1.26,1.32-1.08,2.31-1.53,3.39-1.53s1.77.44,2.29,1.33c.45.78.69,1.88.69,3.17,0,.78-.06,1.38-.23,2.5.72.51,1.5,1.3,1.5,1.51,0,.24-.84,1.08-1.09,1.08-.1,0-.12-.02-.32-.31-.12-.17-.28-.36-.61-.72-.21.39-.33.56-.54.75-.55.51-1.3.78-2.19.78-1.56,0-2.56-.79-2.56-2,0-1.27,1.04-2.23,2.4-2.23.78,0,1.35.1,1.86.33.06-.56.08-.83.08-1.31,0-2.37-.45-3.3-1.59-3.3-.81,0-1.89.57-3.03,1.59-.41.38-.72.69-1.37,1.4v.87c0,1.99.04,4,.11,4.53v.06c0,.27-.21.34-.93.34-.66,0-.79-.06-.79-.34v-.12c.03-.44.04-.96.04-1.62q0-.99.01-2.17s-.03.04-.06.08c-.33.4-.87,1.14-1.22,1.63-.17.24-.25.31-.36.31-.15,0-.42-.27-.88-.87-.18-.23-.29-.42-.29-.5s.08-.17.45-.5c.27-.25,1.29-1.5,1.81-2.19.27-.38.46-.65.58-.84v-1.15ZM225.15,155.45c-.69,0-1.11.29-1.11.75s.32.69.89.69c.5,0,.9-.15,1.17-.45.13-.14.34-.51.34-.57v-.02c-.51-.31-.81-.4-1.29-.4Z"/>
        <path d="M238.86,157.44c0,.66-.52,1.18-1.18,1.18s-1.19-.52-1.19-1.18.53-1.19,1.19-1.19,1.18.52,1.18,1.19ZM238.33,155.22h-1.33l-.41-8.98h2.16l-.42,8.98Z"/>
        <path d="M17.22,176.27c-.66,0-1.04.02-1.35.06v-.77h-1.33c.04-.33.06-.58.06-1.06v-1.07c0-.39-.02-.71-.06-1.08.46.04.88.06,1.59.06h3.75v-.33c0-.34-.01-.58-.08-.9h1.75c-.06.29-.07.53-.07.9v.33h3.96c.71,0,1.11-.01,1.59-.06-.05.36-.06.66-.06,1.05v1.09c0,.43.01.74.06,1.06h-1.32v.77c-.36-.04-.71-.06-1.37-.06h-2.91c0,.27,0,.3-.02.78h2.68c.72,0,.95-.01,1.29-.06v1.38c-.34-.04-.61-.06-1.29-.06h-2.79c-.03.34-.04.46-.11.78h4.5c.75,0,1.06-.01,1.49-.08v1.51c-.51-.06-.93-.09-1.56-.09h-3.67c.5.6.79.87,1.35,1.2.62.39,1.52.74,2.54.99.36.09.81.19,1.59.33-.34.51-.55.96-.75,1.54-1.33-.32-1.92-.5-2.7-.83-1.53-.69-2.5-1.47-3.41-2.73-.5.96-1.12,1.64-2.1,2.25-1,.65-1.92.98-3.51,1.29-.27-.72-.35-.87-.77-1.48,1.49-.21,2.24-.42,3.11-.89.84-.42,1.39-.93,1.84-1.68h-3.17c-.57,0-1.05.03-1.56.09v-1.51c.42.06.72.08,1.47.08h3.76c.06-.25.09-.42.13-.78h-2.44c-.67,0-.96.02-1.29.06v-1.38c.34.04.58.06,1.29.06h2.53c0-.2.02-.46.02-.78h-2.68ZM19.92,174.99c-.01-.45-.03-.66-.06-.93h1.67c-.04.18-.04.35-.06.93h2.88c.56,0,.75,0,1.12-.04v-1.19h-9.37v1.19c.31.03.57.04,1.12.04h2.7Z"/>
        <path d="M32.67,180.41c.04.06.06.11.06.17q0,.09-.25.78c-.32.92-.51,1.67-.57,2.25-.01.2-.08.27-.27.32-.21.06-.61.09-1,.09-.15,0-.22-.03-.27-.12-.13-.29-.38-1.32-.5-2.16-.1-.71-.15-1.44-.15-2.21,0-1.72.2-3.36.74-6.3.09-.48.12-.71.17-1.17.69.09,1.17.23,1.6.44.23.12.32.22.32.36,0,.09-.03.17-.11.29-.61,1.05-1.18,4.29-1.18,6.69,0,.36.01.93.06,1.65.36-.93.52-1.35.85-2.07.11.41.21.6.51,1ZM35.19,176.46c-.72,0-.87-.03-.92-.2-.04-.13-.09-.61-.09-.96,0-.12,0-.24.01-.51.41.03.64.04,1.14.04.81,0,1.32-.01,2.1-.08-.02-1.9-.03-2.14-.18-2.85.74.01,1.29.08,1.77.2.22.06.31.13.31.29,0,.06-.01.1-.06.22-.15.34-.23.93-.25,1.98.55-.07,1.03-.18,1.93-.39.08-.03.1-.03.15-.03.09,0,.13.04.17.15.03.13.07.71.07,1.02,0,.38-.01.44-.17.5-.24.12-.9.23-2.17.39,0,1.03.09,2.74.2,3.72.95.4,1.59.75,2.25,1.21.42.3.51.41.51.51,0,.17-.27.67-.58,1.11-.18.25-.27.33-.38.33s-.1,0-.45-.33c-.33-.33-.67-.58-1.33-1.02v.12c0,1.32-1.09,2.19-2.76,2.19s-2.8-.9-2.8-2.25,1.14-2.36,2.66-2.36c.55,0,.84.02,1.24.08q-.06-1.17-.1-3.18c-.65.04-1.67.09-2.26.09ZM36.42,180.87c-.75,0-1.25.34-1.25.87,0,.48.46.78,1.19.78.79,0,1.21-.36,1.21-1.05,0-.21-.02-.38-.02-.38-.39-.15-.73-.22-1.14-.22Z"/>
        <path d="M54.82,177.53c-.69,0-1.79.23-2.54.51-1.59.61-2.64,1.74-2.64,2.83,0,.69.45,1.15,1.35,1.38.41.1,1.11.18,1.6.17h.15c.25,0,.34.09.34.28,0,.5-.09,1.19-.17,1.38-.06.12-.13.16-.29.16-.91,0-2.07-.24-2.85-.6-1.15-.51-1.79-1.39-1.79-2.5,0-.71.27-1.42.78-2.07.29-.35.51-.56,1.05-.93-2.73.83-4.09,1.35-5.01,1.95-.12.08-.19.1-.27.1-.17,0-.3-.13-.51-.51-.21-.34-.36-.76-.36-.99,0-.14.06-.18.42-.29.34-.11.58-.25,1.16-.66.69-.51,1.77-1.44,2.7-2.33.77-.73,1.2-1.18,2.1-2.23-.87.1-3.23.51-3.57.6-.21.06-.22.06-.27.06-.14,0-.2-.06-.25-.21-.12-.33-.23-.88-.3-1.51.21.01.32.01.45.01.67,0,2.13-.12,3.93-.34.67-.08,1.07-.17,1.33-.3.18-.09.21-.1.32-.1.18,0,.42.19.84.7.3.35.39.51.39.68s-.06.24-.25.38q-.27.17-1.53,1.33c-1.04.96-2.27,2.01-3.65,3.1,2.12-.63,3.22-.93,5.52-1.44.51-.1,1.01-.24,1.58-.42.08-.03.13-.04.18-.04.12,0,.18.06.25.2.17.34.36,1.08.36,1.35,0,.21-.06.3-.22.3h-.34Z"/>
        <path d="M60.51,175.76c-.67.13-1.32.3-1.74.45-.11.04-.2.06-.27.06-.13,0-.21-.07-.3-.33-.1-.33-.21-.85-.27-1.38.22.02.33.03.46.03.57,0,1.18-.08,2.13-.25l.03-.9c.02-.21.02-.36.02-.4,0-.65-.02-1.04-.08-1.44.79.03,1.29.09,1.77.21.2.04.29.13.29.27,0,.06-.01.1-.09.27-.13.29-.15.46-.25,1.71.33.23.62.54.62.69,0,.09-.04.17-.18.33-.22.24-.3.34-.58.76q-.03.39-.03.5c.5-.44.82-.72,1.33-1.09.57-.44,1.2-.84,1.65-1.07.58-.32.99-.42,1.53-.42.79,0,1.37.3,1.68.87.18.36.25.71.25,1.29,0,.51-.03.99-.12,2.08-.12,1.29-.18,2.25-.18,2.83s.13.76.55.76c.6,0,1.33-.44,1.98-1.17.01.58.06.76.25,1.37.04.12.06.19.06.25,0,.17-.08.3-.33.5-.61.49-1.5.81-2.29.81-1.32,0-1.92-.69-1.92-2.21,0-.69.04-1.58.2-3.67.04-.5.06-.92.06-1.12,0-.62-.21-.9-.66-.9s-1.33.48-2.52,1.39c-.6.45-.94.76-1.57,1.41v.69c0,1.12.07,3.72.13,4.63v.18c0,.12-.02.17-.04.21-.08.09-.51.15-1.2.15-.43,0-.53-.06-.53-.31,0-.09,0-.24.02-.41v-.34q.01-.53.08-3.38-.86,1.11-1.37,1.93c-.13.21-.23.29-.34.29s-.39-.24-.86-.75c-.29-.33-.39-.46-.39-.55,0-.08.03-.13.13-.24.95-.97,1.74-1.91,2.87-3.31l.03-1.28Z"/>
        <path d="M72.4,180.66c.27-.24.34-.3.45-.3.19,0,1.09.66,1.75,1.29.75.69,1.59,1.7,1.59,1.91,0,.13-.03.17-.46.55-.57.53-.69.62-.79.62-.09,0-.18-.06-.25-.21-.53-.93-1.73-2.16-2.79-2.85-.12-.09-.18-.15-.18-.24,0-.11.03-.15.69-.76Z"/>
        <path d="M88.3,172.67c0-.69-.01-1-.09-1.47h1.73c-.08.45-.09.79-.09,1.46v1.18h.79c.32,0,.5-.01.72-.04v1.49c-.25-.03-.48-.04-.75-.04h-.77v2.19c.44-.15.65-.22,1.26-.46v1.41q-.84.33-1.26.48v4.18c0,.63-.22,1.05-.64,1.19-.3.1-.86.17-1.39.17-.26,0-.45-.02-.87-.04-.06-.63-.12-.92-.35-1.5.54.08.93.1,1.28.1s.43-.08.43-.43v-3.13q-1.32.42-1.59.54l-.31-1.61c.62-.08.71-.09,1.9-.42v-2.65h-.73c-.36,0-.62.01-1.02.06v-1.53c.33.06.6.08,1.04.08h.72v-1.17ZM98.77,178.13q-.1.13-.38.58c-.75,1.25-1.3,1.98-2.1,2.75,1.11.71,2.07,1.08,3.55,1.36-.39.48-.67.99-.9,1.56-1.77-.54-2.82-1.04-3.93-1.86-1.17.86-2.38,1.41-4.05,1.89-.31-.64-.51-.97-.88-1.44,1.5-.32,2.45-.71,3.76-1.53-.84-.9-1.23-1.5-1.8-2.8-.27.01-.45.03-.69.06v-1.52c.31.06.66.08,1.15.08h4.54c.39,0,.66-.01.87-.06l.84.93ZM99.72,174.09c-.17,2.16-.33,2.34-2.22,2.34-.69,0-1.04-.03-1.26-.1-.44-.15-.57-.41-.57-1.08v-2.19h-1.74c-.06,2.12-.62,3.24-2.05,4.19-.34-.45-.63-.71-1.16-1.08,1.31-.72,1.73-1.67,1.73-3.92,0-.22-.02-.41-.04-.72.27.03.61.04.94.04h2.97c.32,0,.63-.02.9-.04-.03.18-.04.51-.04.92v2.2c0,.23.01.29.12.32.06.03.24.04.39.04.21,0,.42-.03.48-.08.13-.1.18-.39.18-1.17v-.17c0-.1,0-.27-.02-.48.83.45.96.51,1.41.66v.31ZM93.64,178.64c.38.74.83,1.33,1.44,1.91.69-.58,1.04-.99,1.6-1.91h-3.04Z"/>
        <path d="M106.71,173.39c-.42.45-.79.78-1.37,1.21-.33-.45-.58-.69-.97-.96,1.14-.75,2-1.72,2.31-2.58l1.52.27q-.11.15-.26.41c-.07.13-.18.29-.31.46h4.23c.62,0,.95-.01,1.2-.06l.85.68c-.12.15-.15.19-.25.36-.54.78-.73,1.04-1.33,1.62-.43-.24-.81-.39-1.33-.55.46-.32.63-.46.96-.86h-2.22c.45,1.42,1.95,2.21,4.54,2.34-.3.51-.43.83-.58,1.41-.6-.1-.83-.15-1.32-.27-.01.42-.01.81-.01,1.23v2.67q.01,1.28.06,1.53c-.31-.03-.91-.04-1.53-.04h-.67c1.15.54,2.13.78,3.99.96-.36.42-.52.67-.9,1.32-2.13-.36-3.17-.72-4.7-1.65l.84-.63h-3.94l.88.63c-1.5.92-2.46,1.26-4.56,1.65-.33-.6-.45-.76-.88-1.27,1.9-.23,2.86-.48,3.84-1h-.58c-.68,0-1.19.01-1.53.04.03-.27.06-.86.06-1.44v-2.85c0-.66-.01-1.07-.06-1.47.29.01.83.03,1.47.03h.75c-.17-.36-.33-.6-.6-.93-.77.36-.98.45-2.08.9-.21.09-.36.15-.62.29l-.57-1.49c.96-.18,2.24-.64,3.53-1.29l.43,1.26-.51.25c1-.13,1.63-.28,2.17-.52.9-.41,1.33-.87,1.53-1.65h-1.46ZM103.65,173.85c-.83-.66-1.33-.97-2.28-1.41l.93-1.1c1.07.5,1.49.74,2.34,1.32l-.99,1.18ZM104.22,178.16h6.63v-.54h-6.63v.54ZM104.22,179.66h6.63v-.57h-6.63v.57ZM104.22,181.13h6.63v-.54h-6.63v.54ZM110.94,176.57h.5c-1.2-.43-1.89-.99-2.46-1.9-.38.62-.71.93-1.33,1.3-.45.27-.88.44-1.62.6h4.92Z"/>
        <path d="M121.24,180.84c-.72,1.25-1.71,1.93-2.73,1.93-1.56,0-2.67-1.53-2.67-3.66,0-2.37,1.2-4.41,3.25-5.49,1-.54,2.08-.78,3.51-.78,3.14,0,5.46,2.22,5.46,5.19,0,2.62-1.29,4.51-3.78,5.58-.5.21-.89.33-1.08.33-.18,0-.25-.06-.45-.34-.25-.39-.54-.67-.95-.95,3.09-.79,4.49-2.25,4.49-4.68,0-1.25-.53-2.29-1.46-2.96-.53-.36-.95-.51-1.77-.64-.42,3.17-.92,4.89-1.83,6.46ZM119.08,175.53c-1,.88-1.58,2.14-1.58,3.55,0,1.16.38,1.83,1,1.83.75,0,1.52-1.04,2.08-2.82.36-1.12.54-1.98.77-3.64-1.07.22-1.59.48-2.28,1.08Z"/>
        <path d="M137.26,176.21c.34,1.29,1.11,2.68,2.07,3.76,1.06,1.23,2.26,2.04,3.97,2.75-.5.57-.69.88-1.05,1.65-2.85-1.45-4.65-3.37-5.73-6.12-.43,1.47-1.2,2.73-2.35,3.85-.97.97-2.01,1.65-3.43,2.28-.24-.56-.54-1-1-1.52,1.75-.7,3-1.56,3.93-2.68.9-1.09,1.38-2.25,1.63-3.97h-3.39c-.92,0-1.33.01-1.82.09v-1.8c.45.06.98.09,1.82.09h3.54c.03-.66.04-1,.04-1.58,0-.72-.03-1.15-.11-1.57h1.91c-.08.51-.09.7-.11,1.69,0,.62-.01.95-.03,1.46h3.81c.81,0,1.33-.03,1.81-.09v1.8c-.55-.06-1-.09-1.8-.09h-3.72Z"/>
        <path d="M150.01,178.44h-3.4c-.53,0-.93.02-1.32.06v-1.26c.33.04.72.06,1.35.06h3.38v-.55h-3.04c-.51,0-.87.01-1.21.04.03-.32.04-.6.04-.97v-.95c0-.41-.01-.63-.04-1,.41.03.69.04,1.23.04h3.03v-.54h-3.94c-.72,0-1.17.01-1.68.08v-1.42c.45.06.93.09,1.77.09h3.85c-.01-.51-.03-.66-.09-.99h1.72c-.06.32-.08.45-.09.99h4.05c.84,0,1.3-.03,1.77-.09v1.42c-.48-.04-.99-.08-1.68-.08h-4.14v.54h3.27c.56,0,.84-.01,1.2-.04-.03.33-.04.55-.04,1v.95c0,.45.02.66.04.97-.33-.03-.67-.04-1.14-.04h-3.33v.55h3.25c.84,0,1.08-.01,1.53-.04-.04.38-.04.55-.04,1.3v.51c.63,0,.94-.03,1.25-.08v1.36c-.35-.04-.62-.07-1.25-.07v.84c0,.76.01,1.11.08,1.54h-1.61v-.56h-3.21v.81c0,1.29-.36,1.56-2.1,1.56-.36,0-.88-.01-1.4-.04-.07-.58-.17-.87-.43-1.44.76.09,1.3.13,1.8.13s.58-.06.58-.34v-.68h-3.39c-.63,0-1,.02-1.42.06v-1.32c.39.04.63.06,1.38.06h3.43v-.63h-4.12c-.81,0-1.21.01-1.59.07v-1.36c.39.06.72.08,1.56.08h4.15v-.63ZM147.33,175.04v.58h2.68v-.58h-2.68ZM151.56,175.62h2.9v-.58h-2.9v.58ZM154.77,179.07v-.63h-3.21v.63h3.21ZM151.56,180.92h3.21v-.63h-3.21v.63Z"/>
        <path d="M160.56,175.67c-.27.01-.43.03-.61.04-.14.01-.15.01-.17.01-.12,0-.18-.04-.23-.19-.08-.24-.18-1.04-.19-1.49.17.01.6.03,1.14.03.17,0,1.35-.08,1.88-.12.25-1.21.34-1.84.34-2.66,1.54.21,2.1.39,2.1.68,0,.1-.01.13-.24.48-.12.18-.17.34-.42,1.28.7-.12,1.12-.23,1.68-.41.1-.03.15-.04.22-.04.11,0,.13.08.23.51.07.38.12.69.12.85,0,.18-.04.21-.43.3-.51.12-1.38.27-2.31.39-.56,1.68-.93,2.58-1.62,3.99-.53,1.05-.83,1.6-1.23,2.23-.12.18-.19.24-.3.24-.15,0-.57-.22-1.09-.62-.24-.17-.3-.24-.3-.34s.06-.2.25-.46c.43-.54,1-1.47,1.5-2.46.42-.83.57-1.17,1-2.36-.58.04-.63.06-1.32.11ZM165.49,184.31c-1.64,0-2.75-.9-2.75-2.24s1.15-2.41,2.7-2.41c.36,0,.53.01,1.14.1-.06-.72-.06-1-.12-2.4,0-.29-.03-.68-.06-1.16.77.08,1.35.17,1.64.29.12.04.18.12.18.24,0,.08-.01.14-.03.24-.08.32-.09.54-.09.95,0,.55.04,1.5.09,2.23,1.07.48,1.5.72,2.25,1.31.33.25.45.39.45.51,0,.15-.08.29-.5.96-.18.3-.31.43-.42.43q-.09,0-.51-.39c-.33-.33-.71-.58-1.23-.9,0,1.4-1.02,2.24-2.74,2.24ZM165.46,181.1c-.72,0-1.21.34-1.21.87,0,.5.45.81,1.12.81.79,0,1.21-.4,1.21-1.2,0-.12,0-.24-.02-.24-.3-.15-.7-.24-1.11-.24ZM171.07,176.84c-.18.25-.27.33-.38.33-.08,0-.13-.03-.24-.13-.38-.36-.9-.75-1.46-1.1q-.36-.22-1.02-.52c-.21-.09-.29-.15-.29-.27,0-.1.08-.24.3-.58.36-.52.45-.61.58-.61.28,0,1.39.57,2.19,1.11.65.44.84.62.84.78,0,.12-.24.57-.54,1Z"/>
        <path d="M175.23,176.51c-.78,0-1.38.03-1.86.09v-1.58c.38.06.96.09,1.84.09h3.17v-1.17h-1.96c-.83,0-1.17.01-1.63.06v-1.56c.4.06.87.09,1.62.09h1.98v-.15c0-.54-.02-.81-.09-1.2h1.72c-.08.33-.09.63-.09,1.2v.15h1.11c.75,0,1.22-.03,1.64-.09v1.09c.79-.81,1.29-1.46,1.6-2.05l1.41.96c-.09.09-.11.1-.2.22-.83.93-1.71,1.82-2.49,2.45h1.54c.84,0,1.36-.03,1.74-.09v1.58c-.45-.06-1.04-.09-1.75-.09h-3.33c-.73.53-1.3.88-2.14,1.35v.08c2.49-.24,2.94-.29,4-.5.63-.12,1.08-.25,1.38-.39l1.02,1.33q-.13.03-.33.06c-.18.03-.57.11-1.12.21-1.16.23-3.77.51-5.37.6-.01.04-.09.24-.21.57h4.75c.9,0,1.12-.01,1.5-.06q0,.06-.03.2c-.01.08-.06.43-.09.67-.17,1.6-.32,2.34-.62,2.92-.34.66-.92.87-2.37.87-.42,0-1.29-.04-1.96-.11-.04-.64-.12-.97-.38-1.56,1.21.15,1.83.21,2.4.21.54,0,.75-.08.92-.32.17-.25.25-.64.36-1.45h-5.01c-.15.33-.22.49-.48.97l-1.62-.27c.55-1,.81-1.59,1.37-3.06-.96.46-1.25.58-3.24,1.38-.27-.57-.48-.92-.87-1.35,1.92-.55,4.09-1.46,5.71-2.37h-3.54ZM180.85,175.11c.54-.42.97-.78,1.37-1.14-.36-.03-.51-.03-1.04-.03h-1.26v1.17h.93Z"/>
        <path d="M193.62,179.06c.34-.1.6-.15.85-.15,1.04,0,1.51.61,1.71,2.16.1.89.15,1.05.36,1.23.18.18.46.24.99.24.71,0,1.05-.06,2.28-.39.04-.01.08-.01.1-.01.09,0,.14.03.2.13.11.24.23,1.04.23,1.47,0,.14-.03.2-.17.23-.41.1-1.83.22-2.7.22-1.3,0-2-.24-2.4-.85-.25-.41-.38-.86-.46-1.79-.1-1.16-.29-1.44-.88-1.44-.54,0-.96.27-1.84,1.16-.86.85-1.59,1.75-2.08,2.54-.09.15-.2.24-.29.24-.1,0-.21-.09-.67-.58-.45-.49-.62-.69-.62-.78,0-.11.03-.13.3-.38q.36-.3,5.94-6.24c-2.42.44-3.95.75-4.31.88-.16.06-.22.08-.3.08-.13,0-.17-.04-.25-.34-.15-.5-.22-.88-.29-1.49.32.02.42.02.53.02.66,0,2.5-.18,4.17-.42,1.26-.17,1.46-.21,1.79-.38.09-.04.18-.08.24-.08.38,0,1.23.97,1.23,1.41,0,.18-.06.25-.25.36-.23.09-.54.3-.81.53-.15.12-.6.54-.81.74l-1.77,1.69ZM191.83,171.56c.06-.18.1-.25.18-.24.08.01.12.01.15.03.61.21,1.18.35,1.83.47.93.18,1.07.19,2.67.27.18.01.2.06.2.42,0,.45-.06,1-.13,1.12-.04.09-.11.13-.18.13s-1.7-.18-1.94-.21c-1.08-.17-2.02-.39-2.86-.69-.14-.06-.18-.11-.18-.21,0-.14.11-.58.27-1.1Z"/>
        <path d="M207.81,172.43c0-.46-.03-.84-.09-1.18h1.84c-.06.29-.09.67-.09,1.18v.89h3.97c.81,0,1.33-.03,1.82-.11v1.75c-.44-.06-.92-.09-1.77-.09h-5.26q-.01.12-.01.29c-.03.52-.06.81-.11,1.26h3.99c.76,0,1.14-.01,1.5-.06-.02.06-.02.11-.02.14-.03.22-.03.33-.06,1-.08,2.26-.24,3.99-.5,5.05-.33,1.37-.81,1.72-2.25,1.72-.51,0-.84-.01-1.95-.09-.06-.67-.18-1.16-.4-1.68.81.13,1.51.19,2.16.19s.76-.16.96-1.15c.18-.87.25-1.73.31-3.62h-3.97c-.62,2.91-1.89,4.72-4.63,6.53-.36-.63-.62-.95-1.16-1.38,1.28-.78,1.88-1.27,2.58-2.11,1.25-1.5,1.72-3.15,1.8-6.09h-2.35c-.72,0-1.32.03-1.82.09v-1.75c.53.08,1.05.11,1.8.11h3.71v-.89Z"/>
        <path d="M222.46,180.84c-.72,1.25-1.71,1.93-2.73,1.93-1.56,0-2.67-1.53-2.67-3.66,0-2.37,1.2-4.41,3.25-5.49,1-.54,2.08-.78,3.51-.78,3.14,0,5.46,2.22,5.46,5.19,0,2.62-1.29,4.51-3.78,5.58-.5.21-.89.33-1.08.33-.18,0-.25-.06-.45-.34-.25-.39-.54-.67-.95-.95,3.09-.79,4.49-2.25,4.49-4.68,0-1.25-.53-2.29-1.46-2.96-.53-.36-.95-.51-1.77-.64-.42,3.17-.92,4.89-1.83,6.46ZM220.3,175.53c-1,.88-1.58,2.14-1.58,3.55,0,1.16.38,1.83,1,1.83.75,0,1.52-1.04,2.08-2.82.36-1.12.54-1.98.77-3.64-1.07.22-1.59.48-2.28,1.08Z"/>
        <path d="M233.64,172.97c1.6,0,2.5-.12,3.25-.42.08-.03.12-.04.17-.04.12,0,.22.08.39.3.33.41.54.81.54.99,0,.13-.09.21-.43.39-2.26,1.11-3.71,3.25-3.71,5.48,0,1.72,1,2.8,2.59,2.8,1.41,0,2.49-.77,3.04-2.16.41-.99.58-2.19.58-3.75,0-1.16-.22-2.35-.64-3.5-.02-.06-.03-.1-.03-.15,0-.15.11-.23.53-.34.4-.11.88-.21,1.02-.21.12,0,.21.06.25.15t.06.29c.09.79.69,2.28,1.33,3.3.46.75,1.14,1.6,1.78,2.26.08.09.11.15.11.23-.02.31-.9,1.3-1.16,1.3-.13,0-.17-.03-.71-.75-.4-.53-1.02-1.91-1.53-3.36.25,1.38.28,1.7.28,2.67,0,1.74-.46,3.23-1.35,4.25-.84.99-2.02,1.49-3.5,1.49-1.32,0-2.35-.38-3.12-1.12-.78-.78-1.2-1.92-1.2-3.25,0-1.02.22-1.95.71-2.92.51-1.07,1-1.68,2.1-2.66-.78.13-.79.13-1.71.27-.09.01-.17.03-.22.04-.09.01-.17.03-.21.03-.27,0-.44-.55-.51-1.68.33.06.83.09,1.28.09Z"/>
        <path d="M18.72,201.75c-.19-.66-.25-1.07-.43-2.91-.06-.72-.12-1.08-.27-1.59.91.01,1.5.06,1.9.17.23.06.33.17.33.33,0,.06-.01.13-.04.25-.1.36-.15.63-.15,1.02,0,.74.15,1.94.32,2.46.09.29.18.39.34.39.36,0,1.68-.69,2.4-1.24.19-.15.22-.17.3-.17.13,0,.27.1.5.39.38.51.67,1.07.67,1.28,0,.17-.11.27-.36.34-.93.25-2.46.85-3.49,1.35-1.83.9-2.66,1.73-2.66,2.66s.76,1.29,2.7,1.29c1.12,0,2.14-.11,3.52-.33.06-.02.17-.03.2-.03.12,0,.19.06.25.18.04.15.15,1.07.15,1.43,0,.21-.06.28-.26.34-.33.08-2.14.18-3.28.18-1.92,0-3.2-.25-3.99-.79-.67-.46-1.04-1.2-1.04-2.1,0-.69.2-1.31.6-1.91.52-.78,1.09-1.27,2.35-2.02-.31-.29-.43-.5-.57-.96Z"/>
        <path d="M31.65,200.02c2.49-.71,3.78-.93,5.19-.93,1.51,0,2.7.41,3.5,1.18.66.68,1.02,1.61,1.02,2.7,0,1.92-1.03,3.54-2.83,4.47-.96.48-1.93.81-3.27,1.07-.58.12-.88.17-1.11.17-.18,0-.27-.06-.36-.23-.34-.69-.48-.9-.93-1.36,2.23-.27,3.45-.57,4.62-1.16,1.28-.63,1.98-1.67,1.98-2.92,0-1.41-.96-2.33-2.43-2.33-1.78,0-3.76.51-6.04,1.56-.41.18-.62.29-.77.38-.27.15-.34.18-.43.18-.29,0-.79-.92-1.14-2.07.69-.09,1.38-.25,3.01-.71Z"/>
        <path d="M44.88,201.18c-.27.01-.43.03-.61.04-.14.01-.15.01-.17.01-.12,0-.18-.04-.23-.19-.08-.24-.18-1.04-.19-1.49.17.01.6.03,1.14.03.17,0,1.35-.08,1.88-.12.25-1.21.34-1.84.34-2.66,1.54.21,2.1.39,2.1.68,0,.1-.01.13-.24.48-.12.18-.17.34-.42,1.28.7-.12,1.12-.23,1.68-.41.1-.03.15-.04.22-.04.11,0,.13.08.23.51.07.38.12.69.12.85,0,.18-.04.21-.43.3-.51.12-1.38.27-2.31.39-.56,1.68-.93,2.58-1.62,3.99-.53,1.05-.83,1.6-1.23,2.23-.12.18-.19.24-.3.24-.15,0-.57-.22-1.09-.62-.24-.17-.3-.24-.3-.34s.06-.2.25-.46c.43-.54,1-1.47,1.5-2.46.42-.83.57-1.17,1-2.36-.58.04-.63.06-1.32.11ZM49.81,209.82c-1.64,0-2.75-.9-2.75-2.24s1.15-2.41,2.7-2.41c.36,0,.53.01,1.14.1-.06-.72-.06-1-.12-2.4,0-.29-.03-.68-.06-1.16.77.08,1.35.17,1.64.29.12.04.18.12.18.24,0,.08-.01.14-.03.24-.08.32-.09.54-.09.95,0,.55.04,1.5.09,2.23,1.07.48,1.5.72,2.25,1.31.33.25.45.39.45.51,0,.15-.08.29-.5.96-.18.3-.31.43-.42.43q-.09,0-.51-.39c-.33-.33-.71-.58-1.23-.9,0,1.4-1.02,2.24-2.74,2.24ZM49.78,206.61c-.72,0-1.21.34-1.21.87,0,.5.45.81,1.12.81.79,0,1.21-.4,1.21-1.2,0-.12,0-.24-.02-.24-.3-.15-.7-.24-1.11-.24ZM55.39,202.35c-.18.25-.27.33-.38.33-.08,0-.13-.03-.24-.13-.38-.36-.9-.75-1.46-1.1q-.36-.22-1.02-.52c-.21-.09-.29-.15-.29-.27,0-.1.08-.24.3-.58.36-.52.45-.61.58-.61.28,0,1.39.57,2.19,1.11.65.44.84.62.84.78,0,.12-.24.57-.54,1Z"/>
        <path d="M63.4,206.35c-.72,1.25-1.71,1.93-2.73,1.93-1.56,0-2.67-1.53-2.67-3.66,0-2.37,1.2-4.41,3.25-5.49,1-.54,2.08-.78,3.51-.78,3.14,0,5.46,2.22,5.46,5.19,0,2.62-1.29,4.51-3.78,5.58-.5.21-.89.33-1.08.33-.18,0-.25-.06-.45-.34-.25-.39-.54-.67-.95-.95,3.09-.79,4.49-2.25,4.49-4.68,0-1.25-.53-2.29-1.46-2.96-.53-.36-.95-.51-1.77-.64-.42,3.17-.92,4.89-1.83,6.46ZM61.24,201.04c-1,.88-1.58,2.14-1.58,3.55,0,1.16.38,1.83,1,1.83.75,0,1.52-1.04,2.08-2.82.36-1.12.54-1.98.77-3.64-1.07.22-1.59.48-2.28,1.08Z"/>
        <path d="M79.14,202.02c.03,1.12.06,1.71.21,3.21,1.26.41,1.86.66,2.75,1.14,1.18.67,1.79,1.12,1.79,1.33,0,.18-.2.53-.54,1.02-.22.33-.39.48-.51.48-.08,0-.14-.03-.24-.13-1.07-1.02-1.92-1.58-3.18-2.08-.03.92-.2,1.39-.63,1.84-.53.53-1.44.81-2.62.81-1.96,0-3.17-.87-3.17-2.29,0-1.52,1.32-2.48,3.38-2.48.5,0,.93.03,1.3.08-.15-2.46-.2-3.64-.21-5.85-.01-.87-.04-1.39-.13-2.1.69.01,1.38.09,1.79.19.24.08.33.15.33.32,0,.08-.01.12-.06.24-.17.39-.22.96-.25,2.62q.12,0,.58-.03c.72-.04,1.74-.23,2.88-.54.04-.01.08-.01.12-.01.09,0,.12.03.18.18.15.36.32,1.09.32,1.35,0,.12-.06.17-.2.21-1.16.27-2.78.5-3.66.5h-.21ZM76.2,206.34c-1.02,0-1.63.34-1.63.91,0,.53.51.8,1.46.8,1.15,0,1.66-.41,1.66-1.35v-.12c-.49-.18-.92-.24-1.48-.24Z"/>
        <path d="M91.26,207.67c0,1.41-1.14,2.55-2.54,2.55s-2.53-1.14-2.53-2.55,1.14-2.54,2.53-2.54,2.54,1.14,2.54,2.54ZM87.36,207.67c0,.76.61,1.38,1.36,1.38s1.37-.62,1.37-1.38-.62-1.37-1.37-1.37-1.36.62-1.36,1.37Z"/>
      </g>
      <circle class="cls-10" cx="308.24" cy="209.57" r="30"/>
      <path class="cls-9" d="M329.77,1.42H90.4c-4.68,0-8.47,3.79-8.47,8.47v66.28s-9.69,9.69-9.69,9.69h9.69s0,.5,0,.5c0,4.68,3.79,8.47,8.47,8.47h239.38c4.68,0,8.47-3.79,8.47-8.47V9.89c0-4.68-3.79-8.47-8.47-8.47Z"/>
      <g>
        <path d="M97.83,20.4c-1.06.18-1.3.22-1.56.3-.15.04-.27.06-.36.06-.27,0-.4-.48-.46-1.65.87,0,1.35-.04,2.42-.24,0-.48.01-1.03.01-1.23,0-.58-.03-1.09-.09-1.47,1.58.07,2.04.18,2.04.46q0,.08-.13.39t-.2,1.62c.48.38.74.68.72.87,0,.04-.03.08-.09.14-.22.19-.25.22-.52.61q-.06.08-.15.19l-.06.09c0,.23,0,.25-.02.54.45-.51.87-.93,1.28-1.26,1.32-1.08,2.31-1.53,3.39-1.53s1.77.44,2.29,1.33c.45.78.69,1.88.69,3.17,0,.78-.06,1.38-.23,2.5.72.51,1.5,1.3,1.5,1.51,0,.24-.84,1.08-1.09,1.08-.11,0-.12-.02-.32-.31-.12-.17-.28-.36-.61-.72-.21.39-.33.56-.54.75-.56.51-1.3.78-2.19.78-1.56,0-2.56-.79-2.56-2,0-1.27,1.04-2.23,2.4-2.23.78,0,1.35.1,1.86.33.06-.56.08-.83.08-1.31,0-2.37-.45-3.3-1.59-3.3-.81,0-1.89.57-3.03,1.59-.41.38-.72.69-1.37,1.4v.87c0,1.99.04,4,.11,4.53v.06c0,.27-.21.34-.93.34-.66,0-.79-.06-.79-.34v-.12c.03-.44.04-.96.04-1.62q0-.99.01-2.17s-.03.04-.06.08c-.33.4-.87,1.14-1.22,1.63-.17.24-.25.31-.36.31-.15,0-.42-.27-.88-.87-.18-.23-.29-.42-.29-.5s.08-.17.45-.5c.27-.25,1.29-1.5,1.81-2.19.27-.38.46-.65.58-.84v-1.15ZM103.57,25.55c-.69,0-1.11.29-1.11.75s.32.69.89.69c.5,0,.9-.15,1.17-.45.13-.14.34-.51.34-.57h0c-.51-.33-.81-.42-1.29-.42Z"/>
        <path d="M115.42,23.64c.34-.1.6-.15.85-.15,1.04,0,1.51.61,1.71,2.16.1.89.15,1.05.36,1.23.18.18.46.24.99.24.71,0,1.05-.06,2.28-.39.04-.02.08-.02.1-.02.09,0,.14.03.2.14.11.24.23,1.03.23,1.47,0,.14-.03.19-.17.23-.41.1-1.83.23-2.7.23-1.3,0-2-.24-2.4-.85-.25-.41-.38-.85-.46-1.79-.1-1.15-.29-1.44-.88-1.44-.54,0-.96.27-1.84,1.15-.86.85-1.59,1.76-2.08,2.54-.09.15-.2.24-.29.24-.1,0-.21-.09-.67-.58-.45-.49-.62-.69-.62-.78,0-.1.03-.13.3-.38q.36-.3,5.94-6.24c-2.42.44-3.95.75-4.3.88-.17.06-.23.08-.3.08-.13,0-.17-.04-.25-.34-.15-.5-.22-.89-.29-1.49.32.02.42.02.53.02.66,0,2.5-.18,4.17-.42,1.26-.17,1.46-.21,1.79-.38.09-.04.18-.08.24-.08.38,0,1.23.98,1.23,1.41,0,.18-.06.25-.25.36-.23.09-.54.3-.81.52-.15.12-.6.54-.81.74l-1.77,1.69ZM113.64,16.14c.06-.18.1-.25.18-.24s.12.02.15.03c.61.21,1.18.35,1.83.47.93.18,1.06.19,2.67.27.18.01.2.06.2.42,0,.45-.06,1-.13,1.12-.04.09-.11.13-.18.13s-1.7-.18-1.94-.21c-1.08-.17-2.02-.39-2.86-.69-.14-.06-.18-.1-.18-.21,0-.14.11-.58.27-1.1Z"/>
        <path d="M130.63,20.67c-.48,3.17-1.74,5.5-3.75,6.99-.57.42-1.02.68-1.17.68-.11,0-.17-.04-.29-.18-.38-.42-.74-.73-1.23-1.02,1.73-.79,2.85-1.81,3.63-3.27.51-.95.83-1.95.99-3.2-.32,0-.54.02-.71.02-1.33,0-2,.03-2.59.15-.15.02-.21.03-.24.03-.17,0-.27-.08-.31-.24-.06-.21-.18-1.3-.2-1.68,1.16.13,1.91.17,3.69.17h.53c.03-.6.04-.96.04-1.44,0-.58-.01-.89-.08-1.26,1.74.08,2.19.18,2.19.45q0,.06-.09.27c-.11.27-.17.61-.21,1.32-.02.25-.03.39-.05.66h2.24q.67-.03.79-.04t.5-.2s.13-.03.2-.03c.24,0,.45.13.85.54.41.4.57.65.57.84,0,.15,0,.17-.2.57-.04.09-.1.47-.12.77-.15,2.69-.45,4.66-.81,5.46-.24.54-.58.85-1.17,1.06-.39.15-.78.19-1.52.19-.99,0-1.12-.04-1.18-.39-.08-.48-.2-.82-.48-1.44.63.12,1,.15,1.5.15.87,0,1.12-.12,1.32-.63.34-.93.62-3.13.65-5.31h-3.3Z"/>
        <path d="M144.37,19.35c-2.68.02-4.57.1-5.05.24-.01.01-.03.01-.04.01-.29,0-.38-.49-.42-2.04.74.1,1.7.15,3.92.15,2.01,0,4.36-.04,4.74-.09.27-.03.36-.05.63-.15.08-.03.11-.03.17-.03.26,0,.57.24,1.05.81.28.36.34.45.34.61,0,.1-.04.2-.15.33-.15.18-.17.23-.5,1.27-.84,2.64-2.5,5.01-4.75,6.75-.9.69-1.75,1.21-1.98,1.21-.17,0-.2-.02-.54-.36-.41-.41-.72-.65-1.12-.85,2.21-1.11,3.41-2.02,4.56-3.5,1.04-1.3,1.68-2.71,2.03-4.39q-1.17.01-2.87.01ZM150.85,17.84c-.33.28-.52.42-.61.42s-.09,0-.36-.45c-.24-.4-.6-.87-.95-1.21-.06-.06-.07-.09-.07-.13,0-.12.57-.54.73-.54.12,0,.3.15.75.66.41.47.69.87.69.98s-.04.17-.18.29ZM151.53,17.07c-.36-.61-.71-1.05-1.11-1.44-.06-.06-.08-.09-.08-.12,0-.07.08-.15.33-.33.2-.15.29-.18.39-.18.16.02.55.39,1.06,1.05.21.27.34.5.34.57s-.04.15-.22.29c-.24.18-.46.31-.55.31-.06,0-.11-.03-.17-.15Z"/>
        <path d="M154.92,20.18c-.81,0-.84,0-.93-.18-.09-.15-.2-.78-.24-1.44.56.06,1.1.09,1.82.09.43,0,1.02-.01,1.63-.06.12-.9.15-1.22.15-1.77,0-.25-.02-.45-.04-.79.73.04,1.57.18,1.9.3.12.04.17.09.17.21,0,.09-.01.15-.1.33-.14.3-.2.54-.29,1.02-.04.28-.06.34-.09.54,1.23-.15,2.46-.42,3.31-.75.12-.03.18-.04.24-.04.1,0,.15.07.21.38.06.33.13.93.13,1.09,0,.18-.06.21-.51.31-1.19.24-2.67.46-3.71.56-.45,1.8-.66,2.38-1.2,3.39.84-.66,1.29-.92,2.01-1.17.64-.24,1.27-.34,1.95-.34,1.09,0,1.98.3,2.55.87.53.52.83,1.31.83,2.12,0,1.11-.52,2.01-1.65,2.76-.83.57-2.19,1.05-3.56,1.23-.24.03-.48.06-.57.06-.23,0-.33-.08-.44-.26-.28-.54-.52-.85-.92-1.23,1.4-.06,2.46-.25,3.54-.64,1.14-.41,1.8-1.1,1.8-1.89,0-1.02-.61-1.63-1.63-1.63-1.69,0-3.58,1.05-4.8,2.65-.09.1-.18.17-.27.17-.27,0-1.31-.94-1.31-1.19,0-.08.02-.1.17-.3.79-1.08,1.41-2.6,1.85-4.46-.26.02-1.85.08-2.01.08Z"/>
        <path d="M176.28,20.46c1.57,0,2.61.99,2.61,2.5,0,.87-.39,1.58-1.09,2.01-.43.25-1.18.44-1.89.44-.39,0-.81-.05-.9-.09-.12-.06-.17-.15-.21-.36-.08-.39-.21-.75-.5-1.25.75.18,1.16.24,1.61.24.88,0,1.39-.39,1.39-1.08s-.45-1.06-1.26-1.06c-.63,0-1.37.24-3.33,1.08,1.26,3.12,2.01,5.17,2.01,5.43,0,.14-.1.21-.46.33-.45.18-.83.29-.94.29-.09,0-.15-.06-.18-.18-.34-1.46-.81-2.83-1.74-5.25t-.12.06c-.46.24-.88.48-1.19.71-.18.12-.28.18-.39.18-.13,0-.24-.09-.42-.33-.11-.15-.54-.89-.71-1.21.67-.17,1.28-.38,2.25-.79-.41-.98-.69-1.49-1.14-2.08.81-.3,1.38-.47,1.62-.47.26,0,.32.08.35.38q.03.39.54,1.6c.67-.28,1.24-.48,2.02-.72-.01-.03-.03-.04-.06-.08-.3-.4-.66-.79-1.07-1.12-.06-.04-.09-.09-.09-.13,0-.1.04-.17.33-.42.32-.27.54-.41.63-.41.29,0,1.38,1.04,1.38,1.29,0,.12-.33.48-.67.73.74-.18,1.06-.23,1.62-.23Z"/>
        <path d="M188.88,16.79c.18.12.25.21.25.31s-.01.12-.24.38c-.08.09-.3.42-.54.83q-.75,1.25-1.16,1.96c-.42.71-.69,1.19-.84,1.41q-.04.07-.25.45c-.2.35-.32.52-.53.81.97-.85,1.5-1.08,2.49-1.08.66,0,1.25.29,1.62.78.31.42.4.81.54,2.28.07.88.15,1.27.25,1.5.1.21.31.33.58.33,1.03,0,2.26-1.25,2.86-2.88.15.63.27.93.58,1.48.11.18.14.3.14.45,0,.17-.08.38-.26.66-.78,1.26-2.05,2.01-3.42,2.01-.86,0-1.58-.3-1.95-.79-.3-.42-.44-.98-.56-2.44-.07-.96-.15-1.29-.36-1.53-.17-.18-.41-.27-.74-.27-.99,0-2.29,1.33-3.06,3.1-.22.51-.38.97-.54,1.54-.06.22-.13.31-.24.31-.31,0-1.04-.3-1.42-.58-.1-.09-.15-.15-.15-.24,0-.07.03-.15.22-.57.12-.27.17-.35.27-.62q1.11-2.59,4.19-8.82c.34-.69.51-1.12.61-1.58.78.29,1.14.47,1.62.79Z"/>
        <path d="M196.65,25.25c.27-.24.34-.3.45-.3.19,0,1.09.66,1.75,1.29.75.69,1.59,1.69,1.59,1.9,0,.14-.03.17-.46.56-.57.52-.69.61-.79.61-.09,0-.18-.06-.25-.21-.53-.93-1.73-2.16-2.79-2.85-.12-.09-.18-.15-.18-.24,0-.1.03-.15.69-.76Z"/>
        <path d="M213.28,17.55c1.6,0,2.5-.12,3.25-.42.08-.03.12-.04.17-.04.12,0,.22.07.39.3.33.4.54.81.54.99,0,.13-.09.21-.43.39-2.26,1.11-3.71,3.25-3.71,5.48,0,1.72,1,2.8,2.59,2.8,1.41,0,2.49-.77,3.04-2.16.41-.99.58-2.19.58-3.75,0-1.16-.22-2.35-.64-3.5-.02-.06-.03-.1-.03-.15,0-.15.11-.23.53-.34.4-.1.88-.21,1.02-.21.12,0,.21.06.25.15t.06.28c.09.79.69,2.28,1.33,3.3.46.75,1.14,1.6,1.78,2.27.08.09.11.15.11.23-.02.31-.9,1.3-1.16,1.3-.13,0-.17-.03-.71-.75-.4-.52-1.02-1.9-1.53-3.36.25,1.38.28,1.7.28,2.67,0,1.74-.46,3.23-1.35,4.25-.84.99-2.02,1.48-3.5,1.48-1.32,0-2.35-.38-3.12-1.12-.78-.78-1.2-1.92-1.2-3.25,0-1.02.22-1.95.71-2.92.51-1.06,1-1.68,2.1-2.65-.78.13-.79.13-1.71.27-.09.01-.17.03-.22.04-.09.01-.17.03-.21.03-.27,0-.44-.55-.51-1.68.33.06.83.09,1.28.09Z"/>
        <path d="M229.72,20.82c-.19-.66-.25-1.06-.43-2.91-.06-.72-.12-1.08-.27-1.59.91.02,1.5.06,1.9.17.23.06.33.17.33.33,0,.06-.01.13-.04.25-.1.36-.15.63-.15,1.02,0,.73.15,1.94.32,2.46.09.28.18.39.34.39.36,0,1.68-.69,2.4-1.24.19-.15.22-.17.3-.17.13,0,.27.1.5.39.38.51.67,1.06.67,1.27,0,.17-.11.27-.36.34-.93.25-2.46.85-3.49,1.35-1.83.9-2.66,1.73-2.66,2.65s.76,1.29,2.7,1.29c1.12,0,2.14-.1,3.52-.33.06-.02.17-.03.2-.03.12,0,.19.06.25.18.04.15.15,1.06.15,1.43,0,.21-.06.28-.26.34-.33.08-2.14.18-3.28.18-1.92,0-3.2-.26-3.99-.79-.67-.47-1.04-1.2-1.04-2.1,0-.69.2-1.31.6-1.9.52-.78,1.09-1.27,2.35-2.02-.31-.29-.43-.5-.57-.96Z"/>
        <path d="M242.65,19.1c2.49-.71,3.78-.93,5.19-.93,1.51,0,2.7.41,3.5,1.19.66.68,1.02,1.6,1.02,2.7,0,1.92-1.03,3.54-2.83,4.47-.96.48-1.93.81-3.27,1.06-.58.12-.88.17-1.11.17-.18,0-.27-.06-.36-.23-.34-.69-.48-.9-.93-1.36,2.23-.27,3.45-.57,4.62-1.16,1.28-.63,1.98-1.67,1.98-2.92,0-1.41-.96-2.32-2.43-2.32-1.78,0-3.76.51-6.04,1.56-.41.18-.62.29-.77.38-.27.15-.34.18-.43.18-.29,0-.79-.92-1.14-2.07.69-.09,1.38-.25,3.01-.71Z"/>
        <path d="M259.95,25.43c-.72,1.25-1.71,1.94-2.73,1.94-1.56,0-2.67-1.53-2.67-3.66,0-2.37,1.2-4.41,3.25-5.49,1-.54,2.08-.78,3.51-.78,3.14,0,5.46,2.22,5.46,5.19,0,2.62-1.29,4.51-3.78,5.58-.5.21-.89.33-1.08.33-.18,0-.25-.06-.45-.34-.25-.39-.54-.68-.95-.95,3.09-.79,4.49-2.25,4.49-4.68,0-1.25-.53-2.29-1.46-2.96-.53-.36-.95-.51-1.77-.64-.42,3.16-.92,4.89-1.83,6.46ZM257.79,20.12c-1,.88-1.58,2.15-1.58,3.55,0,1.16.38,1.83,1,1.83.75,0,1.52-1.04,2.08-2.82.36-1.12.54-1.98.77-3.65-1.07.23-1.59.48-2.28,1.08Z"/>
        <path d="M271.53,20.51c-.96.6-1.29.78-2.31,1.24-.25-.58-.48-.97-.84-1.48,1.53-.6,2.54-1.15,3.62-1.99.96-.74,1.68-1.52,2.28-2.43h1.7c.76,1.06,1.35,1.63,2.45,2.4,1.21.87,2.4,1.48,3.7,1.95-.4.61-.6,1.02-.81,1.62-.9-.39-1.46-.69-2.45-1.32v1.12c-.39-.04-.75-.06-1.29-.06h-4.82c-.41,0-.84.02-1.23.06v-1.11ZM270.73,24.21c-.75,0-1.23.03-1.7.09v-1.66c.45.04,1.02.07,1.7.07h8.95c.72,0,1.21-.03,1.7-.07v1.66c-.48-.06-.96-.09-1.7-.09h-4.93c-.48,1.1-.93,1.94-1.5,2.79q2.49-.14,4.56-.36c-.46-.51-.72-.78-1.51-1.59l1.42-.63c1.54,1.56,2.17,2.29,3.33,3.82l-1.39.92c-.41-.61-.53-.79-.86-1.24-1.2.15-2.05.25-2.59.3-1.5.15-4.23.4-4.84.45-.81.04-1.53.12-1.86.19l-.22-1.75c.43.03.62.04.81.04.12,0,.56-.02,1.29-.06.71-1.08,1.16-1.94,1.53-2.88h-2.17ZM277.56,20.06c.2,0,.33,0,.63-.02-1.3-.87-2.14-1.65-3.01-2.8-.75,1.02-1.62,1.84-2.98,2.8.24.02.36.02.58.02h4.78Z"/>
        <path d="M286.72,27.62c0,.68.02,1.05.09,1.47h-1.74c.06-.44.09-.83.09-1.5v-3.61c-.58.52-.88.75-1.61,1.23-.18-.56-.43-1.08-.73-1.5,1-.58,1.7-1.12,2.47-1.95.67-.71,1.09-1.3,1.56-2.22h-2.34c-.51,0-.86.02-1.2.06v-1.6c.38.04.66.06,1.12.06h.73v-1.2c0-.39-.03-.76-.09-1.09h1.72c-.06.31-.07.66-.07,1.11v1.19h.6c.43,0,.6-.02.83-.04l.69.75c-.12.2-.21.38-.31.62-.48,1.05-.74,1.48-1.44,2.46.67.76,1.33,1.29,2.28,1.81-.33.46-.54.85-.78,1.42-.76-.48-1.21-.88-1.88-1.62v4.17ZM292.84,26.93h1.72c.72,0,1.21-.03,1.65-.07v1.72c-.51-.06-1.07-.09-1.65-.09h-4.92c-.6,0-1.12.03-1.62.09v-1.72c.45.04.96.07,1.63.07h1.57v-5.62h-1.08c-.48,0-.96.03-1.41.07v-1.63c.41.06.81.08,1.41.08h1.08v-2.54c0-.6-.03-.94-.09-1.5h1.79c-.08.57-.09.85-.09,1.5v2.54h1.51c.66,0,1.04-.02,1.42-.08v1.63c-.46-.04-.92-.07-1.42-.07h-1.51v5.62Z"/>
        <path d="M303.33,25.43c-.72,1.25-1.71,1.94-2.73,1.94-1.56,0-2.67-1.53-2.67-3.66,0-2.37,1.2-4.41,3.25-5.49,1-.54,2.08-.78,3.51-.78,3.14,0,5.46,2.22,5.46,5.19,0,2.62-1.29,4.51-3.78,5.58-.5.21-.89.33-1.08.33-.18,0-.25-.06-.45-.34-.25-.39-.54-.68-.95-.95,3.09-.79,4.49-2.25,4.49-4.68,0-1.25-.53-2.29-1.46-2.96-.53-.36-.95-.51-1.77-.64-.42,3.16-.92,4.89-1.83,6.46ZM301.17,20.12c-1,.88-1.58,2.15-1.58,3.55,0,1.16.38,1.83,1,1.83.75,0,1.52-1.04,2.08-2.82.36-1.12.54-1.98.77-3.65-1.07.23-1.59.48-2.28,1.08Z"/>
        <path d="M321.4,21.38h2.13c.68,0,1.1-.03,1.54-.09v1.63c-.48-.04-.93-.07-1.56-.07h-1.62c.86,1.5,2.1,2.74,3.58,3.58-.48.48-.69.78-.99,1.5-.61-.43-1.05-.85-1.62-1.5-.74-.85-1.05-1.32-1.53-2.22.03.54.04,1,.04,1.44v1.81c0,.67.03,1.2.09,1.67h-1.67c.06-.46.09-1,.09-1.68v-1.71c0-.4.02-.88.04-1.48-.91,1.65-1.93,2.76-3.39,3.73-.38-.71-.58-1-.9-1.36,1.54-.89,2.8-2.17,3.67-3.78h-.95c-.64,0-1.11.03-1.58.09v-.6c-.25.36-.43.69-.61,1.21-.38-.58-.6-1.05-.89-1.8.03.47.06,1.27.06,1.91v3.69c0,.77.03,1.32.09,1.77h-1.67c.06-.46.09-1.02.09-1.77v-3.1c0-.57.02-.93.11-1.86-.44,1.46-.87,2.43-1.52,3.41-.18-.68-.37-1.11-.67-1.6.72-.92,1.47-2.61,1.92-4.35h-.57c-.44,0-.69.02-.96.06v-1.53c.24.04.51.06.96.06h.72v-1.16c0-.76-.01-1.14-.08-1.5h1.65c-.06.39-.08.8-.08,1.5v1.16h.43c.36,0,.54-.02.78-.06v1.42c.57-1.02,1.05-2.52,1.09-3.49l1.46.38c-.06.16-.1.34-.21.79-.08.27-.1.4-.18.69h1.15v-.99c0-.61-.03-.99-.09-1.36h1.68c-.06.36-.09.77-.09,1.36v.99h1.7c.72,0,1.14-.03,1.54-.09v1.58c-.42-.04-.9-.08-1.54-.08h-1.7v1.81ZM318.27,19.56c-.25.62-.39.9-.81,1.6q-.36-.38-1.17-.94c.12-.17.17-.24.24-.35-.2-.03-.44-.04-.71-.04h-.38c.34.79.71,1.4,1.36,2.28v-.83c.45.06.87.09,1.56.09h1.53v-1.81h-1.63Z"/>
        <path d="M96.07,46.32h-.09c-.08.02-.13.02-.17.02-.13,0-.21-.06-.25-.26-.09-.37-.15-.82-.18-1.41.21.02.38.02.48.02.81,0,1.75-.06,2.55-.17.15-.99.23-1.74.23-2.37v-.34c1.74.24,2.07.33,2.05.6,0,.08-.03.12-.09.26-.18.34-.2.39-.44,1.57.58-.1,1.33-.3,1.64-.4.06-.03.07-.03.12-.03.13,0,.16.06.28.58.06.3.12.72.12.84,0,.11-.04.17-.18.2q-.27.09-2.33.45c-.69,3.06-1.41,5.29-2.56,7.99-.08.2-.15.27-.24.27-.2,0-.72-.21-1.23-.49-.26-.14-.33-.2-.33-.29,0-.06.04-.17.12-.31,1.14-2.16,1.97-4.45,2.54-6.91-.66.07-1.12.12-2.04.19ZM102.48,52.02c.43.29,1.06.42,1.95.42.97,0,1.81-.09,2.29-.24.12-.03.15-.04.21-.04.13,0,.19.04.24.18.11.31.18.93.18,1.4,0,.19-.06.27-.26.31-.49.1-1.33.17-2.22.17-1.88,0-2.92-.3-3.61-1.02-.25-.27-.46-.6-.58-.98-.09-.22-.15-.48-.15-.57,0-.25.45-.52,1.23-.78.17.63.34.92.72,1.15ZM106.69,47.65c-.3-.04-.93-.08-1.46-.08-1.11,0-1.58.05-2.89.27-.03.02-.08.02-.11.02-.09,0-.13-.03-.17-.12-.04-.1-.1-.84-.1-1.15,0-.19.03-.29.15-.33.06-.03.15-.04.46-.1,1.02-.18,1.88-.25,2.92-.25.87,0,1.32.03,1.43.1.07.06.09.18.09.67,0,.44-.03.83-.06.92-.01.04-.08.08-.15.08-.03,0-.08,0-.12-.02ZM105.04,42.37c.2,0,1.47,1.42,1.47,1.65,0,.06-.1.19-.22.29-.06.04-.15.12-.25.21-.13.12-.18.15-.33.21t-.08.03c-.06,0-.06-.01-.34-.45-.25-.39-.74-.99-.99-1.22-.03-.03-.07-.09-.07-.1.03-.06.04-.09.04-.09.07-.09.33-.3.39-.34.15-.08.24-.14.25-.15.01-.03.03-.03.04-.03h.09ZM107.58,43.42c-.21.15-.36.24-.43.24-.06,0-.09-.03-.17-.15-.33-.54-.65-.93-1.14-1.43-.04-.04-.06-.07-.06-.12,0-.14.57-.56.76-.56.11,0,.29.15.62.5.48.49.83.94.83,1.09,0,.09-.11.19-.41.42Z"/>
        <path d="M111.42,42.27v-.21c.94.17,1.42.3,1.81.5.11.04.13.1.13.21,0,.06-.03.13-.09.24-.13.24-.18.42-.41,1.41-.28,1.29-.43,2.73-.43,4.3,0,.84.03,1.3.12,2.1l.79-1.6c.09.31.21.57.39.78.12.15.14.19.14.31s0,.12-.29.75c-.32.67-.5,1.26-.66,2.02-.04.24-.09.31-.17.35-.12.06-.63.13-.93.13-.21,0-.29-.04-.33-.18-.36-1.02-.66-3.12-.66-4.62,0-1.29.17-3.07.43-4.95.09-.62.14-1.06.14-1.38v-.17ZM116.53,46.51c-.84,0-1.08-.03-1.16-.13-.1-.14-.19-.75-.19-1.31v-.22c.6.06,1.08.09,1.84.09.58,0,.92-.02,1.51-.06-.04-1.56-.13-2.49-.31-2.97h.4c.53,0,1.17.04,1.5.12.15.03.23.12.23.24,0,.06-.02.12-.04.23-.08.21-.12.54-.12.93,0,.23.01.93.01,1.11v.15c.75-.12,1.11-.2,1.74-.41.06-.02.12-.03.18-.03.09,0,.13.04.17.13.06.17.12.75.12,1.08,0,.24-.04.35-.17.39-.2.07-1.11.25-2,.38.02.42.02.65.02.88,0,2.21-.27,3.78-.87,4.96-.54,1.06-1.71,2.31-2.19,2.31-.13,0-.19-.03-.36-.18-.5-.44-.58-.51-1.17-.78,1.05-.58,1.72-1.22,2.19-2.07.5-.91.76-2.17.76-3.55,0-.1,0-.36-.01-.72-.01-.15-.01-.38-.03-.68-.54.04-1.75.1-2.05.1Z"/>
        <path d="M135.42,48.3h.23c.6,0,.96-.02,1.41-.08v1.54c-.43-.06-.82-.09-1.41-.09h-.23v3.46c0,1.02-.51,1.36-2.04,1.36-.33,0-.72-.01-1.35-.04-.08-.63-.2-1.03-.42-1.54.66.12,1.17.17,1.65.17s.6-.07.6-.39v-3.01h-3.63c-.71,0-1.11.02-1.62.08v-1.28c-.51.24-.93.42-1.25.54v4.1c0,1.14-.39,1.42-1.92,1.42-.27,0-.48-.02-.96-.04-.04-.6-.12-.92-.31-1.47.51.06.88.09,1.21.09.36,0,.46-.09.46-.45v-3.09c-.65.23-.66.23-1,.34-.17.05-.41.14-.57.21l-.22-1.59c.34-.04.79-.15,1.8-.48v-2.65h-.66c-.39,0-.67.02-1.04.06v-1.53c.36.06.63.07,1.07.07h.63v-1.18c0-.68-.02-.99-.09-1.47h1.68c-.06.45-.08.79-.08,1.46v1.2h.45c.38,0,.54-.01.81-.04v1.48c-.27-.03-.48-.04-.79-.04h-.46v2.15c.46-.17.6-.21,1.19-.46h-.06v-1.49c.36.05.97.08,1.61.08h1.75v-1.42h-1.32c-.67,0-1.02.01-1.46.06v-1.52c.41.06.81.09,1.46.09h1.32v-.43c0-.42-.03-.72-.09-1.08h1.7c-.06.36-.08.61-.08,1.08v.43h1.68c.66,0,1.06-.03,1.47-.09v1.52c-.42-.05-.78-.06-1.46-.06h-1.7v1.42h2.08c.65,0,1.21-.03,1.62-.09v1.51c-.38-.04-.92-.07-1.67-.07v1.27ZM130.11,47.02c-.45,0-1.17.03-1.49.04v1.15c.46.06.89.08,1.61.08h3.63v-1.27h-3.75ZM130.48,49.87c.72.77,1.08,1.23,1.69,2.18l-1.24.94c-.6-1.04-.83-1.35-1.68-2.29l1.23-.83Z"/>
        <path d="M142.05,46.86c1.89-.52,3.25-.77,4.27-.77,2.12,0,3.42,1.16,3.42,3.03,0,1.12-.46,2.12-1.35,2.87-.58.49-1.46.91-2.61,1.26-.64.18-1.33.31-1.63.31-.18,0-.27-.04-.33-.19-.21-.52-.45-.9-.76-1.21,3.3-.35,4.98-1.4,4.98-3.1,0-.87-.72-1.54-1.65-1.54-1.62,0-3.39.54-5.25,1.57-.15.08-.24.12-.3.12-.25,0-.67-.75-1.02-1.83.74-.1.99-.17,2.24-.51Z"/>
        <path d="M155.52,45.43c-.39.09-.53.13-1.07.33-.19.08-.3.1-.39.1-.33,0-.63-.61-.9-1.9.96-.04,1.31-.09,2.97-.34,1.8-.27,4.08-.62,5.28-.77,1.35-.18,2.43-.36,3-.48.1-.03.15-.03.22-.03.2,0,.27.09.41.47.12.31.21.76.21.98,0,.18-.06.24-.27.24-.32,0-.6.03-.89.08-2.53.42-4.56,2.64-4.56,4.98,0,1.75,1.38,2.91,3.72,3.12.21.01.29.09.29.27,0,.38-.15,1.09-.29,1.42-.08.17-.19.24-.39.24s-.65-.09-1.11-.22c-2.55-.75-3.88-2.37-3.88-4.67,0-1.25.41-2.4,1.19-3.39.42-.54.78-.84,1.63-1.43-1.96.33-4.04.72-5.17,1.01Z"/>
        <path d="M175.5,46.59c2.12,0,3.62,1.44,3.62,3.48,0,1.4-.74,2.65-1.96,3.39-.86.51-1.91.77-3.09.77-1.91,0-3.02-.77-3.02-2.07,0-1.19.99-2.02,2.4-2.02,1.27,0,2.19.64,2.8,1.96.76-.56,1.08-1.14,1.08-1.95,0-1.29-.92-2.13-2.36-2.13s-3.04.73-4.35,2.04c-.24.24-.46.5-.73.84-.11.15-.18.21-.27.21-.27,0-1.33-1.05-1.33-1.32,0-.13.06-.21.39-.45.34-.27.84-.7,1.47-1.3,1.46-1.38,2.52-2.54,4.09-4.46-1.88.24-3.13.45-3.6.62-.08.02-.12.03-.17.03-.12,0-.2-.07-.29-.3-.18-.45-.27-.94-.32-1.6.41.06.69.08,1.02.08.72,0,1.93-.1,3.51-.29.55-.06.73-.1,1.16-.27.13-.06.21-.08.3-.08.21,0,.42.18.81.78.29.39.38.58.38.71,0,.19-.04.25-.38.46-.27.17-.43.3-.78.63-.75.72-.76.72-1.69,1.67-.66.67-.74.75-1.33,1.35.97-.54,1.74-.77,2.64-.77ZM174.06,51.78c-.23-.15-.48-.23-.77-.23-.46,0-.76.23-.76.58,0,.44.46.71,1.18.71.33,0,.62-.03.99-.14-.18-.5-.33-.72-.64-.93Z"/>
        <path d="M186.34,46.33c-.19-.66-.25-1.06-.43-2.91-.06-.72-.12-1.08-.27-1.59.91.02,1.5.06,1.9.17.23.06.33.17.33.33,0,.06-.01.13-.04.25-.1.36-.15.63-.15,1.02,0,.73.15,1.94.32,2.46.09.28.18.39.34.39.36,0,1.68-.69,2.4-1.24.19-.15.22-.17.3-.17.13,0,.27.1.5.39.38.51.67,1.06.67,1.27,0,.17-.11.27-.36.34-.93.25-2.46.85-3.49,1.35-1.83.9-2.66,1.73-2.66,2.65s.76,1.29,2.7,1.29c1.12,0,2.14-.1,3.52-.33.06-.02.17-.03.2-.03.12,0,.19.06.25.18.04.15.15,1.06.15,1.43,0,.21-.06.28-.26.34-.33.08-2.14.18-3.28.18-1.92,0-3.2-.26-3.99-.79-.67-.47-1.04-1.2-1.04-2.1,0-.69.2-1.31.6-1.9.52-.78,1.09-1.27,2.35-2.02-.31-.29-.43-.5-.57-.96Z"/>
        <path d="M196.65,50.76c.27-.24.34-.3.45-.3.19,0,1.09.66,1.75,1.29.75.69,1.59,1.69,1.59,1.9,0,.14-.03.17-.46.56-.57.52-.69.61-.79.61-.09,0-.18-.06-.25-.21-.53-.93-1.73-2.16-2.79-2.85-.12-.09-.18-.15-.18-.24,0-.1.03-.15.69-.76Z"/>
        <path d="M212.5,45.76c-.27.02-.43.03-.61.05-.14.01-.15.01-.17.01-.12,0-.18-.04-.23-.19-.08-.24-.18-1.04-.19-1.48.17.01.6.03,1.14.03.17,0,1.35-.07,1.88-.12.25-1.21.34-1.84.34-2.65,1.54.21,2.1.39,2.1.68,0,.1-.01.13-.24.48-.12.18-.17.34-.42,1.27.7-.12,1.12-.23,1.68-.41.1-.03.15-.04.22-.04.11,0,.13.08.23.51.07.37.12.69.12.85,0,.18-.04.21-.43.3-.51.12-1.38.27-2.31.39-.56,1.68-.93,2.58-1.62,3.99-.53,1.05-.83,1.6-1.23,2.23-.12.18-.19.24-.3.24-.15,0-.57-.22-1.09-.61-.24-.17-.3-.24-.3-.35s.06-.19.25-.46c.43-.54,1-1.47,1.5-2.46.42-.82.57-1.17,1-2.35-.58.05-.63.06-1.32.1ZM217.44,54.4c-1.64,0-2.75-.9-2.75-2.23s1.15-2.41,2.7-2.41c.36,0,.53.01,1.14.1-.06-.72-.06-1.01-.12-2.4,0-.29-.03-.68-.06-1.16.77.08,1.35.17,1.64.29.12.04.18.12.18.24,0,.08-.01.14-.03.24-.08.31-.09.54-.09.94,0,.56.04,1.5.09,2.23,1.07.48,1.5.72,2.25,1.31.33.25.45.39.45.51,0,.15-.08.29-.5.96-.18.3-.31.44-.42.44q-.09,0-.51-.39c-.33-.33-.71-.58-1.23-.9,0,1.4-1.02,2.23-2.74,2.23ZM217.41,51.19c-.72,0-1.21.34-1.21.87,0,.5.45.81,1.12.81.79,0,1.21-.4,1.21-1.2,0-.12,0-.24-.02-.24-.3-.15-.7-.24-1.11-.24ZM223.02,46.93c-.18.26-.27.33-.38.33-.08,0-.13-.03-.24-.13-.38-.36-.9-.75-1.46-1.1q-.36-.22-1.02-.52c-.21-.09-.29-.15-.29-.27,0-.1.08-.24.3-.58.36-.52.45-.61.58-.61.28,0,1.39.57,2.19,1.11.65.44.84.61.84.78,0,.12-.24.57-.54,1Z"/>
        <path d="M232.26,42.3c.18.12.25.21.25.31s-.01.12-.24.38c-.08.09-.3.42-.54.83q-.75,1.25-1.16,1.96c-.42.71-.69,1.19-.84,1.41q-.04.07-.25.45c-.2.35-.32.52-.53.81.97-.85,1.5-1.08,2.49-1.08.66,0,1.25.29,1.62.78.31.42.4.81.54,2.28.07.88.15,1.27.25,1.5.1.21.31.33.58.33,1.03,0,2.26-1.25,2.86-2.88.15.63.27.93.58,1.48.11.18.14.3.14.45,0,.17-.08.38-.26.66-.78,1.26-2.05,2.01-3.42,2.01-.85,0-1.57-.3-1.95-.79-.3-.42-.44-.98-.56-2.44-.07-.96-.15-1.29-.36-1.53-.17-.18-.41-.27-.74-.27-.99,0-2.29,1.33-3.06,3.1-.22.51-.38.97-.54,1.54-.06.22-.13.31-.24.31-.31,0-1.04-.3-1.42-.58-.1-.09-.15-.15-.15-.24,0-.07.03-.15.22-.57.12-.27.17-.35.27-.62q1.11-2.59,4.19-8.82c.34-.69.51-1.12.61-1.58.78.29,1.14.47,1.62.79Z"/>
        <path d="M240.67,46.32h-.09c-.08.02-.13.02-.17.02-.13,0-.21-.06-.25-.26-.09-.37-.15-.82-.18-1.41.21.02.38.02.48.02.81,0,1.75-.06,2.55-.17.15-.99.23-1.74.23-2.37v-.34c1.74.24,2.07.33,2.05.6,0,.08-.03.12-.09.26-.18.34-.2.39-.44,1.57.58-.1,1.33-.3,1.64-.4.06-.03.07-.03.12-.03.13,0,.16.06.28.58.06.3.12.72.12.84,0,.11-.04.17-.18.2q-.27.09-2.33.45c-.69,3.06-1.41,5.29-2.56,7.99-.08.2-.15.27-.24.27-.2,0-.72-.21-1.23-.49-.26-.14-.33-.2-.33-.29,0-.06.04-.17.12-.31,1.14-2.16,1.97-4.45,2.54-6.91-.66.07-1.12.12-2.04.19ZM247.08,52.02c.43.29,1.06.42,1.95.42.97,0,1.81-.09,2.29-.24.12-.03.15-.04.21-.04.13,0,.19.04.24.18.11.31.18.93.18,1.4,0,.19-.06.27-.26.31-.49.1-1.33.17-2.22.17-1.88,0-2.92-.3-3.61-1.02-.25-.27-.46-.6-.58-.98-.09-.22-.15-.48-.15-.57,0-.25.45-.52,1.23-.78.17.63.34.92.72,1.15ZM251.29,47.65c-.3-.04-.93-.08-1.46-.08-1.11,0-1.58.05-2.89.27-.03.02-.08.02-.11.02-.09,0-.13-.03-.17-.12-.04-.1-.1-.84-.1-1.15,0-.19.03-.29.15-.33.06-.03.15-.04.46-.1,1.02-.18,1.88-.25,2.92-.25.87,0,1.32.03,1.43.1.07.06.09.18.09.67,0,.44-.03.83-.06.92-.01.04-.08.08-.15.08-.03,0-.08,0-.12-.02ZM249.64,42.37c.2,0,1.47,1.42,1.47,1.65,0,.06-.1.19-.22.29-.06.04-.15.12-.25.21-.13.12-.18.15-.33.21t-.08.03c-.06,0-.06-.01-.34-.45-.25-.39-.74-.99-.99-1.22-.03-.03-.07-.09-.07-.1.03-.06.04-.09.04-.09.07-.09.33-.3.39-.34.15-.08.24-.14.25-.15.01-.03.03-.03.04-.03h.09ZM252.18,43.42c-.21.15-.36.24-.43.24-.06,0-.09-.03-.17-.15-.33-.54-.65-.93-1.14-1.43-.04-.04-.06-.07-.06-.12,0-.14.57-.56.76-.56.11,0,.29.15.62.5.48.49.83.94.83,1.09,0,.09-.11.19-.41.42Z"/>
        <path d="M255.75,46.89c-.12.03-.18.06-.27.1-.08.04-.12.06-.2.06-.32,0-.55-.58-.74-1.69.12.02.23.02.29.02.63,0,2.24-.2,3.2-.39.31-1.32.48-2.31.48-3.03,0-.06,0-.14-.01-.25.64.07,1.26.21,1.68.38.24.09.36.22.36.38,0,.07-.02.12-.09.24q-.23.4-.69,2.06c.36-.05.76-.08,1.02-.08.62,0,1.1.12,1.44.36.6.44.9,1.32.9,2.69,0,2.23-.41,4.14-1.1,5.08-.48.66-1.11.98-1.99.98-.54,0-1.05-.07-1.2-.17q-.12-.07-.17-.63c-.04-.4-.13-.75-.32-1.17.78.25.98.3,1.46.3.72,0,1.02-.34,1.35-1.54.23-.79.35-1.83.35-2.92,0-1.17-.29-1.59-1.08-1.59-.27,0-.71.03-1.05.09-.04.17-.06.18-.12.39-.42,1.53-1.19,3.55-1.95,5.17-.79,1.63-.99,1.96-1.18,1.96-.12,0-.53-.21-.96-.5-.35-.21-.44-.3-.44-.42q0-.07.62-1.05c.83-1.27,1.91-3.78,2.28-5.25-1.11.24-1.73.39-1.86.44ZM263.4,45.21c0-.1.14-.24.57-.58.3-.23.45-.31.55-.31.09,0,.17.04.36.24.88.85,1.71,2,2.19,2.98.15.33.24.54.24.63,0,.15-.04.2-.52.58-.3.24-.65.44-.77.44-.1,0-.15-.04-.25-.3-.3-.73-.58-1.31-.94-1.86-.39-.6-.47-.69-1.35-1.64-.06-.09-.08-.13-.08-.18Z"/>
        <path d="M270.61,43.59c-.6,0-1.4.03-1.96.09v-1.71c.58.06,1.18.09,1.92.09h9.16c.84,0,1.46-.03,1.91-.09v1.71c-.57-.06-1.26-.09-1.88-.09h-2.91c-.29.57-.45.83-1.02,1.6v7.56c0,.68.03,1.27.1,1.81h-1.86c.06-.54.1-1.2.1-1.81v-4.32c0-.49,0-.84.02-1.33-.5.65-1.2,1.35-2.1,2.1-.71.57-1.44,1.08-2.74,1.9-.23-.52-.48-.88-1-1.48,1.87-.98,3.19-1.96,4.54-3.34.95-.98,1.43-1.6,2.04-2.69h-4.32ZM277,45.61c.74.85,1.26,1.38,2.1,2.06,1.08.87,1.91,1.38,2.96,1.84-.42.54-.67.93-.99,1.58-2.17-1.26-3.69-2.54-5.13-4.31l1.07-1.17Z"/>
        <path d="M293.26,47.89c-.54,1.47-.97,2.25-1.83,3.2,1.7.7,2.58,1.12,4.41,2.11l-1.19,1.33c-1.62-1.04-2.8-1.67-4.42-2.37-1.57,1.17-3.27,1.83-6.24,2.42-.22-.6-.44-1.02-.79-1.54,2.44-.3,3.97-.73,5.38-1.54-1.29-.5-1.62-.6-3.85-1.19.85-1.06,1.2-1.56,1.71-2.42h-1.64c-.72,0-1.14.02-1.57.08v-1.62c.43.06.73.08,1.57.08h2.48c.45-.85.72-1.47.85-2.02l1.74.25q-.15.3-.3.62c-.11.21-.29.6-.56,1.15h5.47c.84,0,1.16-.02,1.58-.08v1.62c-.45-.06-.88-.08-1.58-.08h-1.23ZM288.67,42.42c0-.45-.01-.75-.08-1.09h1.75c-.04.3-.06.65-.06,1.08v.26h3.88c.72,0,1.16-.02,1.65-.06-.04.36-.06.69-.06,1.09v1.06c0,.44.01.72.06,1.06h-1.56v-1.72h-9.31v1.72h-1.59c.04-.33.08-.65.08-1.06v-1.06c0-.33-.03-.72-.08-1.09.5.04.93.06,1.65.06h3.66v-.24ZM288.24,47.89c-.44.72-.58.98-1.11,1.71,1.41.41,1.71.51,2.79.9.83-.78,1.26-1.46,1.68-2.61h-3.36Z"/>
        <path d="M299.26,45.76c-.27.02-.43.03-.61.05-.14.01-.15.01-.17.01-.12,0-.18-.04-.23-.19-.08-.24-.18-1.04-.19-1.48.17.01.6.03,1.14.03.17,0,1.35-.07,1.88-.12.25-1.21.34-1.84.34-2.65,1.54.21,2.1.39,2.1.68,0,.1-.01.13-.24.48-.12.18-.17.34-.42,1.27.7-.12,1.12-.23,1.68-.41.1-.03.15-.04.22-.04.11,0,.13.08.23.51.07.37.12.69.12.85,0,.18-.04.21-.43.3-.51.12-1.38.27-2.31.39-.56,1.68-.93,2.58-1.62,3.99-.53,1.05-.83,1.6-1.23,2.23-.12.18-.19.24-.3.24-.15,0-.57-.22-1.09-.61-.24-.17-.3-.24-.3-.35s.06-.19.25-.46c.43-.54,1-1.47,1.5-2.46.42-.82.57-1.17,1-2.35-.58.05-.63.06-1.32.1ZM304.2,54.4c-1.64,0-2.75-.9-2.75-2.23s1.15-2.41,2.7-2.41c.36,0,.53.01,1.14.1-.06-.72-.06-1.01-.12-2.4,0-.29-.03-.68-.06-1.16.77.08,1.35.17,1.64.29.12.04.18.12.18.24,0,.08-.01.14-.03.24-.08.31-.09.54-.09.94,0,.56.04,1.5.09,2.23,1.07.48,1.5.72,2.25,1.31.33.25.45.39.45.51,0,.15-.08.29-.5.96-.18.3-.31.44-.42.44q-.09,0-.51-.39c-.33-.33-.71-.58-1.23-.9,0,1.4-1.02,2.23-2.74,2.23ZM304.17,51.19c-.72,0-1.21.34-1.21.87,0,.5.45.81,1.12.81.79,0,1.21-.4,1.21-1.2,0-.12,0-.24-.02-.24-.3-.15-.7-.24-1.11-.24ZM309.78,46.93c-.18.26-.27.33-.38.33-.08,0-.13-.03-.24-.13-.38-.36-.9-.75-1.46-1.1q-.36-.22-1.02-.52c-.21-.09-.29-.15-.29-.27,0-.1.08-.24.3-.58.36-.52.45-.61.58-.61.28,0,1.39.57,2.19,1.11.65.44.84.61.84.78,0,.12-.24.57-.54,1Z"/>
        <path d="M315.12,43.83c-.58.88-1.28,1.68-2.15,2.5-.38-.48-.67-.77-1.12-1.12,1.22-1.08,2.01-2.06,2.61-3.25.18-.36.27-.6.31-.9l1.73.25c-.04.07-.21.4-.51,1h6.64c.79,0,1.3-.03,1.8-.09v1.68c-.46-.04-1.05-.07-1.8-.07h-7.51ZM319.93,54.21c-.87-.85-1.5-1.42-2.49-2.22-1.14.96-2.1,1.56-4.17,2.59-.29-.51-.5-.78-1.08-1.36,1.95-.83,2.94-1.37,3.99-2.19-.84-.62-1.38-.96-2.5-1.64l1.05-.96c1.07.6,1.4.81,2.55,1.59.67-.7,1.08-1.3,1.24-1.84l1.54.73c-.15.18-.3.38-.61.81-.35.48-.57.78-.95,1.2.87.66,1.6,1.27,2.5,2.08l-1.08,1.2ZM314.35,48.01c-.73,0-1.23.03-1.65.08v-1.5c.3.06.66.08,1.25.08h7.32c.97,0,1.21-.02,1.67-.06-.04.45-.06.85-.06,1.33,0,1.48.13,2.76.4,3.67.17.55.25.75.5.97.2-.27.32-.94.34-2.13.48.44.75.63,1.23.87-.23,2.27-.66,3.18-1.54,3.18-.65,0-1.38-.76-1.79-1.84-.45-1.19-.63-2.5-.66-4.65h-7ZM314.7,44.49c.18.03.64.04,1.08.04h6.03c.74,0,1.2-.03,1.53-.07v1.44c-.41-.06-.79-.08-1.53-.08h-5.73c-.6,0-.99.02-1.38.06v-1.4Z"/>
        <path d="M96.48,72.73c-.12.03-.18.06-.27.1-.08.04-.12.06-.18.06-.33,0-.57-.57-.75-1.68h.29c.63,0,2.24-.2,3.2-.39.31-1.31.48-2.31.48-3.02,0-.06,0-.15-.01-.25.64.06,1.26.19,1.68.38.24.09.36.21.36.36,0,.08-.02.14-.09.26q-.23.39-.69,2.04c.36-.04.76-.07,1.02-.07.62,0,1.1.12,1.44.36.6.44.9,1.32.9,2.69,0,2.23-.41,4.15-1.1,5.1-.48.66-1.11.98-2,.98-.54,0-1.05-.08-1.2-.17q-.12-.08-.17-.63c-.04-.41-.13-.77-.32-1.19.78.27.98.31,1.46.31.72,0,1.02-.35,1.35-1.56.23-.79.35-1.81.35-2.92,0-1.17-.29-1.59-1.08-1.59-.27,0-.71.04-1.05.09-.04.18-.06.2-.12.39-.42,1.54-1.19,3.55-1.95,5.17-.79,1.63-.99,1.96-1.18,1.96-.12,0-.53-.21-.96-.5-.35-.21-.44-.3-.44-.42q0-.07.62-1.05c.83-1.27,1.91-3.77,2.28-5.25-1.11.25-1.73.39-1.86.44ZM105.9,69.65c-.24.18-.41.25-.48.25-.04,0-.09-.03-.13-.1-.32-.51-.84-1.1-1.28-1.47-.03-.03-.04-.06-.04-.09,0-.06.11-.17.36-.36.25-.18.33-.23.43-.23.24,0,1.56,1.33,1.56,1.58,0,.09-.12.19-.42.42ZM104.31,71.24c0-.1.13-.24.57-.58.3-.23.45-.31.57-.31.2,0,.87.72,1.5,1.6.52.75,1.09,1.81,1.09,2.07,0,.15-.04.19-.52.58-.3.24-.65.44-.77.44-.1,0-.15-.04-.25-.3-.29-.72-.54-1.21-.95-1.86-.4-.65-.43-.67-1.15-1.45-.06-.08-.09-.12-.09-.18ZM106.27,66.64c.25,0,1.53,1.27,1.53,1.53,0,.07-.09.17-.39.38-.27.21-.41.28-.46.28q-.08,0-.38-.42c-.25-.34-.74-.85-1-1.08-.04-.04-.08-.07-.08-.12,0-.12.62-.57.78-.57Z"/>
        <path d="M114.46,67.49c.37.1.48.18.48.35,0,.1-.01.15-.09.36-.17.44-.29,1.2-.34,2.25-.12,2.42-.18,4.29-.18,5.77,0,.48.04.84.12,1.08.17.5.69.75,1.53.75,1.35,0,2.62-.55,3.79-1.65.54-.51.87-.92,1.42-1.74.09.48.21.79.54,1.47.04.12.08.21.08.35,0,.27-.29.63-1.04,1.3-1.49,1.33-3.13,2.02-4.86,2.02-1.14,0-1.98-.28-2.52-.82-.57-.6-.79-1.38-.79-2.86,0-1.17.01-2.07.13-5.56.02-.52.03-.84.03-.98,0-1.27-.01-1.65-.11-2.29.77.03,1.35.09,1.8.21Z"/>
        <path d="M126.6,70.94c-.39.09-.53.13-1.07.33-.19.08-.3.1-.39.1-.33,0-.63-.61-.9-1.9.96-.04,1.31-.09,2.97-.34,1.8-.27,4.08-.62,5.28-.77,1.35-.18,2.43-.36,3-.48.1-.03.15-.03.22-.03.2,0,.27.09.41.47.12.31.21.76.21.98,0,.18-.06.24-.27.24-.32,0-.6.03-.89.08-2.53.42-4.56,2.64-4.56,4.98,0,1.75,1.38,2.91,3.72,3.12.21.01.29.09.29.27,0,.38-.15,1.09-.29,1.42-.08.17-.19.24-.39.24s-.65-.09-1.11-.22c-2.55-.75-3.88-2.37-3.88-4.67,0-1.25.41-2.4,1.19-3.39.42-.54.78-.84,1.63-1.43-1.96.33-4.04.72-5.17,1.01Z"/>
        <path d="M144.21,70.36c-1.29.22-2.62.37-3.43.37-.24,0-.34-.04-.38-.18-.06-.23-.12-.67-.15-1.23,1.22,0,2.15-.08,3.48-.29q-.08-.23-.27-.78c-.13-.36-.25-.66-.42-.98.65-.13,1.23-.21,1.77-.21.13,0,.21.09.21.24v.21c0,.27.06.63.21,1.21,1.12-.25,2.08-.57,2.85-.9.12-.04.15-.06.2-.06.07,0,.12.07.25.39.13.34.27.73.27.81s-.03.1-.12.15c-.88.38-1.29.51-3.03.94.21.52.27.66.52,1.2.83-.22,1.23-.36,1.53-.51l1.41-.71s.04-.03.04-.03c.01,0,.04.01.06.01.06,0,.12.09.25.38.18.36.33.77.33.85q0,.1-.31.27c-.83.45-1.47.71-2.55,1,.6.89,1.46,1.85,1.96,2.21s.52.39.52.54c0,.13-.15.45-.43.94-.25.44-.38.56-.54.56-.09,0-.11,0-.33-.17-.76-.58-2.31-.99-3.79-.99-1.29,0-2.1.45-2.1,1.2,0,.46.36.84,1,1.08.58.21,1.88.34,3.27.34.33,0,.62-.01,1.2-.04-.27.39-.41.66-.58,1.29-.09.31-.2.38-.66.38-1.6,0-3.03-.18-3.99-.52-1.28-.45-1.95-1.29-1.95-2.42,0-1.6,1.32-2.58,3.51-2.58,1.35,0,2.21.15,3.15.57-.84-.79-1.29-1.33-1.72-2.04-.72.15-1.08.21-1.56.29-.86.12-2.42.24-3.04.24-.48,0-.5-.02-.63-1.42.33.02.58.02.73.02.96,0,2.79-.2,3.79-.41-.18-.38-.38-.81-.54-1.24Z"/>
        <path d="M154.02,71.65h-.09c-.08.02-.14.02-.17.02-.13,0-.21-.06-.25-.25-.09-.38-.15-.84-.18-1.41.21.02.38.02.48.02.81,0,1.75-.06,2.55-.17.15-.99.22-1.75.22-2.37v-.35c1.74.23,2.07.33,2.06.6,0,.07-.03.12-.09.25-.18.35-.19.39-.43,1.57.58-.1,1.33-.3,1.63-.4.06-.03.08-.03.12-.03.13,0,.17.06.29.58.06.3.12.72.12.84,0,.1-.04.17-.18.19q-.27.09-2.32.45c-.69,3.04-1.41,5.29-2.57,7.99-.08.19-.15.27-.24.27-.2,0-.72-.21-1.23-.5-.25-.13-.33-.21-.33-.29,0-.06.04-.16.12-.31,1.14-2.16,1.96-4.45,2.54-6.93-.66.09-1.12.14-2.04.21ZM160.42,77.35c.44.29,1.07.42,1.95.42.97,0,1.82-.09,2.29-.24.12-.03.15-.04.21-.04.13,0,.2.04.24.18.1.31.18.93.18,1.39,0,.2-.06.27-.25.31-.5.11-1.33.17-2.22.17-1.88,0-2.92-.3-3.62-1.02-.25-.27-.46-.62-.58-.99-.09-.21-.15-.46-.15-.55,0-.26.45-.53,1.23-.78.17.63.34.9.72,1.15ZM164.64,72.98c-.3-.04-.93-.07-1.46-.07-1.11,0-1.57.04-2.89.27-.03.01-.08.01-.1.01-.09,0-.14-.03-.17-.12-.04-.1-.11-.84-.11-1.16,0-.19.03-.28.15-.33.06-.03.15-.04.46-.1,1.02-.18,1.88-.25,2.92-.25.87,0,1.32.03,1.42.1.08.06.09.18.09.68,0,.43-.03.82-.06.91-.02.05-.08.08-.15.08-.03,0-.08,0-.12-.02Z"/>
        <path d="M174.46,72.11c.03,1.12.06,1.71.21,3.21,1.26.41,1.86.66,2.75,1.14,1.18.67,1.79,1.12,1.79,1.33,0,.18-.2.52-.54,1.02-.23.33-.39.48-.51.48-.08,0-.14-.03-.24-.14-1.07-1.02-1.92-1.57-3.18-2.08-.03.91-.2,1.39-.63,1.84-.53.52-1.44.81-2.62.81-1.96,0-3.17-.87-3.17-2.29,0-1.52,1.32-2.48,3.38-2.48.5,0,.93.03,1.3.08-.15-2.46-.2-3.65-.21-5.85-.01-.87-.04-1.39-.13-2.1.69.02,1.38.09,1.79.19.24.08.33.15.33.31,0,.08-.01.12-.06.24-.17.39-.22.96-.25,2.62q.12,0,.58-.03c.72-.04,1.74-.23,2.88-.54.04-.01.08-.01.12-.01.09,0,.12.03.18.18.15.36.32,1.1.32,1.35,0,.12-.06.17-.2.21-1.16.27-2.77.5-3.66.5h-.21ZM171.52,76.43c-1.02,0-1.63.34-1.63.91,0,.53.51.8,1.46.8,1.15,0,1.66-.41,1.66-1.35v-.12c-.49-.18-.92-.24-1.48-.24Z"/>
        <path d="M184.71,73.43c0,.72-.58,1.3-1.3,1.3s-1.3-.58-1.3-1.3.58-1.31,1.3-1.31,1.3.58,1.3,1.31ZM189.7,73.43c0,.72-.58,1.3-1.3,1.3s-1.31-.58-1.31-1.3.58-1.31,1.31-1.31,1.3.58,1.3,1.31ZM194.71,73.43c0,.72-.58,1.3-1.3,1.3s-1.31-.58-1.31-1.3.58-1.31,1.31-1.31,1.3.58,1.3,1.31Z"/>
      </g>
      <circle class="cls-12" cx="31.42" cy="82.96" r="30"/>
      <g>
        <path class="cls-1" d="M325.81,203c1.81.14,1.23,2.13.34,3.29-.19.24-.54.27-.77.08-1.57-1.34-1.02-3.48.43-3.36Z"/>
        <path class="cls-1" d="M325.71,203.79c-.31,0-.57-.25-.57-.57v-3.57l-.9-1.25c-.18-.25-.12-.61.13-.79.25-.18.61-.12.79.13l1,1.4c.07.1.11.21.11.33v3.75c0,.31-.25.57-.57.57Z"/>
        <polygon class="cls-6" points="322.87 194.07 316.74 193.49 319.47 199 325.71 199.67 322.87 194.07"/>
        <rect class="cls-6" x="316.16" y="197.17" width="6.67" height="2.9" transform="translate(192.82 -155.61) rotate(38.45)"/>
        <path class="cls-1" d="M321.23,202.85c-.12,0-.25-.04-.35-.12-.25-.19-.29-.55-.09-.8l2.25-2.85c.12-.15.31-.23.51-.21l1.19.13-2.23-4.39-4.8-.45.7,1.41c.1.19.07.42-.06.59l-1.81,2.4c-.19.25-.54.3-.79.11-.25-.19-.3-.54-.11-.79l1.6-2.12-.99-2.01c-.09-.18-.08-.4.04-.57.12-.17.31-.27.52-.24l6.12.57c.19.02.37.13.45.31l2.84,5.6c.09.19.08.41-.04.58-.12.17-.32.26-.53.24l-1.92-.2-2.06,2.61c-.11.14-.28.22-.45.22Z"/>
        <path class="cls-7" d="M317.19,225.81l4.18-1.62,2.02-5.47-.29-8.15-2.24-7.54-3.74-4.67-5.59-1.9-5.52-.3-7.14,3.84-3.23,5.74-3.98,4.71-1.8,4.98,1.36,4.52,9.81,4.92c2.84,1.15,12.97,1.45,16.17.94Z"/>
        <path class="cls-13" d="M290.28,212.16c4.88.32,7.71,5.48,5.9,11.02-4.77-2.59-7.43-5.23-5.9-11.02Z"/>
        <path class="cls-13" d="M323.46,215.91c-5.64-.78-9.96,4.07-9.08,10.38,5.99-1.67,9.58-3.87,9.08-10.38Z"/>
        <path class="cls-1" d="M301.77,205.05c1.6-.65,3.04-.03,3.72,1.21.16.29-.14.55-.45.39-1.01-.51-1.99-.76-3.07-.96-.36-.07-.49-.51-.19-.64Z"/>
        <path class="cls-1" d="M314.47,207.49c-1.18-1.26-2.75-1.29-3.88-.44-.27.2-.1.55.25.54,1.13-.04,2.13.14,3.2.4.36.09.66-.26.44-.5Z"/>
        <path class="cls-1" d="M310.47,216.53c-.14,0-.27-.05-.39-.14-.25-.21-.29-.59-.07-.85.68-.81,1.51-1.23,2.34-1.19.75.04,1.43.46,1.93,1.18.19.27.12.65-.15.84-.27.19-.65.12-.84-.15-.2-.29-.53-.64-1-.66-.44-.02-.92.25-1.36.77-.12.14-.29.21-.46.21Z"/>
        <path class="cls-1" d="M303.02,215.27c-.19,0-.37-.09-.49-.25-.37-.52-.72-.8-1-.81,0,0,0,0-.02,0-.33,0-.68.34-.92.64-.21.26-.59.29-.85.08-.26-.21-.29-.59-.08-.85.6-.74,1.23-1.1,1.9-1.08.7.02,1.33.45,1.94,1.31.19.27.13.65-.14.84-.11.08-.23.11-.35.11Z"/>
        <path class="cls-1" d="M313.25,226.86c-.31,0-.56-.25-.57-.56,0-.31.24-.57.56-.58,3.72-.08,6.39-.95,7.93-2.58,1.98-2.1,1.87-5.19,1.79-7.45l-.02-.46c-.13-4.27-1.4-18.26-12.21-18.99-9.16-.62-12.59,5.21-14.85,9.07-.46.78-.86,1.46-1.24,1.98-.11.15-.23.31-.37.48-1.58,2.06-4.51,5.88-3.4,9.55.8,2.64,3.61,4.79,8.34,6.41,1.43.49,2.87.87,4.3,1.14.31.06.51.35.45.66s-.36.51-.66.45c-1.48-.28-2.97-.67-4.45-1.18-5.1-1.74-8.15-4.15-9.07-7.16-1.28-4.23,2.01-8.51,3.59-10.57.13-.17.25-.33.36-.47.35-.47.73-1.12,1.17-1.87,2.26-3.85,6.04-10.29,15.91-9.63,5.1.34,8.83,3.35,11.1,8.93,1.72,4.24,2.1,8.81,2.17,11.16l.02.46c.09,2.46.21,5.83-2.1,8.27-1.78,1.89-4.64,2.85-8.73,2.94,0,0,0,0-.01,0Z"/>
        <path class="cls-1" d="M301.36,213.96c-.06,0-.12-.02-.18-.06-.75-.6-1.14-1.21-1.43-2.27-.04-.15.05-.31.2-.35.15-.04.31.05.35.2.29,1.07.66,1.52,1.23,1.97.12.1.14.28.05.4-.06.07-.14.11-.22.11Z"/>
        <path class="cls-1" d="M313.35,215.49c-.14,0-.26-.1-.28-.25-.02-.16.09-.3.24-.32.67-.09,1.43-.66,1.87-1.39.08-.13.25-.18.39-.1.13.08.18.25.1.39-.52.88-1.44,1.55-2.28,1.67-.01,0-.03,0-.04,0Z"/>
        <path class="cls-1" d="M314.7,216.03c-.37,0-.75-.07-1.12-.24-.14-.07-.21-.23-.14-.38.07-.14.23-.2.38-.14.86.39,1.83.09,2.49-.24.14-.07.31-.01.38.13.07.14.01.31-.13.38-.5.25-1.16.48-1.86.48Z"/>
        <path class="cls-1" d="M300.49,213.96c-.8,0-1.66-.46-2.34-1.26-.1-.12-.09-.3.03-.4.12-.1.3-.09.4.03.62.73,1.4,1.13,2.07,1.05.16-.02.3.09.31.25.02.16-.09.3-.25.31-.07,0-.15.01-.22.01Z"/>
        <g>
          <path class="cls-4" d="M310.66,219.69c-.67-1.83-3.64-3.8-5.16-3.59-1.51.21-4.7,2.06-5.7,2s-1.68-.73-1.8,1.59,1.7,3.51,4.13,2.66c3.37,1.92,9.68.49,8.53-2.66Z"/>
          <path class="cls-4" d="M310.66,222.07c-.75,3.68-4.93,5.84-6.2,5.3-1.26-.54-2.85-1.42-1.47-4.62,2.5.53,6.91-.12,7.03-1.63s.63.96.63.96Z"/>
          <path class="cls-11" d="M304.24,223.07c-.73,1.35-.38,3.07,1.83,1.99,2.21-1.08,2.21-2.29,2.21-2.29,0,0,1.45-.73-.48,0-1.94.73-3.55.3-3.55.3Z"/>
          <path class="cls-1" d="M305.74,223.78c-1.06,0-2.19-.33-3.37-.99-2.29.66-3.56.04-4.23-.6-.84-.81-1.16-2.1-.83-3.37.34-1.28.9-1.38,1.8-1.41.65-.02,1.63-.04,3.22-.88,3.52-1.85,5.58-.79,7.59,1.38.19.2.18.52-.03.7-.2.19-.52.18-.7-.03-1.79-1.93-3.42-2.74-6.4-1.17-1.8.95-2.92.97-3.66.99-.69.02-.69.03-.86.67-.24.91-.02,1.85.55,2.4.71.68,1.91.79,3.46.3.13-.04.28-.02.4.05,1.93,1.13,4.69,1.81,6.88-1.38.13-.19.38-.27.6-.18,0,0,.72.29,1.36.43.27.06.44.32.38.59-.06.27-.33.44-.59.38-.42-.09-.85-.24-1.15-.34-1.22,1.63-2.73,2.45-4.41,2.45Z"/>
          <path class="cls-1" d="M305.05,227.92c-.6,0-1.18-.14-1.7-.42-.85-.46-1.39-1.1-1.6-1.92-.43-1.62.6-3.29.65-3.36.15-.23.45-.3.68-.16.23.15.3.45.16.68,0,.01-.85,1.39-.53,2.59.15.55.51.97,1.11,1.3.86.46,1.92.39,3-.19,1.51-.82,3.14-2.8,3.35-5.36.02-.27.26-.48.54-.45.27.02.48.26.45.54-.21,2.58-1.73,4.99-3.86,6.15-.76.41-1.52.62-2.25.62Z"/>
        </g>
      </g>
      <g>
        <path class="cls-8" d="M40.61,72.77c5.99-4.81,10.66-4.4,11.63-2.77.89,1.5-.2,9.39-9.11,4.98"/>
        <path class="cls-5" d="M44.85,75.35c2.15-3.69,6.52-2.97,7.64-2.44-1.95,3.62-3.96,4.96-7.64,2.44Z"/>
        <path class="cls-1" d="M47.84,76.92c-1.31,0-2.94-.38-4.99-1.39-.3-.15-.42-.51-.28-.82.15-.3.52-.42.82-.28,3.32,1.64,5.84,1.68,7.29.12,1.3-1.4,1.35-3.69,1.02-4.24-.21-.35-.72-.62-1.4-.75-.91-.16-4.27-.39-9.33,3.68-.26.21-.65.17-.86-.09-.21-.26-.17-.65.09-.86,3.68-2.96,7.53-4.43,10.31-3.92,1.04.19,1.83.66,2.23,1.32.64,1.09.43,3.95-1.18,5.69-.75.81-1.93,1.54-3.74,1.54Z"/>
        <path class="cls-8" d="M46.09,87c1.64-16.82-17.11-22.8-25.64-13.47-2.97,3.25-5.19,9.02-4.06,15.77-3.29,3.25-2.73,7.92,2.42,10.46,3.1,1.53,6.19,2.19,13.34,2.19,6.63,0,14.3-2.8,16.45-6.93,1.2-2.31.78-5.72-2.5-8.03Z"/>
        <path class="cls-2" d="M35.87,69.37c-.6-4.19-4.15-6.52-4.34-.47"/>
        <path class="cls-2" d="M24.19,70.43c-.51-4.2,2.31-7.38,4.07-1.58"/>
        <path class="cls-8" d="M19.73,73.49c-6.66-3.82-11.21-2.69-11.91-.92-.65,1.62,2.36,9.82,10.47,4.08"/>
        <ellipse class="cls-1" cx="35.35" cy="88.94" rx="1.44" ry="1.56" transform="translate(-13.41 6.58) rotate(-8.95)"/>
        <path class="cls-5" d="M16.46,77.31c-2.15-3.69-7.03-2.78-8.16-2.25,1.95,3.62,4.47,4.77,8.16,2.25Z"/>
        <path class="cls-5" d="M29.29,68.89c1.23,7.46-2.33,14.45-12.53,14.45,0-11.42,12.53-14.45,12.53-14.45Z"/>
        <path class="cls-5" d="M31.53,68.9c0,8.41,6.81,12.72,13.84,13.25,0-11.42-13.84-13.25-13.84-13.25Z"/>
        <path class="cls-5" d="M15.31,95.76c13.81-6.39,25.45-3.61,33.28-.74-3.13,7.57-29.25,10.15-33.28.74Z"/>
        <path class="cls-1" d="M32.15,102.57c-7.59,0-10.64-.79-13.61-2.26-2.68-1.33-4.37-3.31-4.74-5.59-.32-1.98.37-3.96,1.94-5.63-1.1-7.13,1.47-12.92,4.26-15.97,4.25-4.65,11.25-5.93,17.42-3.18,3.01,1.34,5.47,3.51,7.11,6.28,1.79,3.02,2.53,6.54,2.2,10.49,3.38,2.56,3.63,6.22,2.4,8.6-2.36,4.54-10.49,7.26-16.99,7.26ZM30.77,69.72c-3.76,0-7.35,1.46-9.87,4.22-2.64,2.89-5.06,8.42-3.91,15.26.03.2-.03.39-.17.53-1.44,1.42-2.08,3.13-1.81,4.79.3,1.88,1.75,3.54,4.07,4.69,2.8,1.38,5.71,2.13,13.07,2.13,6.88,0,14.01-2.96,15.91-6.6,1.03-1.98.75-5.1-2.31-7.25-.18-.13-.28-.34-.26-.56.71-7.25-2.49-13.19-8.56-15.89-2.01-.89-4.11-1.33-6.15-1.33Z"/>
        <ellipse cx="35.35" cy="88.94" rx="1.44" ry="1.56" transform="translate(-13.41 6.58) rotate(-8.95)"/>
        <ellipse class="cls-1" cx="27.68" cy="89.3" rx="1.56" ry="1.44" transform="translate(-62.9 112.44) rotate(-87.1)"/>
        <path class="cls-1" d="M13.08,79.28c-1.46,0-2.58-.54-3.4-1.18-2.09-1.64-2.9-4.58-2.43-5.75.29-.72.99-1.3,1.99-1.65,2.66-.93,6.69-.08,10.79,2.27.29.17.39.54.22.83-.17.29-.54.39-.83.22-5.62-3.23-8.91-2.48-9.78-2.18-.65.23-1.11.57-1.26.95-.21.53.31,2.97,2.06,4.35,1.89,1.49,4.48,1.14,7.49-.99.27-.19.65-.13.85.15.19.27.13.65-.15.85-2.23,1.58-4.07,2.14-5.55,2.14Z"/>
        <path class="cls-1" d="M35.87,69.98c-.3,0-.56-.22-.6-.52-.32-2.23-1.48-3.66-2.12-3.62-.31.02-.93.69-1,3.09-.01.34-.3.59-.63.59-.34-.01-.6-.29-.59-.63.11-3.61,1.4-4.22,2.15-4.27.03,0,.06,0,.09,0,1.46,0,2.94,2.06,3.31,4.67.05.33-.18.64-.52.69-.03,0-.06,0-.09,0Z"/>
        <path class="cls-1" d="M24.19,71.04c-.3,0-.57-.23-.6-.54-.32-2.66.61-5.08,2.07-5.39.74-.15,2.14.1,3.19,3.56.1.32-.08.66-.41.76-.32.1-.66-.08-.76-.41-.7-2.3-1.46-2.78-1.77-2.72-.62.13-1.38,1.81-1.11,4.05.04.33-.2.64-.53.68-.02,0-.05,0-.07,0Z"/>
        <path class="cls-1" d="M36.62,80.47c-.65-1.09-1.64-1.26-2.41-.7-.18.13-.11.42.12.44.71.07,1.33.3,1.98.61.22.1.44-.14.31-.35Z"/>
        <path class="cls-1" d="M25.72,80.88c.65-1.09,1.64-1.26,2.41-.7.18.13.11.42-.12.44-.71.07-1.33.3-1.98.61-.22.1-.44-.14-.31-.35Z"/>
        <circle class="cls-1" cx="33" cy="94.88" r=".57"/>
        <circle class="cls-1" cx="31.21" cy="94.88" r=".57"/>
        <g>
          <path class="cls-3" d="M27.76,97.95c.26-1.62,1.74-1.61,4.44-1.25,2.71.36,2.2,2.71.36,2.65s-5.11.51-4.8-1.4Z"/>
          <path class="cls-1" d="M30.31,99.84c-1.12,0-2.14-.12-2.67-.72-.29-.32-.39-.74-.31-1.24h0c.36-2.23,2.69-1.92,4.94-1.62,1.77.23,2.33,1.23,2.27,2.01-.06.77-.78,1.57-1.98,1.53-.34,0-.74,0-1.17.02-.36.01-.72.02-1.08.02ZM28.2,98.02c-.05.3.03.44.1.51.42.48,1.94.43,3.05.39.44-.01.85-.03,1.22-.02.66.02,1.04-.34,1.07-.71.03-.42-.42-.91-1.49-1.05-2.96-.39-3.77-.21-3.94.88h0Z"/>
        </g>
      </g>
    </g>
  </g>
</svg>