<?xml version="1.0" encoding="UTF-8"?>
<svg id="_レイヤー_2" data-name="レイヤー 2" xmlns="http://www.w3.org/2000/svg" width="374" height="77.36" viewBox="0 0 374 77.36">
  <defs>
    <style>
      .cls-1 {
        fill: #d4e9de;
      }

      .cls-2 {
        fill: #fff;
      }

      .cls-3 {
        fill: #739b9e;
      }
    </style>
  </defs>
  <g id="_レイヤー_1-2" data-name="レイヤー 1">
    <g>
      <rect class="cls-1" x="0" y="0" width="374" height="77.36"/>
      <rect class="cls-2" x="7.58" y="14.39" width="358.85" height="51.32" rx="25.57" ry="25.57"/>
      <g>
        <path class="cls-3" d="M114.72,36.92c0-.39-.01-.92-.04-1.22.62.07,1.08.16,1.45.3.32.12.43.2.43.35q0,.08-.05.22c-.18.46-.23.97-.23,2.2,0,1.73.11,2.81.38,3.63.2.63.51,1,.88,1,.55,0,1.01-.65,1.51-2.15.26.69.35.89.73,1.38.07.09.11.19.11.28,0,.22-.2.68-.47,1.07-.53.77-1.2,1.19-1.92,1.19-1.04,0-1.82-.84-2.31-2.5-.31-1.08-.46-2.44-.46-4.33v-1.42ZM122.75,37.14c.08,0,.15.04.26.13.68.65,1.38,1.73,1.82,2.78.3.72.58,1.67.58,1.96,0,.13-.07.2-.35.35-.31.16-.95.38-1.11.38-.12,0-.18-.07-.22-.31-.18-1.04-.42-1.8-.84-2.67-.38-.78-.41-.82-1.32-1.96.57-.42,1.01-.66,1.17-.66Z"/>
        <path class="cls-3" d="M133.5,39.1c.53-.22,1.23-.35,1.71-.35,2.07,0,3.42,1.19,3.42,2.98,0,1.23-.63,2.34-1.71,3.02-.88.54-2.5.96-3.78.96q-.41,0-.53-.36c-.11-.32-.32-.66-.59-.93,1.85-.11,2.43-.2,3.28-.58,1.12-.47,1.7-1.22,1.7-2.13,0-1.03-.74-1.73-1.85-1.73-1.46,0-3.16.81-4.62,2.2-.2.2-.31.31-.77.86-.12.16-.22.22-.3.22-.24,0-1.11-.97-1.11-1.26,0-.08.03-.12.23-.3.97-.85,3.4-3.43,5.13-5.46-1.34.16-2.48.36-3,.54-.24.09-.31.11-.36.11-.12,0-.18-.07-.26-.31-.13-.36-.24-.9-.3-1.43.18.03.31.04.53.04,1.31,0,4.11-.32,4.58-.54.16-.07.22-.08.3-.08.23,0,.49.2.86.68.24.28.34.45.34.54,0,.14-.08.23-.28.34-.18.11-.31.2-.5.36-.3.23-.41.34-1.35,1.26q-1.23,1.2-2.15,2.07c.73-.43,1.04-.59,1.38-.72Z"/>
        <path class="cls-3" d="M147.86,34.95c.16.11.23.19.23.28s-.01.11-.22.34c-.07.08-.27.38-.49.74q-.68,1.12-1.04,1.77c-.38.63-.62,1.07-.76,1.27q-.04.07-.23.41c-.18.31-.28.47-.47.73.88-.77,1.35-.97,2.24-.97.59,0,1.12.26,1.46.7.28.38.36.73.49,2.05.07.8.14,1.15.23,1.35.09.19.28.3.53.3.93,0,2.04-1.12,2.58-2.59.14.57.24.84.53,1.34.09.16.12.27.12.41,0,.15-.07.34-.23.59-.7,1.13-1.85,1.81-3.08,1.81-.77,0-1.42-.27-1.76-.72-.27-.38-.39-.88-.5-2.2-.07-.86-.13-1.16-.32-1.38-.15-.16-.36-.24-.66-.24-.89,0-2.07,1.2-2.75,2.8-.2.46-.34.88-.49,1.39-.05.2-.12.28-.22.28-.28,0-.93-.27-1.28-.53-.09-.08-.13-.14-.13-.22,0-.07.03-.13.2-.51.11-.24.15-.31.24-.55q1-2.34,3.77-7.94c.31-.62.46-1.01.55-1.42.7.26,1.03.42,1.46.72Z"/>
        <path class="cls-3" d="M156.93,38.07c-.24.01-.39.03-.55.04-.12.01-.14.01-.15.01-.11,0-.16-.04-.2-.18-.07-.22-.16-.93-.18-1.34.15.01.54.03,1.03.03.15,0,1.22-.07,1.69-.11.23-1.09.31-1.66.31-2.39,1.39.19,1.89.35,1.89.61,0,.09-.01.12-.22.43-.11.16-.15.31-.38,1.15.63-.11,1.01-.2,1.51-.36.09-.03.14-.04.2-.04.09,0,.12.07.2.46.07.34.11.62.11.77,0,.16-.04.19-.39.27-.46.11-1.24.24-2.08.35-.5,1.51-.84,2.32-1.46,3.59-.47.95-.74,1.44-1.11,2.01-.11.16-.18.22-.27.22-.14,0-.51-.2-.99-.55-.22-.15-.27-.22-.27-.31s.05-.18.23-.42c.39-.49.9-1.32,1.35-2.21.38-.74.51-1.05.9-2.12-.53.04-.57.05-1.19.09ZM161.38,45.85c-1.47,0-2.47-.81-2.47-2.01s1.04-2.17,2.43-2.17c.32,0,.47.01,1.03.09-.05-.65-.05-.9-.11-2.16,0-.26-.03-.61-.05-1.04.69.07,1.22.15,1.47.26.11.04.16.11.16.22,0,.07-.01.12-.03.22-.07.28-.08.49-.08.85,0,.5.04,1.35.08,2.01.96.43,1.35.65,2.03,1.17.3.23.41.35.41.46,0,.13-.07.26-.45.86-.16.27-.28.39-.38.39q-.08,0-.46-.35c-.3-.3-.63-.53-1.11-.81,0,1.26-.92,2.01-2.47,2.01ZM161.35,42.96c-.65,0-1.09.31-1.09.78,0,.45.41.73,1.01.73.72,0,1.09-.36,1.09-1.08,0-.11,0-.22-.01-.22-.27-.13-.63-.22-1-.22ZM166.4,39.12c-.16.23-.24.3-.34.3-.07,0-.12-.03-.22-.12-.34-.32-.81-.68-1.31-.99q-.32-.2-.92-.47c-.19-.08-.26-.14-.26-.24,0-.09.07-.22.27-.53.32-.47.41-.55.53-.55.26,0,1.26.51,1.97,1,.58.39.76.55.76.7,0,.11-.22.51-.49.9Z"/>
        <path class="cls-3" d="M171.84,38.3c-.86.54-1.16.7-2.08,1.12-.23-.53-.43-.88-.76-1.34,1.38-.54,2.28-1.04,3.25-1.8.86-.66,1.51-1.36,2.05-2.19h1.53c.69.96,1.22,1.47,2.2,2.16,1.09.78,2.16,1.34,3.34,1.76-.36.55-.54.92-.73,1.46-.81-.35-1.31-.62-2.2-1.19v1.01c-.35-.04-.68-.05-1.16-.05h-4.33c-.36,0-.76.01-1.11.05v-1ZM171.12,41.63c-.68,0-1.11.03-1.53.08v-1.5c.41.04.92.07,1.53.07h8.06c.65,0,1.09-.03,1.53-.07v1.5c-.43-.05-.86-.08-1.53-.08h-4.44c-.43.99-.84,1.74-1.35,2.51q2.24-.12,4.1-.32c-.42-.46-.65-.7-1.36-1.43l1.28-.57c1.39,1.4,1.96,2.07,3,3.44l-1.26.82c-.36-.55-.47-.72-.77-1.12-1.08.14-1.85.23-2.34.27-1.35.13-3.81.36-4.36.4-.73.04-1.38.11-1.67.18l-.2-1.58c.39.03.55.04.73.04.11,0,.5-.01,1.16-.05.63-.97,1.04-1.74,1.38-2.59h-1.96ZM177.27,37.89c.18,0,.3,0,.57-.01-1.17-.78-1.93-1.49-2.71-2.53-.68.92-1.46,1.66-2.69,2.53.22.01.32.01.53.01h4.31Z"/>
        <path class="cls-3" d="M186.34,44.7c0,.61.01.95.08,1.32h-1.57c.05-.39.08-.74.08-1.35v-3.25c-.53.47-.8.68-1.44,1.11-.16-.5-.39-.97-.66-1.35.9-.53,1.53-1.01,2.23-1.76.61-.63.99-1.17,1.4-2h-2.11c-.46,0-.77.01-1.08.05v-1.44c.34.04.59.05,1.01.05h.66v-1.08c0-.35-.03-.69-.08-.99h1.55c-.05.28-.07.59-.07,1v1.07h.54c.39,0,.54-.01.74-.04l.62.68c-.11.18-.19.34-.28.55-.43.95-.66,1.34-1.3,2.21.61.69,1.2,1.16,2.05,1.63-.3.42-.49.77-.7,1.28-.69-.43-1.09-.8-1.69-1.46v3.75ZM191.85,44.08h1.55c.65,0,1.09-.03,1.49-.07v1.55c-.46-.05-.96-.08-1.49-.08h-4.43c-.54,0-1.01.03-1.46.08v-1.55c.4.04.86.07,1.47.07h1.42v-5.06h-.97c-.43,0-.86.03-1.27.07v-1.47c.36.05.73.07,1.27.07h.97v-2.28c0-.54-.03-.85-.08-1.35h1.61c-.07.51-.08.77-.08,1.35v2.28h1.36c.59,0,.93-.01,1.28-.07v1.47c-.42-.04-.82-.07-1.28-.07h-1.36v5.06Z"/>
        <path class="cls-3" d="M200.55,42.08c.04.07.05.12.05.19,0,.09-.01.11-.13.41-.27.62-.59,1.59-.76,2.32-.04.15-.08.23-.13.26-.07.03-.53.09-.68.09h-.05c-.07,0-.16-.01-.27-.01-.18,0-.22-.04-.27-.2-.26-.88-.46-2.69-.46-4.05,0-1.49.09-2.4.47-4.43.13-.73.2-1.13.26-1.58.57.11,1.05.24,1.46.43.23.09.3.16.3.3,0,.09-.01.13-.16.35-.45.72-.94,3.58-.94,5.51,0,.31.01.73.05,1.4.38-.85.51-1.11.82-1.77.12.28.2.42.45.78ZM203.48,43.04c.43.23.95.31,1.85.31s1.38-.07,2.21-.31c.08-.03.15-.04.19-.04.09,0,.16.05.18.19.07.46.12,1,.12,1.27,0,.13-.04.18-.23.23-.73.19-1.47.28-2.38.28-1.24,0-2.01-.15-2.65-.53-.59-.36-1.22-1.11-1.22-1.47,0-.19.28-.45,1.01-.89.24.49.47.73.9.96ZM202.54,36.15c.3.07,1.16.12,1.82.12.89,0,1.78-.07,2.62-.22q.07-.01.12-.01c.09,0,.14.04.16.15.03.13.07.73.07,1.09,0,.2-.04.27-.19.3-.55.11-1.47.18-2.44.18-1.16,0-2.2-.07-2.34-.15-.07-.04-.09-.14-.09-.38,0-.36.04-.9.07-1.01.01-.05.05-.08.14-.08.01,0,.04,0,.07.01Z"/>
        <path class="cls-3" d="M214.13,39.81c-.43,0-.76.01-1.09.07v-.93c-.61.63-.95.93-1.62,1.44-.22-.43-.54-.84-1-1.27,1.61-1.12,2.59-2.19,3.42-3.73.31-.57.45-.92.51-1.31l1.55.57c-.13.2-.2.32-.35.66-.47,1.01-1.24,2.19-2.08,3.15.34.03.41.03.68.03h4.75c.32,0,.5,0,.81-.01-.9-1.01-1.57-2.04-2.13-3.25-.05-.14-.18-.36-.27-.54l1.43-.57c.11.35.23.63.51,1.13.86,1.57,1.96,2.73,3.58,3.75-.53.62-.63.78-.99,1.4-.72-.54-1.05-.82-1.59-1.36-.01.18-.01.22-.01.45,0,2.69-.2,4.74-.54,5.42-.28.57-.76.76-1.86.76-.27,0-.53-.01-1.38-.05-.07-.57-.15-.89-.38-1.51.59.09,1.19.16,1.55.16.49,0,.63-.05.74-.24.2-.38.41-2.11.41-3.46v-.74h-2.48c-.11,1.38-.39,2.3-1.01,3.31-.72,1.2-1.77,2.09-3.29,2.86-.24-.47-.45-.76-.95-1.27.8-.3,1.34-.62,2-1.19.9-.78,1.49-1.8,1.7-2.96.04-.23.07-.36.09-.76h-.7Z"/>
        <path class="cls-3" d="M226.24,34.92v-.19c.85.15,1.28.27,1.63.45.09.04.12.09.12.19,0,.05-.03.12-.08.22-.12.22-.16.38-.36,1.27-.26,1.16-.39,2.46-.39,3.88,0,.76.03,1.18.11,1.89l.72-1.44c.08.28.19.51.35.7.11.14.12.18.12.28s0,.11-.26.68c-.28.61-.45,1.13-.59,1.82-.04.22-.08.28-.15.31-.11.05-.57.12-.84.12-.19,0-.26-.04-.3-.16-.32-.92-.59-2.81-.59-4.16,0-1.16.15-2.77.39-4.46.08-.55.12-.96.12-1.24v-.15ZM230.85,38.74c-.76,0-.97-.03-1.04-.12-.09-.12-.18-.68-.18-1.17v-.2c.54.05.97.08,1.66.08.53,0,.82-.01,1.36-.05-.04-1.4-.12-2.24-.28-2.67h.36c.47,0,1.05.04,1.35.11.13.03.2.11.2.22,0,.05-.01.11-.04.2-.07.19-.11.49-.11.84,0,.2.01.84.01,1v.14c.68-.11,1-.18,1.57-.36.05-.01.11-.03.16-.03.08,0,.12.04.15.12.05.15.11.68.11.97,0,.22-.04.31-.15.35-.18.07-1,.23-1.8.34.01.38.01.58.01.8,0,1.99-.24,3.4-.78,4.47-.49.96-1.54,2.08-1.97,2.08-.12,0-.18-.03-.32-.16-.45-.39-.53-.46-1.05-.7.95-.53,1.55-1.09,1.97-1.86.45-.82.69-1.96.69-3.2,0-.09,0-.32-.01-.65-.01-.14-.01-.34-.03-.61-.49.04-1.58.09-1.85.09Z"/>
        <path class="cls-3" d="M240.73,37.77c-.35.08-.47.12-.96.3-.18.07-.27.09-.35.09-.3,0-.57-.55-.81-1.72.86-.04,1.17-.08,2.67-.31,1.62-.24,3.67-.55,4.75-.69,1.22-.16,2.19-.32,2.7-.43.09-.03.14-.03.2-.03.18,0,.24.08.36.42.11.28.19.69.19.88,0,.16-.05.22-.24.22-.28,0-.54.03-.8.07-2.28.38-4.1,2.38-4.1,4.48,0,1.58,1.24,2.62,3.35,2.81.19.01.26.08.26.24,0,.34-.14.99-.26,1.28-.07.15-.18.22-.35.22s-.58-.08-1-.2c-2.3-.67-3.5-2.13-3.5-4.2,0-1.12.36-2.16,1.07-3.05.38-.49.7-.76,1.47-1.28-1.77.3-3.63.65-4.66.9Z"/>
        <path class="cls-3" d="M254.85,43.86c-.54,0-.95.01-1.39.05.04-.36.05-.81.05-1.53v-2.98c0-.63-.01-1.07-.05-1.46.41.03.69.04,1.35.04h6.58c.76,0,1.05-.01,1.43-.04-.04.42-.05.78-.05,1.47v3.01c0,.72.01,1.19.05,1.49-.42-.04-.82-.05-1.38-.05h-.96c.92.51,2.13.84,3.71,1.01-.3.39-.46.68-.7,1.27-1.16-.18-1.73-.32-2.55-.65-.78-.32-1.22-.54-1.9-1l.77-.63h-3.63l.81.63c-.63.47-1.04.7-1.77,1-.82.34-1.39.5-2.38.69-.16-.46-.36-.76-.78-1.19,1.66-.26,2.82-.63,3.55-1.13h-.76ZM263.55,36.49c0,.49.01.73.05,1.04-.32-.03-.65-.04-1.34-.04h-8.28c-.65,0-1.07.01-1.35.04.04-.32.05-.55.05-1.04v-1.01c0-.5-.01-.73-.05-1.09.36.04.73.05,1.46.05h8.05c.73,0,1.09-.01,1.46-.05-.04.35-.05.59-.05,1.09v1.01ZM255.82,35.54h-1.8v.84h1.8v-.84ZM254.92,39.64h6.44v-.57h-6.44v.57ZM254.92,41.18h6.44v-.55h-6.44v.55ZM254.92,42.77h6.44v-.61h-6.44v.61ZM258.93,35.54h-1.8v.84h1.8v-.84ZM262.17,36.38v-.84h-1.93v.84h1.93Z"/>
        <path class="cls-3" d="M270.32,37.76c.88-.23,1.46-.31,2.09-.31,1.92,0,3.02,1.13,3.02,3.08,0,1.69-.73,3.05-2.2,4.13-.78.58-1.97,1.16-2.36,1.16-.18,0-.22-.04-.5-.45-.2-.31-.41-.5-.74-.74,1.55-.53,2.2-.86,2.9-1.47.81-.72,1.22-1.58,1.22-2.61,0-1.09-.51-1.71-1.42-1.71-.73,0-1.67.28-2.9.88-.18.08-.27.15-.5.31-.05.03-.11.05-.16.05-.26,0-.69-.76-.99-1.77.5-.04.76-.11,2.54-.55ZM271.22,34.46c.49.15,1.22.28,1.88.36.27.03.36.04,1.05.07.2,0,.26.05.26.2,0,.45-.09,1.17-.18,1.31-.03.08-.09.11-.19.11-.31,0-1.4-.15-2.04-.28-1.07-.22-2-.49-2.19-.63-.04-.04-.07-.09-.07-.15,0-.11.28-.84.42-1.09.07-.11.11-.14.19-.14q.07,0,.86.24Z"/>
        <path class="cls-3" d="M283.95,38.58c-.18-.59-.23-.96-.39-2.62-.05-.65-.11-.97-.24-1.43.82.01,1.35.05,1.72.15.2.05.3.15.3.3,0,.05-.01.12-.04.23-.09.32-.13.57-.13.92,0,.66.13,1.74.28,2.21.08.26.16.35.31.35.32,0,1.51-.62,2.16-1.12.18-.14.2-.15.27-.15.12,0,.24.09.45.35.34.46.61.96.61,1.15,0,.15-.09.24-.32.31-.84.23-2.21.77-3.15,1.22-1.65.81-2.39,1.55-2.39,2.39s.69,1.16,2.43,1.16c1.01,0,1.93-.09,3.17-.3.05-.01.15-.03.18-.03.11,0,.18.05.23.16.04.14.14.96.14,1.28,0,.19-.05.26-.23.31-.3.07-1.93.16-2.96.16-1.73,0-2.88-.23-3.59-.72-.61-.42-.93-1.08-.93-1.89,0-.62.18-1.17.54-1.71.47-.7.99-1.15,2.12-1.82-.28-.26-.39-.45-.51-.86Z"/>
        <path class="cls-3" d="M302.92,39.99c-.49,1.32-.88,2.03-1.65,2.88,1.53.63,2.32,1.01,3.97,1.9l-1.07,1.2c-1.46-.93-2.53-1.5-3.98-2.13-1.42,1.05-2.94,1.65-5.62,2.17-.2-.54-.39-.92-.72-1.39,2.2-.27,3.58-.66,4.85-1.39-1.16-.45-1.46-.54-3.47-1.07.77-.96,1.08-1.4,1.54-2.17h-1.47c-.65,0-1.03.01-1.42.07v-1.46c.39.05.66.07,1.42.07h2.23c.4-.77.65-1.32.77-1.82l1.57.23q-.13.27-.27.55c-.09.19-.26.54-.5,1.04h4.93c.76,0,1.04-.01,1.42-.07v1.46c-.4-.05-.8-.07-1.42-.07h-1.11ZM298.79,35.06c0-.41-.01-.68-.07-.99h1.58c-.04.27-.05.58-.05.97v.23h3.5c.65,0,1.04-.01,1.49-.05-.04.32-.05.62-.05.99v.96c0,.39.01.65.05.96h-1.4v-1.55h-8.39v1.55h-1.43c.04-.3.07-.58.07-.96v-.96c0-.3-.03-.65-.07-.99.45.04.84.05,1.49.05h3.29v-.22ZM298.4,39.99c-.39.65-.53.88-1,1.54,1.27.36,1.54.46,2.51.81.74-.7,1.13-1.31,1.51-2.35h-3.02Z"/>
        <path class="cls-3" d="M307.34,43.31c.88-1.66,1.16-2.69,1.47-5.27l1.43.3c-.43,3.15-.65,3.97-1.49,5.78l-1.42-.81ZM312.44,43.92c0,.31.24.38,1.44.38,1.04,0,1.4-.09,1.55-.39.16-.36.26-1.22.28-2.57.57.27.9.39,1.44.51-.11,1.77-.24,2.5-.53,3.04-.36.67-.93.82-3.01.82-1.5,0-2-.08-2.35-.36-.23-.19-.32-.49-.32-1.03v-6.12c0-.49-.01-.78-.08-1.32h1.65c-.05.42-.08.8-.08,1.28v5.75ZM315.28,37.33c-1.28-.86-2.25-1.34-4.38-2.09l.82-1.24c1.93.66,2.92,1.09,4.44,1.96l-.89,1.38ZM318.23,43.82c-.59-2.24-1.15-3.66-2.09-5.37l1.38-.62c.96,1.7,1.46,2.89,2.19,5.25l-1.47.74Z"/>
        <path class="cls-3" d="M323.87,36.76c.31-.81.61-1.24,1.12-1.67.62-.51,1.36-.76,2.31-.76,2.03,0,3.32,1.11,3.32,2.84,0,.58-.16,1.13-.47,1.58-.24.35-.35.46-1.11,1.15-1.05.95-1.28,1.31-1.28,2.03v.72h-1.38v-.76c0-.61.12-1.15.36-1.58.19-.34.39-.57.93-1.11.57-.55.74-.76.89-1,.19-.27.3-.65.3-1.01,0-.9-.61-1.47-1.57-1.47s-1.53.5-1.93,1.67l-1.5-.62ZM328.18,44.63c0,.59-.47,1.07-1.07,1.07s-1.07-.47-1.07-1.07.47-1.07,1.07-1.07,1.07.47,1.07,1.07Z"/>
      </g>
      <g>
        <g>
          <path class="cls-3" d="M43.64,35.58c.02-1.97.63-3.49,1.83-4.55,1.13-1.05,2.47-1.58,4.03-1.58s2.98.53,4.1,1.58c1.15,1.06,1.74,2.58,1.77,4.56v9.42c-.04,1.96-.63,3.48-1.77,4.54-1.13,1.05-2.5,1.59-4.1,1.61-1.56-.02-2.91-.56-4.03-1.61-1.2-1.06-1.81-2.57-1.83-4.53v-9.44ZM52.43,35.77c-.06-2.14-1.03-3.23-2.92-3.27-1.9.04-2.87,1.13-2.91,3.27v9.07c.04,2.16,1.01,3.25,2.91,3.27,1.89-.02,2.87-1.11,2.92-3.27v-9.07Z"/>
          <path class="cls-3" d="M62.73,32.86l-2.94,2.23v-3.26l2.94-2.2h2.96v21.36h-2.96v-18.13Z"/>
        </g>
        <path class="cls-3" d="M33.72,42.84c-.76.79-1.8,1.41-3.01,1.81-.17-.32-.31-.52-.56-.82,1.2-.29,2.21-.79,2.94-1.47h-1.5c-.05.18-.06.22-.13.43l-1.01-.02c.24-.56.38-1.02.49-1.58.08-.39.14-.77.14-.95.17.02.4.03.82.03h1.78l-.02-.58h-1.93c-.34,0-.56,0-.8.04v-.83c-.1.08-.13.12-.26.23-.17-.29-.35-.5-.56-.69.74-.57,1.16-1.12,1.35-1.76l.93.17c-.11.23-.14.29-.25.47h1.11c.41,0,.64-.02.85-.04v.7c.34-.4.55-.78.7-1.3l.92.16q-.07.17-.22.49h1.65c.46,0,.67,0,.95-.05v.9c-.26-.04-.52-.05-.9-.05h-.68c.23.33.23.35.38.59l-.71.2h.41c.43,0,.59,0,.81-.03-.03.16-.04.3-.04.61v.91c0,.31,0,.45.04.63-.2-.02-.47-.03-.81-.03h-1.99v.57h2.47c.33,0,.52,0,.74-.03-.02.11-.02.17-.03.26t-.03.26s-.02.22-.05.55c-.09.86-.14,1.07-.31,1.27-.17.2-.43.26-1.02.26-.25,0-.43,0-.8-.03-.05-.36-.11-.56-.22-.85.33.04.74.08.95.08.47,0,.49-.05.55-1.01h-2.22l.02,1.45c0,.46.02.68.06.95h-1.02c.04-.25.05-.4.05-.75v-.22l-.02-.96ZM32.48,38.94c-.11-.29-.22-.5-.39-.8h-.48c-.21.29-.4.5-.68.77.21.03.38.04.79.04h.75ZM33.69,41.04h-1.77c-.03.19-.04.21-.12.57h1.9v-.57ZM34.18,38.94c-.13-.16-.31-.33-.56-.51.15-.12.2-.15.32-.27-.15,0-.32-.02-.49-.02h-.48c.11.17.17.26.34.58l-.71.22h1.58ZM36.01,38.94c-.1-.22-.26-.51-.44-.79h-.53c-.23.33-.42.55-.69.79h1.67ZM34.59,40.28h1.87v-.58h-1.88v.58Z"/>
        <path class="cls-3" d="M78.6,44.74v-.47h-5.38v.47h-1.01c.04-.28.05-.64.05-1.12v-5.46c0-.42-.02-.69-.05-1.04.32.04.59.05,1.02.05h5.36c.42,0,.7,0,1.02-.05-.04.32-.04.6-.04,1.04v5.47c0,.47.02.89.04,1.11h-1ZM73.22,43.42h5.38v-5.39h-5.38v5.39ZM76.82,39.01c.38,0,.6,0,.83-.03-.02.21-.03.41-.03.68v2.06c0,.29,0,.47.03.68-.26-.02-.47-.03-.83-.03h-1.85c-.43,0-.57,0-.84.03.03-.23.04-.42.04-.68v-2.06c0-.25,0-.45-.04-.68.22.02.46.03.84.03h1.85ZM75.08,41.58h1.63v-1.76h-1.63v1.76Z"/>
      </g>
      <rect class="cls-1" x="95.06" y="32.52" width="1.42" height="15.06"/>
    </g>
  </g>
</svg>